M48
METRIC,LZ,000.000
;FILE_FORMAT=3:3
;TYPE=PLATED
;Layer: PTH_Through
;EasyEDA v6.5.47, 2024-12-22 15:22:41
;e1e7952599984f8b88d5fc9924ef2239,3d6967793dfb4ab392e21a473a945d40,10
;Gerber Generator version 0.2
;Holesize 1 = 0.310 mm
T01C0.310
;Holesize 2 = 0.889 mm
T02C0.889
;Holesize 3 = 1.000 mm
T03C1.000
%
G05
G90
T01
X021463Y054468
X029591Y039751
X029591Y034671
X016002Y040132
X046101Y047752
X018796Y049149
X017272Y052578
X020463Y034605
X048514Y053610
X043809Y050165
T02
X016510Y046609
X016510Y049149
X048514Y045085
X048514Y047625
X048514Y050165
T03
X025019Y042291
X025019Y039751
X025019Y037211
X025019Y034671
X032639Y034671
X032639Y039751
X032639Y042291
X032639Y037211
X025019Y054737
X025019Y052197
X025019Y049657
X025019Y047117
X032639Y047117
X032639Y052197
X032639Y054737
X032639Y049657
M30
