G04 Layer: TopLayer*
G04 EasyEDA v6.5.47, 2024-12-22 15:22:41*
G04 e1e7952599984f8b88d5fc9924ef2239,3d6967793dfb4ab392e21a473a945d40,10*
G04 Gerber Generator version 0.2*
G04 Scale: 100 percent, Rotated: No, Reflected: No *
G04 Dimensions in millimeters *
G04 leading zeros omitted , absolute positions ,4 integer and 5 decimal *
%FSLAX45Y45*%
%MOMM*%

%AMMACRO1*21,1,$1,$2,0,0,$3*%
%ADD10C,0.2540*%
%ADD11MACRO1,1.35X1.41X90.0000*%
%ADD12MACRO1,1.35X1.41X0.0000*%
%ADD13R,1.3500X1.4100*%
%ADD14MACRO1,1.35X1.41X-90.0000*%
%ADD15R,1.1500X0.9500*%
%ADD16R,2.1500X3.3200*%
%ADD17MACRO1,1.377X1.1325X-90.0000*%
%ADD18MACRO1,1.377X1.1325X90.0000*%
%ADD19MACRO1,1.377X1.1325X0.0000*%
%ADD20R,1.3770X1.1325*%
%ADD21R,1.2500X0.7000*%
%ADD22R,1.0720X0.5320*%
%ADD23R,1.5748X1.5748*%
%ADD24C,1.5748*%
%ADD25C,1.8000*%
%ADD26C,1.9050*%
%ADD27C,0.6200*%
%ADD28C,0.0102*%

%LPD*%
G36*
X1420368Y3125978D02*
G01*
X1416456Y3126740D01*
X1413205Y3128975D01*
X1410970Y3132226D01*
X1410208Y3136138D01*
X1410208Y5920232D01*
X1410970Y5924143D01*
X1413205Y5927394D01*
X1416456Y5929630D01*
X1420368Y5930392D01*
X3583940Y5930392D01*
X3587851Y5929630D01*
X3591102Y5927394D01*
X3593337Y5924143D01*
X3594100Y5920232D01*
X3594100Y5513578D01*
X3593388Y5509818D01*
X3591356Y5506618D01*
X3588308Y5504383D01*
X3584600Y5503418D01*
X3580841Y5503875D01*
X3570732Y5509310D01*
X3563518Y5511495D01*
X3555492Y5512308D01*
X3379927Y5512308D01*
X3375964Y5513120D01*
X3372662Y5515356D01*
X3370478Y5518708D01*
X3368751Y5523026D01*
X3361740Y5535777D01*
X3353206Y5547563D01*
X3343249Y5558180D01*
X3332022Y5567476D01*
X3319729Y5575249D01*
X3307791Y5580888D01*
X3304692Y5583123D01*
X3302660Y5586272D01*
X3301949Y5590032D01*
X3301492Y5686247D01*
X3302254Y5690158D01*
X3304438Y5693460D01*
X3307740Y5695645D01*
X3311651Y5696458D01*
X3318357Y5696458D01*
X3324707Y5697169D01*
X3330143Y5699048D01*
X3335020Y5702147D01*
X3339134Y5706211D01*
X3342233Y5711139D01*
X3344113Y5716574D01*
X3344824Y5722924D01*
X3344824Y5859475D01*
X3344113Y5865825D01*
X3342233Y5871260D01*
X3339134Y5876188D01*
X3335020Y5880252D01*
X3330143Y5883351D01*
X3324707Y5885230D01*
X3318357Y5885942D01*
X3206242Y5885942D01*
X3199942Y5885230D01*
X3194456Y5883351D01*
X3189579Y5880252D01*
X3185464Y5876188D01*
X3182416Y5871260D01*
X3180486Y5865825D01*
X3179775Y5859475D01*
X3179775Y5722924D01*
X3180486Y5716574D01*
X3182416Y5711139D01*
X3185464Y5706211D01*
X3189579Y5702147D01*
X3194456Y5699048D01*
X3199942Y5697169D01*
X3206242Y5696458D01*
X3214116Y5696458D01*
X3217976Y5695696D01*
X3221278Y5693460D01*
X3223463Y5690209D01*
X3224276Y5686348D01*
X3224733Y5589574D01*
X3224022Y5585815D01*
X3221990Y5582615D01*
X3218891Y5580329D01*
X3208070Y5575249D01*
X3195777Y5567476D01*
X3184550Y5558180D01*
X3174593Y5547563D01*
X3166059Y5535777D01*
X3159048Y5523026D01*
X3153664Y5509514D01*
X3150057Y5495391D01*
X3148228Y5480964D01*
X3148228Y5466435D01*
X3150057Y5452008D01*
X3153664Y5437886D01*
X3159048Y5424373D01*
X3166059Y5411622D01*
X3174593Y5399836D01*
X3184550Y5389219D01*
X3195777Y5379923D01*
X3208070Y5372150D01*
X3221228Y5365953D01*
X3235096Y5361432D01*
X3249371Y5358739D01*
X3263900Y5357825D01*
X3278428Y5358739D01*
X3292703Y5361432D01*
X3306572Y5365953D01*
X3319729Y5372150D01*
X3332022Y5379923D01*
X3343249Y5389219D01*
X3353206Y5399836D01*
X3361740Y5411622D01*
X3368751Y5424373D01*
X3370478Y5428691D01*
X3372662Y5432044D01*
X3375964Y5434279D01*
X3379927Y5435092D01*
X3535781Y5435092D01*
X3539693Y5434330D01*
X3542995Y5432094D01*
X3552494Y5422595D01*
X3554729Y5419293D01*
X3555492Y5415381D01*
X3555492Y5258308D01*
X3556304Y5250281D01*
X3558489Y5243068D01*
X3562045Y5236362D01*
X3567176Y5230164D01*
X3595928Y5201412D01*
X3602126Y5196281D01*
X3608832Y5192725D01*
X3616045Y5190540D01*
X3624072Y5189728D01*
X3640378Y5189728D01*
X3643985Y5189067D01*
X3647135Y5187137D01*
X3649370Y5184241D01*
X3650437Y5180685D01*
X3651097Y5174996D01*
X3653028Y5169560D01*
X3656076Y5164632D01*
X3660190Y5160568D01*
X3665067Y5157470D01*
X3670554Y5155539D01*
X3676853Y5154828D01*
X3685641Y5154828D01*
X3689502Y5154066D01*
X3692804Y5151882D01*
X3694988Y5148630D01*
X3695801Y5144770D01*
X3695954Y5120132D01*
X3695192Y5116220D01*
X3693007Y5112918D01*
X3689705Y5110683D01*
X3685794Y5109921D01*
X3665474Y5109921D01*
X3659124Y5109210D01*
X3653688Y5107279D01*
X3648760Y5104180D01*
X3644696Y5100116D01*
X3641598Y5095189D01*
X3639718Y5089753D01*
X3639007Y5083454D01*
X3639007Y4949545D01*
X3639718Y4943246D01*
X3641598Y4937810D01*
X3644696Y4932883D01*
X3648760Y4928819D01*
X3653688Y4925720D01*
X3659124Y4923790D01*
X3665474Y4923078D01*
X3686556Y4923078D01*
X3690467Y4922316D01*
X3693718Y4920132D01*
X3695954Y4916830D01*
X3696715Y4912918D01*
X3696715Y4682388D01*
X3695954Y4678527D01*
X3693820Y4675225D01*
X3542995Y4521657D01*
X3538169Y4515713D01*
X3534613Y4509008D01*
X3532428Y4501794D01*
X3531615Y4493768D01*
X3531615Y4334002D01*
X3530854Y4330141D01*
X3528618Y4326839D01*
X3525367Y4324654D01*
X3521456Y4323842D01*
X3514242Y4323842D01*
X3507892Y4323130D01*
X3502456Y4321251D01*
X3497579Y4318152D01*
X3493465Y4314088D01*
X3490366Y4309160D01*
X3488486Y4303725D01*
X3487775Y4297375D01*
X3487775Y4277868D01*
X3486962Y4273956D01*
X3484778Y4270705D01*
X3481476Y4268470D01*
X3477615Y4267708D01*
X3379927Y4267708D01*
X3375964Y4268520D01*
X3372662Y4270756D01*
X3370478Y4274108D01*
X3368751Y4278426D01*
X3361740Y4291177D01*
X3353206Y4302963D01*
X3343249Y4313580D01*
X3332022Y4322876D01*
X3319729Y4330649D01*
X3306572Y4336846D01*
X3292703Y4341368D01*
X3278428Y4344060D01*
X3263900Y4344974D01*
X3249371Y4344060D01*
X3235096Y4341368D01*
X3221228Y4336846D01*
X3208070Y4330649D01*
X3195777Y4322876D01*
X3184550Y4313580D01*
X3174593Y4302963D01*
X3166059Y4291177D01*
X3159048Y4278426D01*
X3153664Y4264914D01*
X3150057Y4250791D01*
X3148228Y4236364D01*
X3148228Y4221835D01*
X3150057Y4207408D01*
X3153664Y4193286D01*
X3159048Y4179773D01*
X3166059Y4167022D01*
X3174593Y4155236D01*
X3184550Y4144619D01*
X3195777Y4135323D01*
X3208070Y4127550D01*
X3221228Y4121353D01*
X3235096Y4116832D01*
X3249371Y4114139D01*
X3263900Y4113225D01*
X3278428Y4114139D01*
X3292703Y4116832D01*
X3306572Y4121353D01*
X3319729Y4127550D01*
X3332022Y4135323D01*
X3343249Y4144619D01*
X3353206Y4155236D01*
X3361740Y4167022D01*
X3368751Y4179773D01*
X3370478Y4184091D01*
X3372662Y4187444D01*
X3375964Y4189679D01*
X3379927Y4190492D01*
X3477615Y4190492D01*
X3481476Y4189729D01*
X3484778Y4187494D01*
X3486962Y4184243D01*
X3487775Y4180332D01*
X3487775Y4160824D01*
X3488486Y4154474D01*
X3490366Y4149039D01*
X3493465Y4144111D01*
X3497579Y4140047D01*
X3502456Y4136948D01*
X3507892Y4135069D01*
X3514242Y4134358D01*
X3626358Y4134358D01*
X3632657Y4135069D01*
X3638143Y4136948D01*
X3643020Y4140047D01*
X3647135Y4144111D01*
X3650183Y4149039D01*
X3652113Y4154474D01*
X3652824Y4160824D01*
X3652824Y4297375D01*
X3652113Y4303725D01*
X3650183Y4309160D01*
X3647135Y4314088D01*
X3643020Y4318152D01*
X3638143Y4321251D01*
X3632657Y4323130D01*
X3626358Y4323842D01*
X3618992Y4323842D01*
X3615080Y4324654D01*
X3611829Y4326839D01*
X3609594Y4330141D01*
X3608832Y4334002D01*
X3608832Y4474311D01*
X3609594Y4478172D01*
X3611727Y4481474D01*
X3762552Y4635042D01*
X3767378Y4640986D01*
X3770934Y4647692D01*
X3773119Y4654905D01*
X3773932Y4662932D01*
X3773932Y4912918D01*
X3774694Y4916830D01*
X3776929Y4920132D01*
X3780180Y4922316D01*
X3784092Y4923078D01*
X3805326Y4923078D01*
X3811625Y4923790D01*
X3817112Y4925720D01*
X3821988Y4928819D01*
X3826103Y4932883D01*
X3829608Y4936947D01*
X3833368Y4938522D01*
X3837432Y4938522D01*
X3841191Y4936947D01*
X3844696Y4932883D01*
X3848811Y4928819D01*
X3853687Y4925720D01*
X3859174Y4923790D01*
X3865473Y4923078D01*
X3893820Y4923078D01*
X3893820Y4976418D01*
X3841953Y4976418D01*
X3838092Y4977180D01*
X3834790Y4979365D01*
X3832555Y4982667D01*
X3831793Y4986578D01*
X3831793Y5046421D01*
X3832555Y5050332D01*
X3834790Y5053634D01*
X3838092Y5055819D01*
X3841953Y5056581D01*
X3893820Y5056581D01*
X3893820Y5109921D01*
X3865473Y5109921D01*
X3859174Y5109210D01*
X3853687Y5107279D01*
X3848811Y5104180D01*
X3844696Y5100116D01*
X3841191Y5096052D01*
X3837432Y5094478D01*
X3833368Y5094478D01*
X3829608Y5096052D01*
X3826103Y5100116D01*
X3821988Y5104180D01*
X3817112Y5107279D01*
X3811625Y5109210D01*
X3805326Y5109921D01*
X3783329Y5109921D01*
X3779469Y5110683D01*
X3776167Y5112867D01*
X3773982Y5116118D01*
X3773170Y5119979D01*
X3773017Y5144617D01*
X3773779Y5148529D01*
X3775964Y5151831D01*
X3779265Y5154066D01*
X3783177Y5154828D01*
X3790746Y5154828D01*
X3797046Y5155539D01*
X3802532Y5157470D01*
X3807409Y5160568D01*
X3811524Y5164632D01*
X3814572Y5169560D01*
X3816502Y5174996D01*
X3817213Y5181295D01*
X3817213Y5198516D01*
X3817975Y5202377D01*
X3820160Y5205679D01*
X3823411Y5207914D01*
X3827272Y5208676D01*
X3829710Y5208727D01*
X3833317Y5208066D01*
X3836466Y5206187D01*
X3838752Y5203342D01*
X3841445Y5198262D01*
X3846576Y5192064D01*
X3883964Y5154676D01*
X3890162Y5149545D01*
X3896868Y5145989D01*
X3904081Y5143804D01*
X3912108Y5142992D01*
X4290568Y5142992D01*
X4294479Y5142230D01*
X4298391Y5139385D01*
X4300626Y5136083D01*
X4301388Y5132171D01*
X4301388Y5085486D01*
X4302099Y5079136D01*
X4304030Y5073700D01*
X4306722Y5069382D01*
X4308094Y5065877D01*
X4308094Y5062118D01*
X4306722Y5058613D01*
X4304030Y5054295D01*
X4302099Y5048859D01*
X4301388Y5042509D01*
X4301388Y5036159D01*
X4347768Y5036159D01*
X4347768Y5048808D01*
X4348530Y5052720D01*
X4350715Y5056022D01*
X4354017Y5058206D01*
X4357928Y5058968D01*
X4403902Y5058968D01*
X4407763Y5058206D01*
X4411065Y5056022D01*
X4413300Y5052720D01*
X4414062Y5048808D01*
X4414062Y5036159D01*
X4460392Y5036159D01*
X4460392Y5042509D01*
X4459681Y5048859D01*
X4457801Y5054295D01*
X4455109Y5058613D01*
X4453737Y5062118D01*
X4453737Y5065877D01*
X4455109Y5069382D01*
X4457801Y5073700D01*
X4459681Y5079136D01*
X4460392Y5085486D01*
X4460392Y5137505D01*
X4459681Y5143855D01*
X4457801Y5149291D01*
X4454702Y5154218D01*
X4450638Y5158282D01*
X4445711Y5161381D01*
X4440275Y5163312D01*
X4433925Y5164023D01*
X4387189Y5164023D01*
X4383278Y5164785D01*
X4380026Y5166969D01*
X4351324Y5195671D01*
X4349140Y5198922D01*
X4348327Y5202834D01*
X4349089Y5206695D01*
X4351274Y5209997D01*
X4354576Y5212232D01*
X4358436Y5212994D01*
X4954930Y5217871D01*
X4958842Y5217109D01*
X4962194Y5214924D01*
X4964430Y5211622D01*
X4965192Y5207711D01*
X4965192Y5121046D01*
X4964430Y5117134D01*
X4962194Y5113832D01*
X4958943Y5111648D01*
X4955032Y5110886D01*
X4951120Y5111648D01*
X4947869Y5113832D01*
X4946243Y5115458D01*
X4941366Y5118506D01*
X4935880Y5120436D01*
X4929581Y5121148D01*
X4773218Y5121148D01*
X4766919Y5120436D01*
X4761433Y5118506D01*
X4756556Y5115458D01*
X4752441Y5111343D01*
X4749393Y5106466D01*
X4747463Y5100980D01*
X4746752Y5094681D01*
X4746752Y5065268D01*
X4745990Y5061356D01*
X4743754Y5058105D01*
X4740503Y5055870D01*
X4736592Y5055108D01*
X4694275Y5055108D01*
X4690110Y5056022D01*
X4686655Y5058562D01*
X4684572Y5062321D01*
X4684217Y5066639D01*
X4685690Y5070652D01*
X4687570Y5073700D01*
X4689500Y5079136D01*
X4690211Y5085486D01*
X4690211Y5137505D01*
X4689500Y5143855D01*
X4687570Y5149291D01*
X4684522Y5154218D01*
X4680407Y5158282D01*
X4675530Y5161381D01*
X4670044Y5163312D01*
X4663744Y5164023D01*
X4557674Y5164023D01*
X4551324Y5163312D01*
X4545888Y5161381D01*
X4540961Y5158282D01*
X4536897Y5154218D01*
X4533798Y5149291D01*
X4531918Y5143855D01*
X4531207Y5137505D01*
X4531207Y5085486D01*
X4531918Y5079136D01*
X4533798Y5073700D01*
X4536490Y5069382D01*
X4537862Y5065877D01*
X4537862Y5062118D01*
X4536490Y5058613D01*
X4533798Y5054295D01*
X4531918Y5048859D01*
X4531207Y5042509D01*
X4531207Y4990490D01*
X4531918Y4984140D01*
X4533798Y4978704D01*
X4536490Y4974386D01*
X4537862Y4970881D01*
X4537862Y4967122D01*
X4536490Y4963617D01*
X4533798Y4959299D01*
X4531918Y4953863D01*
X4531207Y4947513D01*
X4531207Y4895494D01*
X4531918Y4889144D01*
X4533798Y4883708D01*
X4536897Y4878781D01*
X4540961Y4874717D01*
X4545888Y4871618D01*
X4551324Y4869688D01*
X4557674Y4868976D01*
X4561636Y4868976D01*
X4565497Y4868214D01*
X4568799Y4865979D01*
X4571034Y4862677D01*
X4571796Y4858816D01*
X4571644Y4821326D01*
X4571085Y4817973D01*
X4569409Y4814976D01*
X4562957Y4807051D01*
X4558284Y4798618D01*
X4555083Y4789525D01*
X4553458Y4780026D01*
X4553458Y4770374D01*
X4555083Y4760874D01*
X4558284Y4751781D01*
X4562957Y4743348D01*
X4569053Y4735830D01*
X4576267Y4729480D01*
X4584496Y4724400D01*
X4593437Y4720844D01*
X4602886Y4718812D01*
X4612538Y4718354D01*
X4622088Y4719624D01*
X4631283Y4722418D01*
X4639919Y4726787D01*
X4647692Y4732528D01*
X4654346Y4739487D01*
X4659731Y4747463D01*
X4663744Y4756251D01*
X4666132Y4765598D01*
X4666996Y4775200D01*
X4666132Y4784801D01*
X4663744Y4794148D01*
X4659731Y4802936D01*
X4654346Y4810912D01*
X4651705Y4813706D01*
X4649571Y4816957D01*
X4648860Y4820767D01*
X4649012Y4858867D01*
X4649774Y4862728D01*
X4652010Y4866030D01*
X4655261Y4868214D01*
X4659172Y4868976D01*
X4663744Y4868976D01*
X4670044Y4869688D01*
X4675530Y4871618D01*
X4680407Y4874717D01*
X4684522Y4878781D01*
X4687570Y4883708D01*
X4689500Y4889144D01*
X4690211Y4895494D01*
X4690211Y4947513D01*
X4689500Y4953863D01*
X4687570Y4959299D01*
X4685690Y4962347D01*
X4684217Y4966360D01*
X4684572Y4970678D01*
X4686655Y4974437D01*
X4690110Y4976977D01*
X4694275Y4977892D01*
X4736592Y4977892D01*
X4740503Y4977130D01*
X4743754Y4974894D01*
X4745990Y4971643D01*
X4746752Y4967732D01*
X4746752Y4938318D01*
X4747463Y4932019D01*
X4749393Y4926533D01*
X4752441Y4921656D01*
X4756556Y4917541D01*
X4761433Y4914493D01*
X4766919Y4912563D01*
X4773218Y4911852D01*
X4929581Y4911852D01*
X4935880Y4912563D01*
X4941366Y4914493D01*
X4946243Y4917541D01*
X4950358Y4921656D01*
X4953406Y4926533D01*
X4955336Y4932019D01*
X4956048Y4938318D01*
X4956048Y4967782D01*
X4956708Y4971440D01*
X4958689Y4974590D01*
X4961636Y4976876D01*
X4965192Y4977892D01*
X4973218Y4978704D01*
X4980432Y4980889D01*
X4987137Y4984445D01*
X4993335Y4989576D01*
X5030724Y5026964D01*
X5035854Y5033162D01*
X5039410Y5039868D01*
X5041595Y5047081D01*
X5042408Y5055108D01*
X5042408Y5208473D01*
X5043170Y5212384D01*
X5045354Y5215636D01*
X5048605Y5217871D01*
X5052466Y5218633D01*
X5063896Y5218734D01*
X5067808Y5217972D01*
X5071160Y5215788D01*
X5073396Y5212486D01*
X5074158Y5208574D01*
X5074158Y3136138D01*
X5073396Y3132226D01*
X5071160Y3128975D01*
X5067909Y3126740D01*
X5063998Y3125978D01*
G37*

%LPC*%
G36*
X2807208Y3149092D02*
G01*
X3568192Y3149092D01*
X3576218Y3149904D01*
X3583432Y3152089D01*
X3590137Y3155645D01*
X3596335Y3160776D01*
X3633724Y3198164D01*
X3638854Y3204362D01*
X3642410Y3211068D01*
X3644595Y3218281D01*
X3645408Y3226308D01*
X3645408Y3668115D01*
X3646170Y3671976D01*
X3648405Y3675278D01*
X3651656Y3677462D01*
X3655568Y3678275D01*
X3675075Y3678275D01*
X3681425Y3678986D01*
X3686860Y3680866D01*
X3691788Y3683965D01*
X3695852Y3688079D01*
X3698951Y3692956D01*
X3700830Y3698392D01*
X3701542Y3704742D01*
X3701542Y3712006D01*
X3702354Y3715918D01*
X3704539Y3719220D01*
X3707841Y3721404D01*
X3711701Y3722166D01*
X3743198Y3722166D01*
X3747058Y3721404D01*
X3750360Y3719220D01*
X3752545Y3715918D01*
X3753358Y3712006D01*
X3753358Y3704742D01*
X3754069Y3698392D01*
X3755948Y3692956D01*
X3759047Y3688079D01*
X3763111Y3683965D01*
X3768039Y3680866D01*
X3773474Y3678986D01*
X3779824Y3678275D01*
X3916375Y3678275D01*
X3922725Y3678986D01*
X3928160Y3680866D01*
X3933088Y3683965D01*
X3937152Y3688079D01*
X3940251Y3692956D01*
X3942130Y3698392D01*
X3942842Y3704742D01*
X3942842Y3816858D01*
X3942130Y3823157D01*
X3940251Y3828643D01*
X3937152Y3833520D01*
X3933088Y3837635D01*
X3928160Y3840683D01*
X3922725Y3842613D01*
X3916375Y3843324D01*
X3779824Y3843324D01*
X3773474Y3842613D01*
X3768039Y3840683D01*
X3763111Y3837635D01*
X3759047Y3833520D01*
X3755948Y3828643D01*
X3754069Y3823157D01*
X3753358Y3816858D01*
X3753358Y3809542D01*
X3752545Y3805682D01*
X3750360Y3802379D01*
X3747058Y3800195D01*
X3743198Y3799382D01*
X3711701Y3799382D01*
X3707841Y3800195D01*
X3704539Y3802379D01*
X3702354Y3805682D01*
X3701542Y3809542D01*
X3701542Y3816858D01*
X3700830Y3823157D01*
X3698951Y3828643D01*
X3695852Y3833520D01*
X3691788Y3837635D01*
X3686860Y3840683D01*
X3681425Y3842613D01*
X3675075Y3843324D01*
X3538524Y3843324D01*
X3532174Y3842613D01*
X3526739Y3840683D01*
X3521811Y3837635D01*
X3517747Y3833520D01*
X3514648Y3828643D01*
X3512769Y3823157D01*
X3512058Y3816858D01*
X3512058Y3704742D01*
X3512769Y3698392D01*
X3514648Y3692956D01*
X3517747Y3688079D01*
X3521811Y3683965D01*
X3526739Y3680866D01*
X3532174Y3678986D01*
X3538524Y3678275D01*
X3558032Y3678275D01*
X3561943Y3677462D01*
X3565194Y3675278D01*
X3567429Y3671976D01*
X3568192Y3668115D01*
X3568192Y3246018D01*
X3567429Y3242106D01*
X3565194Y3238804D01*
X3555695Y3229305D01*
X3552393Y3227070D01*
X3548481Y3226308D01*
X2826918Y3226308D01*
X2823006Y3227070D01*
X2819704Y3229305D01*
X2810205Y3238804D01*
X2807970Y3242106D01*
X2807208Y3246018D01*
X2807208Y3682492D01*
X2806395Y3690518D01*
X2804210Y3697732D01*
X2800654Y3704437D01*
X2795524Y3710635D01*
X2758135Y3748024D01*
X2751937Y3753154D01*
X2745232Y3756710D01*
X2738018Y3758895D01*
X2729992Y3759708D01*
X2617927Y3759708D01*
X2613964Y3760520D01*
X2610662Y3762756D01*
X2608478Y3766108D01*
X2606751Y3770426D01*
X2599740Y3783177D01*
X2591206Y3794963D01*
X2581249Y3805580D01*
X2570022Y3814876D01*
X2557729Y3822649D01*
X2544572Y3828846D01*
X2530703Y3833368D01*
X2516428Y3836060D01*
X2501900Y3836974D01*
X2487371Y3836060D01*
X2473096Y3833368D01*
X2459228Y3828846D01*
X2446070Y3822649D01*
X2433777Y3814876D01*
X2422550Y3805580D01*
X2412593Y3794963D01*
X2404059Y3783177D01*
X2397048Y3770426D01*
X2391664Y3756914D01*
X2388057Y3742791D01*
X2386228Y3728364D01*
X2386228Y3713835D01*
X2388057Y3699408D01*
X2391664Y3685286D01*
X2397048Y3671773D01*
X2404059Y3659022D01*
X2412593Y3647236D01*
X2422550Y3636619D01*
X2433777Y3627323D01*
X2446070Y3619550D01*
X2459228Y3613353D01*
X2473096Y3608832D01*
X2487371Y3606139D01*
X2501900Y3605225D01*
X2516428Y3606139D01*
X2530703Y3608832D01*
X2544572Y3613353D01*
X2557729Y3619550D01*
X2570022Y3627323D01*
X2581249Y3636619D01*
X2591206Y3647236D01*
X2599740Y3659022D01*
X2606751Y3671773D01*
X2608478Y3676091D01*
X2610662Y3679444D01*
X2613964Y3681679D01*
X2617927Y3682492D01*
X2710281Y3682492D01*
X2714193Y3681729D01*
X2717495Y3679494D01*
X2726994Y3669995D01*
X2729230Y3666693D01*
X2729992Y3662781D01*
X2729992Y3226308D01*
X2730804Y3218281D01*
X2732989Y3211068D01*
X2736545Y3204362D01*
X2741676Y3198164D01*
X2779064Y3160776D01*
X2785262Y3155645D01*
X2791968Y3152089D01*
X2799181Y3149904D01*
G37*
G36*
X1735124Y3182975D02*
G01*
X1871675Y3182975D01*
X1878025Y3183686D01*
X1883460Y3185566D01*
X1888388Y3188665D01*
X1892452Y3192780D01*
X1895551Y3197656D01*
X1897430Y3203092D01*
X1898142Y3209442D01*
X1898142Y3221736D01*
X1898954Y3225647D01*
X1901139Y3228898D01*
X1904441Y3231134D01*
X1908302Y3231896D01*
X1950669Y3231896D01*
X1954733Y3231032D01*
X1958086Y3228644D01*
X1960524Y3224276D01*
X1963623Y3219399D01*
X1967687Y3215284D01*
X1972614Y3212236D01*
X1978050Y3210306D01*
X1984400Y3209594D01*
X2108250Y3209594D01*
X2114550Y3210306D01*
X2120036Y3212236D01*
X2124913Y3215284D01*
X2129028Y3219399D01*
X2132076Y3224276D01*
X2134006Y3229762D01*
X2134717Y3236061D01*
X2134717Y3304946D01*
X2134006Y3311245D01*
X2132076Y3316732D01*
X2129028Y3321608D01*
X2124913Y3325723D01*
X2120036Y3328771D01*
X2114550Y3330701D01*
X2108250Y3331413D01*
X1984400Y3331413D01*
X1978050Y3330701D01*
X1972614Y3328771D01*
X1967687Y3325723D01*
X1963623Y3321608D01*
X1958086Y3312363D01*
X1954733Y3309975D01*
X1950669Y3309112D01*
X1908302Y3309112D01*
X1904441Y3309874D01*
X1901139Y3312109D01*
X1898954Y3315360D01*
X1898142Y3319272D01*
X1898142Y3321558D01*
X1897430Y3327857D01*
X1895551Y3333343D01*
X1892452Y3338220D01*
X1888388Y3342335D01*
X1883460Y3345383D01*
X1878025Y3347313D01*
X1871675Y3348024D01*
X1735124Y3348024D01*
X1728774Y3347313D01*
X1723339Y3345383D01*
X1718411Y3342335D01*
X1714347Y3338220D01*
X1711248Y3333343D01*
X1709369Y3327857D01*
X1708657Y3321558D01*
X1708657Y3209442D01*
X1709369Y3203092D01*
X1711248Y3197656D01*
X1714347Y3192780D01*
X1718411Y3188665D01*
X1723339Y3185566D01*
X1728774Y3183686D01*
G37*
G36*
X2184349Y3304590D02*
G01*
X2208682Y3304590D01*
X2208682Y3341674D01*
X2157882Y3341674D01*
X2157882Y3331057D01*
X2158593Y3324758D01*
X2160524Y3319272D01*
X2163572Y3314395D01*
X2167686Y3310280D01*
X2172563Y3307232D01*
X2178050Y3305301D01*
G37*
G36*
X2283917Y3304590D02*
G01*
X2308199Y3304590D01*
X2314549Y3305301D01*
X2319985Y3307232D01*
X2324912Y3310280D01*
X2328976Y3314395D01*
X2332075Y3319272D01*
X2334006Y3324758D01*
X2334717Y3331057D01*
X2334717Y3341674D01*
X2283917Y3341674D01*
G37*
G36*
X3263900Y3345942D02*
G01*
X3278784Y3346856D01*
X3293465Y3349599D01*
X3307638Y3354120D01*
X3321202Y3360369D01*
X3333902Y3368243D01*
X3345535Y3377590D01*
X3355898Y3388309D01*
X3364890Y3400196D01*
X3372358Y3413099D01*
X3378149Y3426815D01*
X3382213Y3441192D01*
X3384499Y3455924D01*
X3384956Y3470808D01*
X3383584Y3485692D01*
X3380435Y3500272D01*
X3375456Y3514293D01*
X3368801Y3527653D01*
X3360572Y3540099D01*
X3350869Y3551428D01*
X3339846Y3561486D01*
X3327654Y3570071D01*
X3314547Y3577132D01*
X3300628Y3582517D01*
X3294227Y3584143D01*
X3290366Y3586073D01*
X3287623Y3589477D01*
X3286556Y3593693D01*
X3287369Y3597960D01*
X3289858Y3601516D01*
X3293618Y3603701D01*
X3307638Y3608120D01*
X3321202Y3614369D01*
X3333902Y3622243D01*
X3345535Y3631590D01*
X3355898Y3642309D01*
X3364890Y3654196D01*
X3372358Y3667099D01*
X3378149Y3680815D01*
X3382213Y3695192D01*
X3384499Y3709924D01*
X3384956Y3724808D01*
X3383584Y3739692D01*
X3380435Y3754272D01*
X3375456Y3768293D01*
X3368801Y3781653D01*
X3360572Y3794099D01*
X3350869Y3805428D01*
X3339846Y3815486D01*
X3327654Y3824071D01*
X3314547Y3831132D01*
X3309010Y3833317D01*
X3305606Y3835450D01*
X3303320Y3838803D01*
X3302508Y3842765D01*
X3302508Y3858971D01*
X3303219Y3862730D01*
X3305251Y3865930D01*
X3308350Y3868165D01*
X3319729Y3873550D01*
X3332022Y3881323D01*
X3343249Y3890619D01*
X3353206Y3901236D01*
X3361740Y3913022D01*
X3363925Y3916934D01*
X3366160Y3919728D01*
X3369259Y3921556D01*
X3372815Y3922166D01*
X3501898Y3922166D01*
X3505758Y3921404D01*
X3509060Y3919220D01*
X3511245Y3915918D01*
X3512058Y3912006D01*
X3512058Y3904742D01*
X3512769Y3898442D01*
X3514648Y3892956D01*
X3517747Y3888079D01*
X3521811Y3883964D01*
X3526739Y3880916D01*
X3532174Y3878986D01*
X3538524Y3878275D01*
X3675075Y3878275D01*
X3681425Y3878986D01*
X3686860Y3880916D01*
X3691788Y3883964D01*
X3695852Y3888079D01*
X3698951Y3892956D01*
X3700830Y3898442D01*
X3701542Y3904742D01*
X3701542Y4016857D01*
X3700830Y4023207D01*
X3698951Y4028643D01*
X3695852Y4033520D01*
X3691788Y4037634D01*
X3686860Y4040733D01*
X3681425Y4042613D01*
X3675075Y4043324D01*
X3538524Y4043324D01*
X3532174Y4042613D01*
X3526739Y4040733D01*
X3521811Y4037634D01*
X3517747Y4033520D01*
X3514648Y4028643D01*
X3512769Y4023207D01*
X3512058Y4016857D01*
X3512058Y4009542D01*
X3511245Y4005681D01*
X3509060Y4002379D01*
X3505758Y4000195D01*
X3501898Y3999382D01*
X3384956Y3999382D01*
X3380638Y4000398D01*
X3377133Y4003090D01*
X3375101Y4007053D01*
X3374136Y4010914D01*
X3368751Y4024426D01*
X3361740Y4037177D01*
X3353206Y4048963D01*
X3343249Y4059580D01*
X3332022Y4068876D01*
X3319729Y4076649D01*
X3306572Y4082846D01*
X3292703Y4087368D01*
X3278428Y4090060D01*
X3263900Y4090974D01*
X3249371Y4090060D01*
X3235096Y4087368D01*
X3221228Y4082846D01*
X3208070Y4076649D01*
X3195777Y4068876D01*
X3184550Y4059580D01*
X3174593Y4048963D01*
X3166059Y4037177D01*
X3159048Y4024426D01*
X3157321Y4020108D01*
X3155137Y4016756D01*
X3151835Y4014520D01*
X3147872Y4013708D01*
X3004921Y4013708D01*
X3000959Y4014520D01*
X2988919Y4023512D01*
X2980283Y4027881D01*
X2971088Y4030675D01*
X2961538Y4031945D01*
X2951886Y4031487D01*
X2942437Y4029456D01*
X2933496Y4025900D01*
X2925267Y4020820D01*
X2918053Y4014470D01*
X2911957Y4006951D01*
X2907284Y3998518D01*
X2904083Y3989425D01*
X2902458Y3979926D01*
X2902458Y3970274D01*
X2904083Y3960774D01*
X2907284Y3951681D01*
X2911957Y3943248D01*
X2918053Y3935729D01*
X2925267Y3929379D01*
X2933496Y3924300D01*
X2942437Y3920744D01*
X2951886Y3918712D01*
X2961538Y3918254D01*
X2971088Y3919524D01*
X2980283Y3922318D01*
X2988919Y3926687D01*
X3000959Y3935679D01*
X3004921Y3936492D01*
X3147872Y3936492D01*
X3151835Y3935679D01*
X3155137Y3933444D01*
X3157321Y3930091D01*
X3159048Y3925773D01*
X3166059Y3913022D01*
X3174593Y3901236D01*
X3184550Y3890619D01*
X3195777Y3881323D01*
X3208070Y3873550D01*
X3219450Y3868165D01*
X3222548Y3865930D01*
X3224580Y3862730D01*
X3225292Y3858971D01*
X3225292Y3842765D01*
X3224479Y3838803D01*
X3222193Y3835450D01*
X3218789Y3833317D01*
X3213252Y3831132D01*
X3200146Y3824071D01*
X3187954Y3815486D01*
X3176930Y3805428D01*
X3167227Y3794099D01*
X3158998Y3781653D01*
X3152343Y3768293D01*
X3147364Y3754272D01*
X3144215Y3739692D01*
X3142843Y3724808D01*
X3143300Y3709924D01*
X3145586Y3695192D01*
X3149650Y3680815D01*
X3155442Y3667099D01*
X3162909Y3654196D01*
X3171901Y3642309D01*
X3182264Y3631590D01*
X3193897Y3622243D01*
X3206597Y3614369D01*
X3220161Y3608120D01*
X3234182Y3603701D01*
X3237941Y3601516D01*
X3240430Y3597960D01*
X3241243Y3593693D01*
X3240176Y3589477D01*
X3237433Y3586073D01*
X3233572Y3584143D01*
X3227171Y3582517D01*
X3213252Y3577132D01*
X3200146Y3570071D01*
X3187954Y3561486D01*
X3176930Y3551428D01*
X3167227Y3540099D01*
X3158998Y3527653D01*
X3152343Y3514293D01*
X3151682Y3512515D01*
X3149549Y3508959D01*
X3146196Y3506571D01*
X3142132Y3505708D01*
X3004921Y3505708D01*
X3000959Y3506520D01*
X2988919Y3515512D01*
X2980283Y3519881D01*
X2971088Y3522675D01*
X2961538Y3523945D01*
X2951886Y3523487D01*
X2942437Y3521456D01*
X2933496Y3517900D01*
X2925267Y3512820D01*
X2918053Y3506470D01*
X2911957Y3498951D01*
X2907284Y3490518D01*
X2904083Y3481425D01*
X2902458Y3471926D01*
X2902458Y3462274D01*
X2904083Y3452774D01*
X2907284Y3443681D01*
X2911957Y3435248D01*
X2918053Y3427729D01*
X2925267Y3421379D01*
X2933496Y3416300D01*
X2942437Y3412744D01*
X2951886Y3410712D01*
X2961538Y3410254D01*
X2971088Y3411524D01*
X2980283Y3414318D01*
X2988919Y3418687D01*
X3000959Y3427679D01*
X3004921Y3428492D01*
X3142234Y3428492D01*
X3146094Y3427729D01*
X3149346Y3425545D01*
X3151581Y3422294D01*
X3155442Y3413099D01*
X3162909Y3400196D01*
X3171901Y3388309D01*
X3182264Y3377590D01*
X3193897Y3368243D01*
X3206597Y3360369D01*
X3220161Y3354120D01*
X3234334Y3349599D01*
X3249015Y3346856D01*
G37*
G36*
X2553258Y3363417D02*
G01*
X2557729Y3365550D01*
X2570022Y3373323D01*
X2581249Y3382619D01*
X2591206Y3393236D01*
X2599740Y3405022D01*
X2605633Y3415741D01*
X2553258Y3415741D01*
G37*
G36*
X2450541Y3363417D02*
G01*
X2450541Y3415741D01*
X2398166Y3415741D01*
X2404059Y3405022D01*
X2412593Y3393236D01*
X2422550Y3382619D01*
X2433777Y3373323D01*
X2446070Y3365550D01*
G37*
G36*
X1735124Y3382975D02*
G01*
X1871675Y3382975D01*
X1878025Y3383686D01*
X1883460Y3385616D01*
X1888388Y3388664D01*
X1892452Y3392779D01*
X1895551Y3397656D01*
X1897430Y3403142D01*
X1898142Y3409442D01*
X1898142Y3521557D01*
X1897430Y3527907D01*
X1895551Y3533343D01*
X1890318Y3541572D01*
X1889556Y3545433D01*
X1890369Y3549294D01*
X1892604Y3552545D01*
X1895856Y3554729D01*
X1899716Y3555492D01*
X2145792Y3555492D01*
X2153818Y3556304D01*
X2161032Y3558489D01*
X2167737Y3562045D01*
X2173935Y3567176D01*
X2209800Y3603040D01*
X2214930Y3609238D01*
X2218486Y3615944D01*
X2220671Y3623157D01*
X2221484Y3631184D01*
X2221484Y3641598D01*
X2222246Y3645458D01*
X2224481Y3648760D01*
X2227732Y3650945D01*
X2231644Y3651758D01*
X2238857Y3651758D01*
X2245207Y3652469D01*
X2250643Y3654348D01*
X2255520Y3657447D01*
X2259634Y3661511D01*
X2262733Y3666439D01*
X2264613Y3671874D01*
X2265324Y3678224D01*
X2265324Y3814775D01*
X2264613Y3821125D01*
X2262733Y3826560D01*
X2259634Y3831488D01*
X2255520Y3835552D01*
X2250643Y3838651D01*
X2245207Y3840530D01*
X2238857Y3841242D01*
X2231593Y3841242D01*
X2227681Y3842054D01*
X2224379Y3844239D01*
X2222195Y3847541D01*
X2221433Y3851401D01*
X2221433Y3871518D01*
X2222195Y3875430D01*
X2224379Y3878732D01*
X2227681Y3880916D01*
X2231593Y3881678D01*
X2252726Y3881678D01*
X2259076Y3882390D01*
X2264511Y3884320D01*
X2269439Y3887419D01*
X2273503Y3891483D01*
X2276602Y3896410D01*
X2278481Y3901846D01*
X2279192Y3908145D01*
X2279192Y3926332D01*
X2280005Y3930243D01*
X2282190Y3933494D01*
X2285492Y3935729D01*
X2289352Y3936492D01*
X2385872Y3936492D01*
X2389835Y3935679D01*
X2393137Y3933444D01*
X2395321Y3930091D01*
X2397048Y3925773D01*
X2404059Y3913022D01*
X2412593Y3901236D01*
X2422550Y3890619D01*
X2433777Y3881323D01*
X2446070Y3873550D01*
X2459228Y3867353D01*
X2473096Y3862832D01*
X2487371Y3860139D01*
X2501900Y3859225D01*
X2516428Y3860139D01*
X2530703Y3862832D01*
X2544572Y3867353D01*
X2557729Y3873550D01*
X2570022Y3881323D01*
X2581249Y3890619D01*
X2591206Y3901236D01*
X2599740Y3913022D01*
X2606751Y3925773D01*
X2612136Y3939286D01*
X2615742Y3953408D01*
X2617571Y3967835D01*
X2617571Y3982364D01*
X2615742Y3996791D01*
X2612136Y4010914D01*
X2606751Y4024426D01*
X2599740Y4037177D01*
X2591206Y4048963D01*
X2581249Y4059580D01*
X2570022Y4068876D01*
X2557729Y4076649D01*
X2544572Y4082846D01*
X2530703Y4087368D01*
X2516428Y4090060D01*
X2501900Y4090974D01*
X2487371Y4090060D01*
X2473096Y4087368D01*
X2459228Y4082846D01*
X2446070Y4076649D01*
X2433777Y4068876D01*
X2422550Y4059580D01*
X2412593Y4048963D01*
X2404059Y4037177D01*
X2397048Y4024426D01*
X2395321Y4020108D01*
X2393137Y4016756D01*
X2389835Y4014520D01*
X2385872Y4013708D01*
X2289352Y4013708D01*
X2285492Y4014470D01*
X2282190Y4016705D01*
X2280005Y4019956D01*
X2279192Y4023868D01*
X2279192Y4042054D01*
X2278481Y4048353D01*
X2276602Y4053789D01*
X2273503Y4058716D01*
X2269439Y4062780D01*
X2264511Y4065879D01*
X2259076Y4067810D01*
X2252726Y4068521D01*
X2155342Y4068521D01*
X2151430Y4069283D01*
X2148128Y4071467D01*
X2145944Y4074769D01*
X2145182Y4078681D01*
X2145944Y4082542D01*
X2148128Y4085844D01*
X2193645Y4131360D01*
X2196947Y4133545D01*
X2200859Y4134358D01*
X2251557Y4134358D01*
X2257907Y4135069D01*
X2263343Y4136948D01*
X2268220Y4140047D01*
X2272334Y4144111D01*
X2275433Y4149039D01*
X2277313Y4154474D01*
X2278024Y4160824D01*
X2278024Y4180332D01*
X2278837Y4184243D01*
X2281021Y4187494D01*
X2284323Y4189729D01*
X2288184Y4190492D01*
X2385872Y4190492D01*
X2389835Y4189679D01*
X2393137Y4187444D01*
X2395321Y4184091D01*
X2397048Y4179773D01*
X2404059Y4167022D01*
X2412593Y4155236D01*
X2422550Y4144619D01*
X2433777Y4135323D01*
X2446070Y4127550D01*
X2459228Y4121353D01*
X2473096Y4116832D01*
X2487371Y4114139D01*
X2501900Y4113225D01*
X2516428Y4114139D01*
X2530703Y4116832D01*
X2544572Y4121353D01*
X2557729Y4127550D01*
X2570022Y4135323D01*
X2581249Y4144619D01*
X2591206Y4155236D01*
X2599740Y4167022D01*
X2606751Y4179773D01*
X2612136Y4193286D01*
X2615742Y4207408D01*
X2617571Y4221835D01*
X2617571Y4236364D01*
X2615742Y4250791D01*
X2612136Y4264914D01*
X2606751Y4278426D01*
X2599740Y4291177D01*
X2591206Y4302963D01*
X2581249Y4313580D01*
X2570022Y4322876D01*
X2557729Y4330649D01*
X2544572Y4336846D01*
X2530703Y4341368D01*
X2516428Y4344060D01*
X2501900Y4344974D01*
X2487371Y4344060D01*
X2473096Y4341368D01*
X2459228Y4336846D01*
X2446070Y4330649D01*
X2433777Y4322876D01*
X2422550Y4313580D01*
X2412593Y4302963D01*
X2404059Y4291177D01*
X2397048Y4278426D01*
X2395321Y4274108D01*
X2393137Y4270756D01*
X2389835Y4268520D01*
X2385872Y4267708D01*
X2288184Y4267708D01*
X2284323Y4268470D01*
X2281021Y4270705D01*
X2278837Y4273956D01*
X2278024Y4277868D01*
X2278024Y4297375D01*
X2277313Y4303725D01*
X2275433Y4309160D01*
X2272334Y4314088D01*
X2268220Y4318152D01*
X2263343Y4321251D01*
X2257907Y4323130D01*
X2251557Y4323842D01*
X2139442Y4323842D01*
X2133142Y4323130D01*
X2127656Y4321251D01*
X2122779Y4318152D01*
X2118664Y4314088D01*
X2115616Y4309160D01*
X2113686Y4303725D01*
X2112975Y4297375D01*
X2112975Y4164076D01*
X2112213Y4160215D01*
X2109978Y4156913D01*
X2092502Y4139387D01*
X2089251Y4137202D01*
X2085492Y4136440D01*
X2081631Y4137101D01*
X2078380Y4139184D01*
X2076094Y4142333D01*
X2075180Y4146092D01*
X2075738Y4149953D01*
X2077313Y4154474D01*
X2078024Y4160824D01*
X2078024Y4297375D01*
X2077313Y4303725D01*
X2075383Y4309160D01*
X2072335Y4314088D01*
X2068220Y4318152D01*
X2063343Y4321251D01*
X2057857Y4323130D01*
X2051557Y4323842D01*
X1939442Y4323842D01*
X1933092Y4323130D01*
X1927656Y4321251D01*
X1922780Y4318152D01*
X1918665Y4314088D01*
X1915566Y4309160D01*
X1913686Y4303725D01*
X1912975Y4297375D01*
X1912975Y4277868D01*
X1912162Y4273956D01*
X1909978Y4270705D01*
X1906676Y4268470D01*
X1902815Y4267708D01*
X1894484Y4267708D01*
X1890623Y4268470D01*
X1887321Y4270705D01*
X1885137Y4273956D01*
X1884324Y4277868D01*
X1884324Y4297375D01*
X1883613Y4303725D01*
X1881733Y4309160D01*
X1878634Y4314088D01*
X1874520Y4318152D01*
X1869643Y4321251D01*
X1864207Y4323130D01*
X1857857Y4323842D01*
X1745742Y4323842D01*
X1739442Y4323130D01*
X1733956Y4321251D01*
X1729079Y4318152D01*
X1724964Y4314088D01*
X1721916Y4309160D01*
X1719986Y4303725D01*
X1719275Y4297375D01*
X1719275Y4160824D01*
X1719986Y4154474D01*
X1721916Y4149039D01*
X1724964Y4144111D01*
X1729079Y4140047D01*
X1733956Y4136948D01*
X1739442Y4135069D01*
X1745742Y4134358D01*
X1857857Y4134358D01*
X1864207Y4135069D01*
X1869643Y4136948D01*
X1874520Y4140047D01*
X1878634Y4144111D01*
X1881733Y4149039D01*
X1883613Y4154474D01*
X1884324Y4160824D01*
X1884324Y4180332D01*
X1885137Y4184243D01*
X1887321Y4187494D01*
X1890623Y4189729D01*
X1894484Y4190492D01*
X1902815Y4190492D01*
X1906676Y4189729D01*
X1909978Y4187494D01*
X1912162Y4184243D01*
X1912975Y4180332D01*
X1912975Y4160824D01*
X1913686Y4154474D01*
X1915566Y4149039D01*
X1918665Y4144111D01*
X1922780Y4140047D01*
X1927656Y4136948D01*
X1933092Y4135069D01*
X1939442Y4134358D01*
X2051557Y4134358D01*
X2057857Y4135069D01*
X2062429Y4136644D01*
X2066289Y4137202D01*
X2070049Y4136288D01*
X2073198Y4134002D01*
X2075281Y4130700D01*
X2075942Y4126890D01*
X2075129Y4123080D01*
X2072995Y4119879D01*
X2024583Y4071467D01*
X2021281Y4069283D01*
X2017420Y4068521D01*
X1912874Y4068521D01*
X1906524Y4067810D01*
X1901088Y4065879D01*
X1896160Y4062780D01*
X1892096Y4058716D01*
X1888998Y4053789D01*
X1887118Y4048353D01*
X1886407Y4042054D01*
X1886407Y3908145D01*
X1887118Y3901846D01*
X1888998Y3896410D01*
X1892096Y3891483D01*
X1896160Y3887419D01*
X1901088Y3884320D01*
X1906524Y3882390D01*
X1912874Y3881678D01*
X1934057Y3881678D01*
X1937918Y3880916D01*
X1941220Y3878732D01*
X1943404Y3875430D01*
X1944166Y3871518D01*
X1944166Y3851401D01*
X1943404Y3847541D01*
X1941220Y3844239D01*
X1937918Y3842054D01*
X1934057Y3841242D01*
X1926742Y3841242D01*
X1920392Y3840530D01*
X1914956Y3838651D01*
X1910080Y3835552D01*
X1905965Y3831488D01*
X1902866Y3826560D01*
X1900986Y3821125D01*
X1900275Y3814775D01*
X1900275Y3678224D01*
X1900986Y3671874D01*
X1902866Y3666439D01*
X1905965Y3661511D01*
X1910080Y3657447D01*
X1914956Y3654348D01*
X1920392Y3652469D01*
X1923897Y3650386D01*
X1926285Y3647135D01*
X1927199Y3643172D01*
X1926539Y3639210D01*
X1924354Y3635806D01*
X1921002Y3633520D01*
X1917039Y3632708D01*
X1842007Y3632708D01*
X1833981Y3631895D01*
X1826768Y3629710D01*
X1820062Y3626154D01*
X1813864Y3621024D01*
X1776475Y3583635D01*
X1771345Y3577437D01*
X1767789Y3570732D01*
X1765604Y3563518D01*
X1764944Y3557219D01*
X1763928Y3553612D01*
X1761693Y3550665D01*
X1758492Y3548735D01*
X1754835Y3548024D01*
X1735124Y3548024D01*
X1728774Y3547313D01*
X1723339Y3545433D01*
X1718411Y3542334D01*
X1714347Y3538220D01*
X1711248Y3533343D01*
X1709369Y3527907D01*
X1708657Y3521557D01*
X1708657Y3409442D01*
X1709369Y3403142D01*
X1711248Y3397656D01*
X1714347Y3392779D01*
X1718411Y3388664D01*
X1723339Y3385616D01*
X1728774Y3383686D01*
G37*
G36*
X2157882Y3389325D02*
G01*
X2208682Y3389325D01*
X2208682Y3426409D01*
X2184349Y3426409D01*
X2178050Y3425698D01*
X2172563Y3423767D01*
X2167686Y3420719D01*
X2163572Y3416604D01*
X2160524Y3411728D01*
X2158593Y3406241D01*
X2157882Y3399942D01*
G37*
G36*
X2283917Y3389325D02*
G01*
X2334717Y3389325D01*
X2334717Y3399942D01*
X2334006Y3406241D01*
X2332075Y3411728D01*
X2328976Y3416604D01*
X2324912Y3420719D01*
X2319985Y3423767D01*
X2314549Y3425698D01*
X2308199Y3426409D01*
X2283917Y3426409D01*
G37*
G36*
X1984400Y3399586D02*
G01*
X2108250Y3399586D01*
X2114550Y3400298D01*
X2120036Y3402228D01*
X2124913Y3405276D01*
X2129028Y3409391D01*
X2132076Y3414268D01*
X2134006Y3419754D01*
X2134717Y3426053D01*
X2134717Y3494938D01*
X2134006Y3501237D01*
X2132076Y3506724D01*
X2129028Y3511600D01*
X2124913Y3515715D01*
X2120036Y3518763D01*
X2114550Y3520694D01*
X2108250Y3521405D01*
X1984400Y3521405D01*
X1978050Y3520694D01*
X1972614Y3518763D01*
X1967687Y3515715D01*
X1963623Y3511600D01*
X1960524Y3506724D01*
X1958593Y3501237D01*
X1957882Y3494938D01*
X1957882Y3426053D01*
X1958593Y3419754D01*
X1960524Y3414268D01*
X1963623Y3409391D01*
X1967687Y3405276D01*
X1972614Y3402228D01*
X1978050Y3400298D01*
G37*
G36*
X2398166Y3518458D02*
G01*
X2450541Y3518458D01*
X2450541Y3570782D01*
X2446070Y3568649D01*
X2433777Y3560876D01*
X2422550Y3551580D01*
X2412593Y3540963D01*
X2404059Y3529177D01*
G37*
G36*
X2553258Y3518458D02*
G01*
X2605633Y3518458D01*
X2599740Y3529177D01*
X2591206Y3540963D01*
X2581249Y3551580D01*
X2570022Y3560876D01*
X2557729Y3568649D01*
X2553258Y3570782D01*
G37*
G36*
X3779824Y3878275D02*
G01*
X3916375Y3878275D01*
X3922725Y3878986D01*
X3928160Y3880916D01*
X3933088Y3883964D01*
X3937152Y3888079D01*
X3940251Y3892956D01*
X3942130Y3898442D01*
X3942842Y3904742D01*
X3942842Y3912108D01*
X3943654Y3916019D01*
X3945839Y3919270D01*
X3949141Y3921506D01*
X3953001Y3922268D01*
X4582668Y3922268D01*
X4590694Y3923080D01*
X4597908Y3925265D01*
X4604613Y3928821D01*
X4610811Y3933951D01*
X4675124Y3998264D01*
X4680254Y4004462D01*
X4683810Y4011168D01*
X4685995Y4018381D01*
X4686808Y4026408D01*
X4686808Y4539081D01*
X4687570Y4542993D01*
X4689805Y4546295D01*
X4805375Y4661865D01*
X4808474Y4663998D01*
X4812131Y4664862D01*
X4815840Y4664303D01*
X4824323Y4661458D01*
X4837734Y4658766D01*
X4851400Y4657852D01*
X4865065Y4658766D01*
X4878476Y4661458D01*
X4891430Y4665827D01*
X4903724Y4671872D01*
X4915103Y4679492D01*
X4925364Y4688535D01*
X4934407Y4698796D01*
X4942027Y4710176D01*
X4948072Y4722469D01*
X4952441Y4735423D01*
X4955133Y4748834D01*
X4956048Y4762500D01*
X4955133Y4776165D01*
X4952441Y4789576D01*
X4948072Y4802530D01*
X4942027Y4814824D01*
X4934407Y4826203D01*
X4925364Y4836464D01*
X4915103Y4845507D01*
X4903724Y4853127D01*
X4891430Y4859172D01*
X4878476Y4863541D01*
X4865065Y4866233D01*
X4851400Y4867148D01*
X4837734Y4866233D01*
X4824323Y4863541D01*
X4811369Y4859172D01*
X4799076Y4853127D01*
X4787696Y4845507D01*
X4777435Y4836464D01*
X4768392Y4826203D01*
X4760772Y4814824D01*
X4754727Y4802530D01*
X4750358Y4789576D01*
X4747666Y4776165D01*
X4746752Y4762500D01*
X4747666Y4748834D01*
X4750358Y4735423D01*
X4753203Y4726940D01*
X4753762Y4723231D01*
X4752898Y4719574D01*
X4750765Y4716475D01*
X4621276Y4586935D01*
X4616145Y4580737D01*
X4612589Y4574032D01*
X4610404Y4566818D01*
X4609592Y4558792D01*
X4609592Y4046118D01*
X4608830Y4042206D01*
X4606594Y4038904D01*
X4570171Y4002481D01*
X4566869Y4000246D01*
X4562957Y3999484D01*
X3953001Y3999484D01*
X3949141Y4000246D01*
X3945839Y4002481D01*
X3943654Y4005732D01*
X3942842Y4009644D01*
X3942842Y4016857D01*
X3942130Y4023207D01*
X3940251Y4028643D01*
X3937152Y4033520D01*
X3933088Y4037634D01*
X3928160Y4040733D01*
X3922725Y4042613D01*
X3916375Y4043324D01*
X3779824Y4043324D01*
X3773474Y4042613D01*
X3768039Y4040733D01*
X3763111Y4037634D01*
X3759047Y4033520D01*
X3755948Y4028643D01*
X3754069Y4023207D01*
X3753358Y4016857D01*
X3753358Y3904742D01*
X3754069Y3898442D01*
X3755948Y3892956D01*
X3759047Y3888079D01*
X3763111Y3883964D01*
X3768039Y3880916D01*
X3773474Y3878986D01*
G37*
G36*
X1602638Y3956354D02*
G01*
X1612188Y3957624D01*
X1621383Y3960418D01*
X1630019Y3964787D01*
X1637792Y3970528D01*
X1644446Y3977487D01*
X1649831Y3985463D01*
X1653844Y3994251D01*
X1656232Y4003598D01*
X1657096Y4013200D01*
X1656232Y4022801D01*
X1653844Y4032148D01*
X1649831Y4040936D01*
X1644446Y4048912D01*
X1641957Y4051554D01*
X1639824Y4054805D01*
X1639112Y4058615D01*
X1639570Y4124248D01*
X1640382Y4128109D01*
X1642618Y4131411D01*
X1645869Y4133596D01*
X1649730Y4134358D01*
X1657857Y4134358D01*
X1664157Y4135069D01*
X1669643Y4136948D01*
X1674520Y4140047D01*
X1678635Y4144111D01*
X1681683Y4149039D01*
X1683613Y4154474D01*
X1684324Y4160824D01*
X1684324Y4297375D01*
X1683613Y4303725D01*
X1681683Y4309160D01*
X1678635Y4314088D01*
X1674520Y4318152D01*
X1669643Y4321251D01*
X1664157Y4323130D01*
X1657857Y4323842D01*
X1650593Y4323842D01*
X1646682Y4324654D01*
X1643380Y4326839D01*
X1641195Y4330141D01*
X1640433Y4334002D01*
X1640433Y4337507D01*
X1641195Y4341368D01*
X1643380Y4344670D01*
X1677924Y4379264D01*
X1683054Y4385462D01*
X1686610Y4392168D01*
X1688795Y4399381D01*
X1689607Y4407408D01*
X1689607Y4546092D01*
X1690370Y4550003D01*
X1692605Y4553254D01*
X1695856Y4555490D01*
X1699768Y4556252D01*
X1729181Y4556252D01*
X1735480Y4556963D01*
X1740966Y4558893D01*
X1745843Y4561941D01*
X1749958Y4566056D01*
X1753006Y4570933D01*
X1754936Y4576419D01*
X1755648Y4582718D01*
X1755648Y4739081D01*
X1754936Y4745380D01*
X1753006Y4750866D01*
X1749958Y4755743D01*
X1745843Y4759858D01*
X1740966Y4762906D01*
X1735480Y4764836D01*
X1729181Y4765548D01*
X1572818Y4765548D01*
X1566519Y4764836D01*
X1561033Y4762906D01*
X1556156Y4759858D01*
X1552041Y4755743D01*
X1548993Y4750866D01*
X1547063Y4745380D01*
X1546352Y4739081D01*
X1546352Y4582718D01*
X1547063Y4576419D01*
X1548993Y4570933D01*
X1552041Y4566056D01*
X1556156Y4561941D01*
X1561033Y4558893D01*
X1566519Y4556963D01*
X1572818Y4556252D01*
X1602232Y4556252D01*
X1606143Y4555490D01*
X1609394Y4553254D01*
X1611630Y4550003D01*
X1612392Y4546092D01*
X1612392Y4427118D01*
X1611630Y4423206D01*
X1609394Y4419904D01*
X1574850Y4385360D01*
X1569720Y4379112D01*
X1566164Y4372457D01*
X1563979Y4365244D01*
X1563217Y4357217D01*
X1563217Y4334002D01*
X1562404Y4330141D01*
X1560220Y4326839D01*
X1556918Y4324654D01*
X1553057Y4323842D01*
X1545742Y4323842D01*
X1539392Y4323130D01*
X1533956Y4321251D01*
X1529080Y4318152D01*
X1524965Y4314088D01*
X1521866Y4309160D01*
X1519986Y4303725D01*
X1519275Y4297375D01*
X1519275Y4160824D01*
X1519986Y4154474D01*
X1521866Y4149039D01*
X1524965Y4144111D01*
X1529080Y4140047D01*
X1533956Y4136948D01*
X1539392Y4135069D01*
X1545742Y4134358D01*
X1552194Y4134358D01*
X1556105Y4133545D01*
X1559407Y4131360D01*
X1561642Y4128008D01*
X1562354Y4124096D01*
X1561896Y4059529D01*
X1561338Y4056176D01*
X1559661Y4053179D01*
X1553057Y4045051D01*
X1548384Y4036618D01*
X1545183Y4027525D01*
X1543558Y4018026D01*
X1543558Y4008374D01*
X1545183Y3998874D01*
X1548384Y3989781D01*
X1553057Y3981348D01*
X1559153Y3973829D01*
X1566367Y3967479D01*
X1574596Y3962400D01*
X1583537Y3958844D01*
X1592986Y3956812D01*
G37*
G36*
X3714242Y4134358D02*
G01*
X3826357Y4134358D01*
X3832707Y4135069D01*
X3838143Y4136948D01*
X3843020Y4140047D01*
X3847134Y4144111D01*
X3850233Y4149039D01*
X3852113Y4154474D01*
X3852824Y4160824D01*
X3852824Y4180332D01*
X3853637Y4184243D01*
X3855821Y4187494D01*
X3859123Y4189729D01*
X3862984Y4190492D01*
X3884015Y4190492D01*
X3887876Y4189729D01*
X3891178Y4187494D01*
X3893362Y4184243D01*
X3894175Y4180332D01*
X3894175Y4160824D01*
X3894886Y4154474D01*
X3896766Y4149039D01*
X3899865Y4144111D01*
X3903979Y4140047D01*
X3908856Y4136948D01*
X3914292Y4135069D01*
X3920642Y4134358D01*
X4032758Y4134358D01*
X4039057Y4135069D01*
X4044543Y4136948D01*
X4049420Y4140047D01*
X4053535Y4144111D01*
X4056583Y4149039D01*
X4058513Y4154474D01*
X4059224Y4160824D01*
X4059224Y4297375D01*
X4058513Y4303725D01*
X4056583Y4309160D01*
X4053535Y4314088D01*
X4049420Y4318152D01*
X4044543Y4321251D01*
X4039057Y4323130D01*
X4032758Y4323842D01*
X3920642Y4323842D01*
X3914292Y4323130D01*
X3908856Y4321251D01*
X3903979Y4318152D01*
X3899865Y4314088D01*
X3896766Y4309160D01*
X3894886Y4303725D01*
X3894175Y4297375D01*
X3894175Y4277868D01*
X3893362Y4273956D01*
X3891178Y4270705D01*
X3887876Y4268470D01*
X3884015Y4267708D01*
X3862984Y4267708D01*
X3859123Y4268470D01*
X3855821Y4270705D01*
X3853637Y4273956D01*
X3852824Y4277868D01*
X3852824Y4297375D01*
X3852113Y4303725D01*
X3850233Y4309160D01*
X3847134Y4314088D01*
X3843020Y4318152D01*
X3838143Y4321251D01*
X3832707Y4323130D01*
X3826357Y4323842D01*
X3714242Y4323842D01*
X3707942Y4323130D01*
X3702456Y4321251D01*
X3697579Y4318152D01*
X3693464Y4314088D01*
X3690416Y4309160D01*
X3688486Y4303725D01*
X3687775Y4297375D01*
X3687775Y4160824D01*
X3688486Y4154474D01*
X3690416Y4149039D01*
X3693464Y4144111D01*
X3697579Y4140047D01*
X3702456Y4136948D01*
X3707942Y4135069D01*
G37*
G36*
X4120642Y4134358D02*
G01*
X4232757Y4134358D01*
X4239107Y4135069D01*
X4244543Y4136948D01*
X4249420Y4140047D01*
X4253534Y4144111D01*
X4256633Y4149039D01*
X4258513Y4154474D01*
X4259224Y4160824D01*
X4259224Y4297375D01*
X4258513Y4303725D01*
X4256633Y4309160D01*
X4253534Y4314088D01*
X4249420Y4318152D01*
X4244543Y4321251D01*
X4239107Y4323130D01*
X4232757Y4323842D01*
X4225798Y4323842D01*
X4221937Y4324654D01*
X4218635Y4326839D01*
X4216400Y4330141D01*
X4215638Y4334052D01*
X4216654Y4722215D01*
X4217466Y4726127D01*
X4219651Y4729378D01*
X4222953Y4731613D01*
X4226814Y4732375D01*
X4246575Y4732375D01*
X4252925Y4733086D01*
X4258360Y4734966D01*
X4263288Y4738065D01*
X4267352Y4742180D01*
X4270451Y4747056D01*
X4272330Y4752492D01*
X4273042Y4758842D01*
X4273042Y4766056D01*
X4273854Y4769967D01*
X4276039Y4773218D01*
X4279341Y4775454D01*
X4283202Y4776216D01*
X4344416Y4776216D01*
X4352442Y4777028D01*
X4359656Y4779213D01*
X4366361Y4782769D01*
X4372559Y4787900D01*
X4407916Y4823256D01*
X4413046Y4829454D01*
X4416602Y4836160D01*
X4418787Y4843373D01*
X4419600Y4851400D01*
X4419600Y4858816D01*
X4420362Y4862728D01*
X4422597Y4866030D01*
X4425848Y4868214D01*
X4429760Y4868976D01*
X4433925Y4868976D01*
X4440275Y4869688D01*
X4445711Y4871618D01*
X4450638Y4874717D01*
X4454702Y4878781D01*
X4457801Y4883708D01*
X4459681Y4889144D01*
X4460392Y4895494D01*
X4460392Y4947513D01*
X4459681Y4953863D01*
X4457801Y4959299D01*
X4455109Y4963617D01*
X4453737Y4967122D01*
X4453737Y4970881D01*
X4455109Y4974386D01*
X4457801Y4978704D01*
X4459681Y4984140D01*
X4460392Y4990490D01*
X4460392Y4996840D01*
X4414062Y4996840D01*
X4414062Y4984191D01*
X4413300Y4980279D01*
X4411065Y4976977D01*
X4407763Y4974793D01*
X4403902Y4974031D01*
X4357928Y4974031D01*
X4354017Y4974793D01*
X4350715Y4976977D01*
X4348530Y4980279D01*
X4347768Y4984191D01*
X4347768Y4996840D01*
X4301388Y4996840D01*
X4301388Y4990490D01*
X4302099Y4984140D01*
X4304030Y4978704D01*
X4306722Y4974386D01*
X4308094Y4970881D01*
X4308094Y4967122D01*
X4306722Y4963617D01*
X4304030Y4959299D01*
X4302099Y4953863D01*
X4301388Y4947513D01*
X4301388Y4895494D01*
X4302099Y4889144D01*
X4304030Y4883708D01*
X4307078Y4878781D01*
X4311192Y4874717D01*
X4315155Y4872177D01*
X4318254Y4869180D01*
X4319828Y4865116D01*
X4319524Y4860798D01*
X4317441Y4856988D01*
X4313986Y4854346D01*
X4309770Y4853432D01*
X4283202Y4853432D01*
X4279341Y4854194D01*
X4276039Y4856429D01*
X4273854Y4859680D01*
X4273042Y4863592D01*
X4273042Y4870958D01*
X4272330Y4877257D01*
X4270451Y4882743D01*
X4267352Y4887620D01*
X4263288Y4891735D01*
X4258360Y4894783D01*
X4252925Y4896713D01*
X4246575Y4897424D01*
X4110024Y4897424D01*
X4103674Y4896713D01*
X4098239Y4894783D01*
X4093311Y4891735D01*
X4089247Y4887620D01*
X4086148Y4882743D01*
X4084269Y4877257D01*
X4083558Y4870958D01*
X4083558Y4758842D01*
X4084269Y4752492D01*
X4086148Y4747056D01*
X4089247Y4742180D01*
X4093311Y4738065D01*
X4098239Y4734966D01*
X4103674Y4733086D01*
X4110024Y4732375D01*
X4129278Y4732375D01*
X4133189Y4731562D01*
X4136491Y4729378D01*
X4138676Y4726076D01*
X4139437Y4722164D01*
X4138422Y4334002D01*
X4137660Y4330090D01*
X4135475Y4326839D01*
X4132173Y4324604D01*
X4128262Y4323842D01*
X4120642Y4323842D01*
X4114342Y4323130D01*
X4108856Y4321251D01*
X4103979Y4318152D01*
X4099864Y4314088D01*
X4096816Y4309160D01*
X4094886Y4303725D01*
X4094175Y4297375D01*
X4094175Y4160824D01*
X4094886Y4154474D01*
X4096816Y4149039D01*
X4099864Y4144111D01*
X4103979Y4140047D01*
X4108856Y4136948D01*
X4114342Y4135069D01*
G37*
G36*
X4897120Y4414621D02*
G01*
X4903724Y4417872D01*
X4915103Y4425492D01*
X4925364Y4434535D01*
X4934407Y4444796D01*
X4942027Y4456176D01*
X4945278Y4462780D01*
X4897120Y4462780D01*
G37*
G36*
X4805680Y4414621D02*
G01*
X4805680Y4462780D01*
X4757521Y4462780D01*
X4760772Y4456176D01*
X4768392Y4444796D01*
X4777435Y4434535D01*
X4787696Y4425492D01*
X4799076Y4417872D01*
G37*
G36*
X4757521Y4554220D02*
G01*
X4805680Y4554220D01*
X4805680Y4602378D01*
X4799076Y4599127D01*
X4787696Y4591507D01*
X4777435Y4582464D01*
X4768392Y4572203D01*
X4760772Y4560824D01*
G37*
G36*
X4897120Y4554220D02*
G01*
X4945278Y4554220D01*
X4942027Y4560824D01*
X4934407Y4572203D01*
X4925364Y4582464D01*
X4915103Y4591507D01*
X4903724Y4599127D01*
X4897120Y4602378D01*
G37*
G36*
X3263900Y4590542D02*
G01*
X3278784Y4591456D01*
X3293465Y4594199D01*
X3307638Y4598720D01*
X3321202Y4604969D01*
X3333902Y4612843D01*
X3345535Y4622190D01*
X3355898Y4632909D01*
X3364890Y4644796D01*
X3372358Y4657699D01*
X3378149Y4671415D01*
X3382213Y4685792D01*
X3384499Y4700524D01*
X3384956Y4715408D01*
X3383584Y4730292D01*
X3380435Y4744872D01*
X3375456Y4758893D01*
X3368801Y4772253D01*
X3360572Y4784699D01*
X3350869Y4796028D01*
X3339846Y4806086D01*
X3327654Y4814671D01*
X3314547Y4821732D01*
X3300628Y4827117D01*
X3294227Y4828743D01*
X3290366Y4830673D01*
X3287623Y4834077D01*
X3286556Y4838293D01*
X3287369Y4842560D01*
X3289858Y4846116D01*
X3293618Y4848301D01*
X3307638Y4852720D01*
X3321202Y4858969D01*
X3333902Y4866843D01*
X3345535Y4876190D01*
X3355898Y4886909D01*
X3364890Y4898796D01*
X3372358Y4911699D01*
X3378149Y4925415D01*
X3382213Y4939792D01*
X3384499Y4954524D01*
X3384956Y4969408D01*
X3383584Y4984292D01*
X3380435Y4998872D01*
X3375456Y5012893D01*
X3368801Y5026253D01*
X3360572Y5038699D01*
X3350869Y5050028D01*
X3339846Y5060086D01*
X3327654Y5068671D01*
X3314547Y5075732D01*
X3300628Y5081117D01*
X3286150Y5084775D01*
X3282238Y5085283D01*
X3278378Y5086553D01*
X3275329Y5089296D01*
X3273602Y5093004D01*
X3273450Y5097068D01*
X3274923Y5100878D01*
X3277819Y5103774D01*
X3281578Y5105349D01*
X3292703Y5107432D01*
X3306572Y5111953D01*
X3319729Y5118150D01*
X3332022Y5125923D01*
X3343249Y5135219D01*
X3353206Y5145836D01*
X3361740Y5157622D01*
X3368751Y5170373D01*
X3374136Y5183886D01*
X3377742Y5198008D01*
X3379571Y5212435D01*
X3379571Y5226964D01*
X3377742Y5241391D01*
X3374136Y5255514D01*
X3368751Y5269026D01*
X3361740Y5281777D01*
X3353206Y5293563D01*
X3343249Y5304180D01*
X3332022Y5313476D01*
X3319729Y5321249D01*
X3306572Y5327446D01*
X3292703Y5331968D01*
X3278428Y5334660D01*
X3263900Y5335574D01*
X3249371Y5334660D01*
X3235096Y5331968D01*
X3221228Y5327446D01*
X3208070Y5321249D01*
X3195777Y5313476D01*
X3184550Y5304180D01*
X3174593Y5293563D01*
X3166059Y5281777D01*
X3159048Y5269026D01*
X3153664Y5255514D01*
X3150057Y5241391D01*
X3148228Y5226964D01*
X3148228Y5212435D01*
X3150057Y5198008D01*
X3153664Y5183886D01*
X3159048Y5170373D01*
X3166059Y5157622D01*
X3174593Y5145836D01*
X3184550Y5135219D01*
X3195777Y5125923D01*
X3208070Y5118150D01*
X3221228Y5111953D01*
X3235096Y5107432D01*
X3246221Y5105349D01*
X3249980Y5103774D01*
X3252876Y5100878D01*
X3254349Y5097068D01*
X3254197Y5093004D01*
X3252470Y5089296D01*
X3249422Y5086553D01*
X3245561Y5085283D01*
X3241649Y5084775D01*
X3227171Y5081117D01*
X3213252Y5075732D01*
X3200146Y5068671D01*
X3187954Y5060086D01*
X3176930Y5050028D01*
X3167227Y5038699D01*
X3158998Y5026253D01*
X3152343Y5012893D01*
X3147364Y4998872D01*
X3144215Y4984292D01*
X3142843Y4969408D01*
X3143300Y4954524D01*
X3145586Y4939792D01*
X3149650Y4925415D01*
X3155442Y4911699D01*
X3162909Y4898796D01*
X3171901Y4886909D01*
X3182264Y4876190D01*
X3193897Y4866843D01*
X3206597Y4858969D01*
X3220161Y4852720D01*
X3234182Y4848301D01*
X3237941Y4846116D01*
X3240430Y4842560D01*
X3241243Y4838293D01*
X3240176Y4834077D01*
X3237433Y4830673D01*
X3233572Y4828743D01*
X3227171Y4827117D01*
X3213252Y4821732D01*
X3200146Y4814671D01*
X3187954Y4806086D01*
X3176930Y4796028D01*
X3167227Y4784699D01*
X3158998Y4772253D01*
X3152343Y4758893D01*
X3147364Y4744872D01*
X3144215Y4730292D01*
X3142843Y4715408D01*
X3143300Y4700524D01*
X3145586Y4685792D01*
X3149650Y4671415D01*
X3155442Y4657699D01*
X3162909Y4644796D01*
X3171901Y4632909D01*
X3182264Y4622190D01*
X3193897Y4612843D01*
X3206597Y4604969D01*
X3220161Y4598720D01*
X3234334Y4594199D01*
X3249015Y4591456D01*
G37*
G36*
X2450541Y4608017D02*
G01*
X2450541Y4660341D01*
X2398166Y4660341D01*
X2404059Y4649622D01*
X2412593Y4637836D01*
X2422550Y4627219D01*
X2433777Y4617923D01*
X2446070Y4610150D01*
G37*
G36*
X2553258Y4608017D02*
G01*
X2557729Y4610150D01*
X2570022Y4617923D01*
X2581249Y4627219D01*
X2591206Y4637836D01*
X2599740Y4649622D01*
X2605633Y4660341D01*
X2553258Y4660341D01*
G37*
G36*
X2078024Y4656175D02*
G01*
X2105507Y4656175D01*
X2105507Y4704029D01*
X2051557Y4704029D01*
X2051557Y4682642D01*
X2052269Y4676292D01*
X2054148Y4670856D01*
X2057247Y4665980D01*
X2061311Y4661865D01*
X2066239Y4658766D01*
X2071674Y4656886D01*
G37*
G36*
X2187092Y4656175D02*
G01*
X2214575Y4656175D01*
X2220925Y4656886D01*
X2226360Y4658766D01*
X2231288Y4661865D01*
X2235352Y4665980D01*
X2238451Y4670856D01*
X2240330Y4676292D01*
X2241042Y4682642D01*
X2241042Y4704029D01*
X2187092Y4704029D01*
G37*
G36*
X2553258Y4763058D02*
G01*
X2605633Y4763058D01*
X2599740Y4773777D01*
X2591206Y4785563D01*
X2581249Y4796180D01*
X2570022Y4805476D01*
X2557729Y4813249D01*
X2553258Y4815382D01*
G37*
G36*
X2398166Y4763058D02*
G01*
X2450541Y4763058D01*
X2450541Y4815382D01*
X2446070Y4813249D01*
X2433777Y4805476D01*
X2422550Y4796180D01*
X2412593Y4785563D01*
X2404059Y4773777D01*
G37*
G36*
X2187092Y4773371D02*
G01*
X2241042Y4773371D01*
X2241042Y4794758D01*
X2240330Y4801057D01*
X2238451Y4806543D01*
X2235352Y4811420D01*
X2231288Y4815535D01*
X2226360Y4818583D01*
X2220925Y4820513D01*
X2214575Y4821224D01*
X2187092Y4821224D01*
G37*
G36*
X2051557Y4773371D02*
G01*
X2105507Y4773371D01*
X2105507Y4821224D01*
X2078024Y4821224D01*
X2071674Y4820513D01*
X2066239Y4818583D01*
X2061311Y4815535D01*
X2057247Y4811420D01*
X2054148Y4806543D01*
X2052269Y4801057D01*
X2051557Y4794758D01*
G37*
G36*
X1651000Y4810252D02*
G01*
X1664665Y4811166D01*
X1678076Y4813858D01*
X1691030Y4818227D01*
X1703324Y4824272D01*
X1714703Y4831892D01*
X1724964Y4840935D01*
X1734007Y4851196D01*
X1741627Y4862576D01*
X1745589Y4870602D01*
X1747824Y4873599D01*
X1751025Y4875580D01*
X1754682Y4876292D01*
X1833880Y4876292D01*
X1837436Y4875631D01*
X1840585Y4873752D01*
X1845767Y4869180D01*
X1853996Y4864100D01*
X1862937Y4860544D01*
X1872386Y4858512D01*
X1882038Y4858054D01*
X1891588Y4859324D01*
X1900783Y4862118D01*
X1909419Y4866487D01*
X1917192Y4872228D01*
X1923846Y4879187D01*
X1929231Y4887163D01*
X1933244Y4895951D01*
X1935632Y4905298D01*
X1936496Y4914900D01*
X1935632Y4924501D01*
X1933244Y4933848D01*
X1929231Y4942636D01*
X1923846Y4950612D01*
X1917192Y4957572D01*
X1909419Y4963312D01*
X1900783Y4967681D01*
X1891588Y4970475D01*
X1882038Y4971745D01*
X1872386Y4971288D01*
X1862937Y4969256D01*
X1853996Y4965700D01*
X1845767Y4960620D01*
X1840585Y4956048D01*
X1837436Y4954168D01*
X1833880Y4953508D01*
X1754682Y4953508D01*
X1751025Y4954219D01*
X1747824Y4956200D01*
X1745589Y4959197D01*
X1741627Y4967224D01*
X1734007Y4978603D01*
X1724964Y4988864D01*
X1714703Y4997907D01*
X1703324Y5005527D01*
X1691030Y5011572D01*
X1678076Y5015941D01*
X1664665Y5018633D01*
X1651000Y5019548D01*
X1637334Y5018633D01*
X1623923Y5015941D01*
X1610969Y5011572D01*
X1598676Y5005527D01*
X1587296Y4997907D01*
X1577035Y4988864D01*
X1567992Y4978603D01*
X1560372Y4967224D01*
X1554327Y4954930D01*
X1549958Y4941976D01*
X1547266Y4928565D01*
X1546352Y4914900D01*
X1547266Y4901234D01*
X1549958Y4887823D01*
X1554327Y4874869D01*
X1560372Y4862576D01*
X1567992Y4851196D01*
X1577035Y4840935D01*
X1587296Y4831892D01*
X1598676Y4824272D01*
X1610969Y4818227D01*
X1623923Y4813858D01*
X1637334Y4811166D01*
G37*
G36*
X2501900Y4849825D02*
G01*
X2516428Y4850739D01*
X2530703Y4853432D01*
X2544572Y4857953D01*
X2557729Y4864150D01*
X2570022Y4871923D01*
X2581249Y4881219D01*
X2591206Y4891836D01*
X2599740Y4903622D01*
X2606751Y4916373D01*
X2608478Y4920691D01*
X2610662Y4924044D01*
X2613964Y4926279D01*
X2617927Y4927092D01*
X3022092Y4927092D01*
X3030118Y4927904D01*
X3037332Y4930089D01*
X3044037Y4933645D01*
X3050235Y4938776D01*
X3089148Y4977688D01*
X3094278Y4983886D01*
X3097834Y4990592D01*
X3100019Y4997805D01*
X3100832Y5005832D01*
X3100832Y5686298D01*
X3101594Y5690158D01*
X3103829Y5693460D01*
X3107080Y5695645D01*
X3110992Y5696458D01*
X3118358Y5696458D01*
X3124657Y5697169D01*
X3130143Y5699048D01*
X3135020Y5702147D01*
X3139135Y5706211D01*
X3142183Y5711139D01*
X3144113Y5716574D01*
X3144824Y5722924D01*
X3144824Y5859475D01*
X3144113Y5865825D01*
X3142183Y5871260D01*
X3139135Y5876188D01*
X3135020Y5880252D01*
X3130143Y5883351D01*
X3124657Y5885230D01*
X3118358Y5885942D01*
X3006242Y5885942D01*
X2999892Y5885230D01*
X2994456Y5883351D01*
X2989580Y5880252D01*
X2985465Y5876188D01*
X2982366Y5871260D01*
X2980486Y5865825D01*
X2979775Y5859475D01*
X2979775Y5722924D01*
X2980486Y5716574D01*
X2982366Y5711139D01*
X2985465Y5706211D01*
X2989580Y5702147D01*
X2994456Y5699048D01*
X2999892Y5697169D01*
X3006242Y5696458D01*
X3013456Y5696458D01*
X3017367Y5695645D01*
X3020618Y5693460D01*
X3022854Y5690158D01*
X3023616Y5686298D01*
X3023616Y5025542D01*
X3022854Y5021630D01*
X3020618Y5018328D01*
X3009595Y5007305D01*
X3006293Y5005070D01*
X3002381Y5004308D01*
X2617927Y5004308D01*
X2613964Y5005120D01*
X2610662Y5007356D01*
X2608478Y5010708D01*
X2606751Y5015026D01*
X2599740Y5027777D01*
X2591206Y5039563D01*
X2581249Y5050180D01*
X2570022Y5059476D01*
X2557729Y5067249D01*
X2544572Y5073446D01*
X2530703Y5077968D01*
X2516428Y5080660D01*
X2501900Y5081574D01*
X2487371Y5080660D01*
X2473096Y5077968D01*
X2459228Y5073446D01*
X2446070Y5067249D01*
X2433777Y5059476D01*
X2422550Y5050180D01*
X2412593Y5039563D01*
X2404059Y5027777D01*
X2397048Y5015026D01*
X2395321Y5010708D01*
X2393137Y5007356D01*
X2389835Y5005120D01*
X2385872Y5004308D01*
X2245461Y5004308D01*
X2242108Y5004866D01*
X2239111Y5006543D01*
X2236876Y5009083D01*
X2235352Y5011420D01*
X2231288Y5015534D01*
X2226360Y5018633D01*
X2220925Y5020513D01*
X2214575Y5021224D01*
X2078024Y5021224D01*
X2071674Y5020513D01*
X2066239Y5018633D01*
X2061311Y5015534D01*
X2057247Y5011420D01*
X2054148Y5006543D01*
X2052269Y5001107D01*
X2051557Y4994757D01*
X2051557Y4882642D01*
X2052269Y4876342D01*
X2054148Y4870856D01*
X2057247Y4865979D01*
X2061311Y4861864D01*
X2066239Y4858816D01*
X2071674Y4856886D01*
X2078024Y4856175D01*
X2214575Y4856175D01*
X2220925Y4856886D01*
X2226360Y4858816D01*
X2231288Y4861864D01*
X2235352Y4865979D01*
X2238451Y4870856D01*
X2240330Y4876342D01*
X2241042Y4882642D01*
X2241042Y4916932D01*
X2241854Y4920843D01*
X2244039Y4924094D01*
X2247341Y4926330D01*
X2251202Y4927092D01*
X2385872Y4927092D01*
X2389835Y4926279D01*
X2393137Y4924044D01*
X2395321Y4920691D01*
X2397048Y4916373D01*
X2404059Y4903622D01*
X2412593Y4891836D01*
X2422550Y4881219D01*
X2433777Y4871923D01*
X2446070Y4864150D01*
X2459228Y4857953D01*
X2473096Y4853432D01*
X2487371Y4850739D01*
G37*
G36*
X3976979Y4923078D02*
G01*
X4005326Y4923078D01*
X4011676Y4923790D01*
X4017111Y4925720D01*
X4022039Y4928819D01*
X4026103Y4932883D01*
X4029201Y4937810D01*
X4031081Y4943246D01*
X4031792Y4949545D01*
X4031792Y4976418D01*
X3976979Y4976418D01*
G37*
G36*
X4219092Y4932375D02*
G01*
X4246575Y4932375D01*
X4252925Y4933086D01*
X4258360Y4935016D01*
X4263288Y4938064D01*
X4267352Y4942179D01*
X4270451Y4947056D01*
X4272330Y4952542D01*
X4273042Y4958842D01*
X4273042Y4980228D01*
X4219092Y4980228D01*
G37*
G36*
X4110024Y4932375D02*
G01*
X4137507Y4932375D01*
X4137507Y4980228D01*
X4083558Y4980228D01*
X4083558Y4958842D01*
X4084269Y4952542D01*
X4086148Y4947056D01*
X4089247Y4942179D01*
X4093311Y4938064D01*
X4098239Y4935016D01*
X4103674Y4933086D01*
G37*
G36*
X4219092Y5049570D02*
G01*
X4273042Y5049570D01*
X4273042Y5070957D01*
X4272330Y5077307D01*
X4270451Y5082743D01*
X4267352Y5087620D01*
X4263288Y5091734D01*
X4258360Y5094833D01*
X4252925Y5096713D01*
X4246575Y5097424D01*
X4219092Y5097424D01*
G37*
G36*
X4083558Y5049570D02*
G01*
X4137507Y5049570D01*
X4137507Y5097424D01*
X4110024Y5097424D01*
X4103674Y5096713D01*
X4098239Y5094833D01*
X4093311Y5091734D01*
X4089247Y5087620D01*
X4086148Y5082743D01*
X4084269Y5077307D01*
X4083558Y5070957D01*
G37*
G36*
X3976979Y5056581D02*
G01*
X4031792Y5056581D01*
X4031792Y5083454D01*
X4031081Y5089753D01*
X4029201Y5095189D01*
X4026103Y5100116D01*
X4022039Y5104180D01*
X4017111Y5107279D01*
X4011676Y5109210D01*
X4005326Y5109921D01*
X3976979Y5109921D01*
G37*
G36*
X2501900Y5103825D02*
G01*
X2516428Y5104739D01*
X2530703Y5107432D01*
X2544572Y5111953D01*
X2557729Y5118150D01*
X2570022Y5125923D01*
X2581249Y5135219D01*
X2591206Y5145836D01*
X2599740Y5157622D01*
X2606751Y5170373D01*
X2612136Y5183886D01*
X2615742Y5198008D01*
X2617571Y5212435D01*
X2617571Y5226964D01*
X2615742Y5241391D01*
X2612136Y5255514D01*
X2606751Y5269026D01*
X2599740Y5281777D01*
X2591206Y5293563D01*
X2581249Y5304180D01*
X2570022Y5313476D01*
X2557729Y5321249D01*
X2544572Y5327446D01*
X2530703Y5331968D01*
X2516428Y5334660D01*
X2501900Y5335574D01*
X2487371Y5334660D01*
X2473096Y5331968D01*
X2459228Y5327446D01*
X2446070Y5321249D01*
X2433777Y5313476D01*
X2422550Y5304180D01*
X2412593Y5293563D01*
X2409647Y5289499D01*
X2407412Y5287264D01*
X2404567Y5285790D01*
X2401417Y5285282D01*
X2251202Y5285282D01*
X2247341Y5286095D01*
X2244039Y5288280D01*
X2241854Y5291582D01*
X2241042Y5295442D01*
X2241042Y5302758D01*
X2240330Y5309057D01*
X2238451Y5314543D01*
X2235352Y5319420D01*
X2231288Y5323535D01*
X2226360Y5326583D01*
X2220925Y5328513D01*
X2214575Y5329224D01*
X2078024Y5329224D01*
X2071674Y5328513D01*
X2066239Y5326583D01*
X2061311Y5323535D01*
X2057247Y5319420D01*
X2054148Y5314543D01*
X2052269Y5309057D01*
X2051557Y5302758D01*
X2051557Y5295442D01*
X2050745Y5291582D01*
X2048560Y5288280D01*
X2045258Y5286095D01*
X2041398Y5285282D01*
X1987092Y5285282D01*
X1983232Y5286095D01*
X1979930Y5288280D01*
X1970379Y5297830D01*
X1968195Y5301132D01*
X1967433Y5304993D01*
X1967433Y5330698D01*
X1968195Y5334558D01*
X1970379Y5337860D01*
X1973681Y5340045D01*
X1977593Y5340858D01*
X1984857Y5340858D01*
X1991207Y5341569D01*
X1996643Y5343448D01*
X2001520Y5346547D01*
X2005634Y5350611D01*
X2008733Y5355539D01*
X2010613Y5360974D01*
X2011324Y5367324D01*
X2011324Y5503875D01*
X2010613Y5510225D01*
X2008733Y5515660D01*
X2005634Y5520588D01*
X2001520Y5524652D01*
X1996643Y5527751D01*
X1991207Y5529630D01*
X1984857Y5530342D01*
X1977593Y5530342D01*
X1973681Y5531154D01*
X1970379Y5533339D01*
X1968195Y5536641D01*
X1967433Y5540502D01*
X1967433Y5662218D01*
X1968195Y5666130D01*
X1970379Y5669432D01*
X1973681Y5671616D01*
X1977593Y5672378D01*
X2014626Y5672378D01*
X2020925Y5673090D01*
X2026412Y5675020D01*
X2031288Y5678119D01*
X2035403Y5682183D01*
X2038908Y5686247D01*
X2042668Y5687822D01*
X2046732Y5687822D01*
X2050491Y5686247D01*
X2053996Y5682183D01*
X2058111Y5678119D01*
X2062988Y5675020D01*
X2068474Y5673090D01*
X2074773Y5672378D01*
X2096516Y5672378D01*
X2100376Y5671616D01*
X2103678Y5669432D01*
X2105863Y5666130D01*
X2106676Y5662269D01*
X2107234Y5539435D01*
X2106472Y5535523D01*
X2104288Y5532221D01*
X2100986Y5530037D01*
X2097074Y5529224D01*
X2078024Y5529224D01*
X2071674Y5528513D01*
X2066239Y5526633D01*
X2061311Y5523534D01*
X2057247Y5519420D01*
X2054148Y5514543D01*
X2052269Y5509107D01*
X2051557Y5502757D01*
X2051557Y5390642D01*
X2052269Y5384342D01*
X2054148Y5378856D01*
X2057247Y5373979D01*
X2061311Y5369864D01*
X2066239Y5366816D01*
X2071674Y5364886D01*
X2078024Y5364175D01*
X2214575Y5364175D01*
X2220925Y5364886D01*
X2226360Y5366816D01*
X2231288Y5369864D01*
X2235352Y5373979D01*
X2238451Y5378856D01*
X2240330Y5384342D01*
X2241042Y5390642D01*
X2241042Y5397906D01*
X2241854Y5401818D01*
X2244039Y5405120D01*
X2247341Y5407304D01*
X2251202Y5408066D01*
X2401417Y5408066D01*
X2404567Y5407609D01*
X2407412Y5406136D01*
X2409647Y5403900D01*
X2412593Y5399836D01*
X2422550Y5389219D01*
X2433777Y5379923D01*
X2446070Y5372150D01*
X2459228Y5365953D01*
X2473096Y5361432D01*
X2487371Y5358739D01*
X2501900Y5357825D01*
X2516428Y5358739D01*
X2530703Y5361432D01*
X2544572Y5365953D01*
X2557729Y5372150D01*
X2570022Y5379923D01*
X2581249Y5389219D01*
X2591206Y5399836D01*
X2599740Y5411622D01*
X2606751Y5424373D01*
X2612136Y5437886D01*
X2615742Y5452008D01*
X2617571Y5466435D01*
X2617571Y5480964D01*
X2615742Y5495391D01*
X2612136Y5509514D01*
X2606751Y5523026D01*
X2599740Y5535777D01*
X2591206Y5547563D01*
X2581249Y5558180D01*
X2570022Y5567476D01*
X2557729Y5575249D01*
X2544572Y5581446D01*
X2530703Y5585968D01*
X2516428Y5588660D01*
X2501900Y5589574D01*
X2487371Y5588660D01*
X2473096Y5585968D01*
X2459228Y5581446D01*
X2446070Y5575249D01*
X2433777Y5567476D01*
X2422550Y5558180D01*
X2412593Y5547563D01*
X2404059Y5535777D01*
X2397048Y5523026D01*
X2391664Y5509514D01*
X2386787Y5490718D01*
X2384552Y5487822D01*
X2381402Y5485942D01*
X2377846Y5485282D01*
X2251202Y5485282D01*
X2247341Y5486095D01*
X2244039Y5488279D01*
X2241854Y5491581D01*
X2241042Y5495442D01*
X2241042Y5502757D01*
X2240330Y5509107D01*
X2238451Y5514543D01*
X2235352Y5519420D01*
X2231288Y5523534D01*
X2226360Y5526633D01*
X2220925Y5528513D01*
X2214575Y5529224D01*
X2194610Y5529224D01*
X2190750Y5529986D01*
X2187448Y5532221D01*
X2185263Y5535472D01*
X2184450Y5539333D01*
X2183892Y5662168D01*
X2184654Y5666079D01*
X2186838Y5669381D01*
X2190140Y5671616D01*
X2194052Y5672378D01*
X2214626Y5672378D01*
X2220976Y5673090D01*
X2226411Y5675020D01*
X2231339Y5678119D01*
X2235403Y5682183D01*
X2238502Y5687110D01*
X2240381Y5692546D01*
X2241092Y5698845D01*
X2241092Y5832754D01*
X2240381Y5839053D01*
X2238502Y5844489D01*
X2235403Y5849416D01*
X2231339Y5853480D01*
X2226411Y5856579D01*
X2220976Y5858510D01*
X2214626Y5859221D01*
X2074773Y5859221D01*
X2068474Y5858510D01*
X2062988Y5856579D01*
X2058111Y5853480D01*
X2053996Y5849416D01*
X2050491Y5845352D01*
X2046732Y5843778D01*
X2042668Y5843778D01*
X2038908Y5845352D01*
X2035403Y5849416D01*
X2031288Y5853480D01*
X2026412Y5856579D01*
X2020925Y5858510D01*
X2014626Y5859221D01*
X1874774Y5859221D01*
X1868424Y5858510D01*
X1862988Y5856579D01*
X1858060Y5853480D01*
X1853996Y5849416D01*
X1850898Y5844489D01*
X1849018Y5839053D01*
X1848307Y5832754D01*
X1848307Y5698845D01*
X1849018Y5692546D01*
X1850898Y5687110D01*
X1853996Y5682183D01*
X1858060Y5678119D01*
X1862988Y5675020D01*
X1868424Y5673090D01*
X1874774Y5672378D01*
X1880057Y5672378D01*
X1883918Y5671616D01*
X1887220Y5669432D01*
X1889404Y5666130D01*
X1890217Y5662218D01*
X1890217Y5540502D01*
X1889404Y5536641D01*
X1887220Y5533339D01*
X1883918Y5531154D01*
X1880057Y5530342D01*
X1872742Y5530342D01*
X1866442Y5529630D01*
X1860956Y5527751D01*
X1856079Y5524652D01*
X1851964Y5520588D01*
X1848916Y5515660D01*
X1846986Y5510225D01*
X1846275Y5503875D01*
X1846275Y5367324D01*
X1846986Y5360974D01*
X1848916Y5355539D01*
X1851964Y5350611D01*
X1856079Y5346547D01*
X1860956Y5343448D01*
X1866442Y5341569D01*
X1872742Y5340858D01*
X1880057Y5340858D01*
X1883918Y5340045D01*
X1887220Y5337860D01*
X1889404Y5334558D01*
X1890217Y5330698D01*
X1890217Y5285282D01*
X1890979Y5277256D01*
X1893163Y5270042D01*
X1896719Y5263388D01*
X1901850Y5257139D01*
X1939239Y5219750D01*
X1945487Y5214620D01*
X1952142Y5211064D01*
X1959356Y5208879D01*
X1967382Y5208066D01*
X2041398Y5208066D01*
X2045258Y5207304D01*
X2048560Y5205120D01*
X2050745Y5201818D01*
X2051557Y5197906D01*
X2051557Y5190642D01*
X2052269Y5184292D01*
X2054148Y5178856D01*
X2057247Y5173980D01*
X2061311Y5169865D01*
X2066239Y5166766D01*
X2071674Y5164886D01*
X2078024Y5164175D01*
X2214575Y5164175D01*
X2220925Y5164886D01*
X2226360Y5166766D01*
X2231288Y5169865D01*
X2235352Y5173980D01*
X2238451Y5178856D01*
X2240330Y5184292D01*
X2241042Y5190642D01*
X2241042Y5197906D01*
X2241854Y5201818D01*
X2244039Y5205120D01*
X2247341Y5207304D01*
X2251202Y5208066D01*
X2377846Y5208066D01*
X2381402Y5207457D01*
X2384552Y5205577D01*
X2386787Y5202682D01*
X2391664Y5183886D01*
X2397048Y5170373D01*
X2404059Y5157622D01*
X2412593Y5145836D01*
X2422550Y5135219D01*
X2433777Y5125923D01*
X2446070Y5118150D01*
X2459228Y5111953D01*
X2473096Y5107432D01*
X2487371Y5104739D01*
G37*
G36*
X1729638Y5200954D02*
G01*
X1739188Y5202224D01*
X1748383Y5205018D01*
X1757019Y5209387D01*
X1764792Y5215128D01*
X1771446Y5222087D01*
X1776831Y5230063D01*
X1780844Y5238851D01*
X1783232Y5248198D01*
X1784096Y5257800D01*
X1783232Y5267401D01*
X1780844Y5276748D01*
X1776831Y5285536D01*
X1771446Y5293512D01*
X1769008Y5296052D01*
X1766925Y5299354D01*
X1766214Y5303164D01*
X1766417Y5330748D01*
X1767230Y5334609D01*
X1769465Y5337911D01*
X1772716Y5340096D01*
X1776577Y5340858D01*
X1784857Y5340858D01*
X1791157Y5341569D01*
X1796643Y5343448D01*
X1801520Y5346547D01*
X1805635Y5350611D01*
X1808683Y5355539D01*
X1810613Y5360974D01*
X1811324Y5367324D01*
X1811324Y5503875D01*
X1810613Y5510225D01*
X1808683Y5515660D01*
X1805635Y5520588D01*
X1801520Y5524652D01*
X1796643Y5527751D01*
X1791157Y5529630D01*
X1784857Y5530342D01*
X1672742Y5530342D01*
X1666392Y5529630D01*
X1660956Y5527751D01*
X1656080Y5524652D01*
X1651965Y5520588D01*
X1648866Y5515660D01*
X1646986Y5510225D01*
X1646275Y5503875D01*
X1646275Y5367324D01*
X1646986Y5360974D01*
X1648866Y5355539D01*
X1651965Y5350611D01*
X1656080Y5346547D01*
X1660956Y5343448D01*
X1666392Y5341569D01*
X1672742Y5340858D01*
X1679041Y5340858D01*
X1682953Y5340045D01*
X1686255Y5337810D01*
X1688490Y5334508D01*
X1689201Y5330596D01*
X1688998Y5304180D01*
X1688388Y5300827D01*
X1686712Y5297881D01*
X1680057Y5289651D01*
X1675384Y5281218D01*
X1672183Y5272125D01*
X1670557Y5262626D01*
X1670557Y5252974D01*
X1672183Y5243474D01*
X1675384Y5234381D01*
X1680057Y5225948D01*
X1686153Y5218430D01*
X1693367Y5212080D01*
X1701596Y5207000D01*
X1710537Y5203444D01*
X1719986Y5201412D01*
G37*

%LPD*%
D10*
X4609338Y5562600D02*
G01*
X4851400Y5561076D01*
X4851400Y5016500D02*
G01*
X4610709Y5016500D01*
X4610709Y5016500D02*
G01*
X4610709Y4921504D01*
X4178300Y4814823D02*
G01*
X4176775Y4229100D01*
X4178300Y4814823D02*
G01*
X4344924Y4814823D01*
X4380991Y4850892D01*
X4380991Y4921504D01*
X3733800Y5228336D02*
G01*
X3735324Y5016500D01*
X3733800Y5228336D02*
G01*
X3623563Y5228336D01*
X3594100Y5257800D01*
X3594100Y5435600D01*
X3556000Y5473700D01*
X3263900Y5473700D01*
X3263900Y5473700D02*
G01*
X3262375Y5791200D01*
X3735324Y5016500D02*
G01*
X3735324Y4662423D01*
X3570224Y4494276D01*
X3570224Y4229100D01*
X3976700Y4229100D02*
G01*
X3770299Y4229100D01*
X3570300Y4229100D02*
G01*
X3263900Y4229100D01*
X3606800Y3960799D02*
G01*
X3278200Y3960799D01*
X3263900Y3975100D01*
X3848100Y3760800D02*
G01*
X3606800Y3760800D01*
X2144775Y5765800D02*
G01*
X2146300Y5446776D01*
X2146300Y5446699D02*
G01*
X2474899Y5446699D01*
X2501900Y5473700D01*
X1944700Y5765800D02*
G01*
X1928799Y5749899D01*
X1928799Y5435600D01*
X2501900Y5219700D02*
G01*
X2474899Y5246700D01*
X2146300Y5246700D01*
X2146300Y5246700D02*
G01*
X1966899Y5246700D01*
X1928799Y5284800D01*
X1928799Y5435600D01*
X2501900Y3975100D02*
G01*
X2182799Y3975100D01*
X2182799Y3975100D02*
G01*
X2182799Y3746500D01*
X1982800Y3975100D02*
G01*
X1982800Y3746500D01*
X1982800Y3975100D02*
G01*
X2195499Y4187799D01*
X2195499Y4229100D01*
X2501900Y4229100D02*
G01*
X2195499Y4229100D01*
X1995500Y4229100D02*
G01*
X1801799Y4229100D01*
X1601800Y4229100D02*
G01*
X1601800Y4357700D01*
X1651000Y4406900D01*
X1651000Y4660900D01*
X2182875Y3746500D02*
G01*
X2182875Y3630676D01*
X2146300Y3594100D01*
X1841500Y3594100D01*
X1803400Y3556000D01*
X1803400Y3465576D01*
X1803400Y3265500D02*
G01*
X1808403Y3270504D01*
X2046300Y3270504D01*
X3263900Y3721100D02*
G01*
X3263900Y3975100D01*
X2146300Y4938776D02*
G01*
X2146300Y4965700D01*
X2501900Y4965700D01*
X3062224Y5791200D02*
G01*
X3062224Y5005323D01*
X3022600Y4965700D01*
X2501900Y4965700D01*
X3263900Y3975100D02*
G01*
X2959100Y3975100D01*
X1601723Y4229100D02*
G01*
X1600200Y4013200D01*
X3263900Y3467100D02*
G01*
X2959100Y3467100D01*
X4851400Y4762500D02*
G01*
X4648200Y4559300D01*
X4648200Y4025900D01*
X4583175Y3960876D01*
X3848100Y3960876D01*
X4610608Y4921504D02*
G01*
X4610100Y4775200D01*
X1651000Y4914900D02*
G01*
X1879600Y4914900D01*
X1728723Y5435600D02*
G01*
X1727200Y5257800D01*
X2501900Y3721100D02*
G01*
X2730500Y3721100D01*
X2768600Y3683000D01*
X2768600Y3225800D01*
X2806700Y3187700D01*
X3568700Y3187700D01*
X3606800Y3225800D01*
X3606800Y3760723D01*
X3733800Y5566740D02*
G01*
X3737940Y5562600D01*
X4026712Y5562600D01*
X4851400Y5561076D02*
G01*
X4979924Y5561076D01*
X5003800Y5537200D01*
X5003800Y5054600D01*
X4965700Y5016500D01*
X4851400Y5016500D01*
X4380890Y5111495D02*
G01*
X4310786Y5181600D01*
X3911600Y5181600D01*
X3873500Y5219700D01*
X3873500Y5562600D01*
D11*
G01*
X3935402Y5016500D03*
G01*
X3735397Y5016500D03*
D12*
G01*
X4851400Y5360997D03*
D13*
G01*
X4851400Y5560999D03*
D14*
G01*
X1982797Y3975100D03*
G01*
X2182802Y3975100D03*
D11*
G01*
X2144702Y5765800D03*
G01*
X1944697Y5765800D03*
D15*
G01*
X3733800Y5566740D03*
G01*
X3733800Y5228259D03*
D16*
G01*
X4609287Y5562600D03*
G01*
X4026712Y5562600D03*
D17*
G01*
X1995495Y4229100D03*
G01*
X2195504Y4229100D03*
G01*
X1601795Y4229100D03*
G01*
X1801804Y4229100D03*
D18*
G01*
X3262304Y5791200D03*
G01*
X3062295Y5791200D03*
D19*
G01*
X1803400Y3465504D03*
D20*
G01*
X1803400Y3265500D03*
D17*
G01*
X1982795Y3746500D03*
G01*
X2182804Y3746500D03*
D19*
G01*
X3848100Y3760795D03*
D20*
G01*
X3848100Y3960799D03*
D19*
G01*
X3606800Y3960804D03*
D20*
G01*
X3606800Y3760800D03*
D19*
G01*
X2146300Y5246695D03*
D20*
G01*
X2146300Y5446699D03*
D19*
G01*
X2146300Y4738695D03*
D20*
G01*
X2146300Y4938699D03*
D18*
G01*
X3770304Y4229100D03*
G01*
X3570295Y4229100D03*
G01*
X4176704Y4229100D03*
G01*
X3976695Y4229100D03*
G01*
X1928804Y5435600D03*
G01*
X1728795Y5435600D03*
D19*
G01*
X4178300Y4814895D03*
D20*
G01*
X4178300Y5014899D03*
D21*
G01*
X2046300Y3460495D03*
G01*
X2046300Y3270504D03*
G01*
X2246299Y3365500D03*
D22*
G01*
X4380890Y5111495D03*
G01*
X4380890Y5016500D03*
G01*
X4380890Y4921504D03*
G01*
X4610709Y4921504D03*
G01*
X4610709Y5016500D03*
G01*
X4610709Y5111495D03*
D23*
G01*
X1651000Y4660900D03*
D24*
G01*
X1651000Y4914900D03*
G01*
X4851400Y4508500D03*
G01*
X4851400Y4762500D03*
D23*
G01*
X4851400Y5016500D03*
D25*
G01*
X2501900Y4229100D03*
G01*
X2501900Y3975100D03*
G01*
X2501900Y3721100D03*
G01*
X2501900Y3467100D03*
D26*
G01*
X3263900Y3467100D03*
D25*
G01*
X3263900Y3975100D03*
G01*
X3263900Y4229100D03*
D26*
G01*
X3263900Y3721100D03*
D25*
G01*
X2501900Y5473700D03*
G01*
X2501900Y5219700D03*
G01*
X2501900Y4965700D03*
G01*
X2501900Y4711700D03*
D26*
G01*
X3263900Y4711700D03*
D25*
G01*
X3263900Y5219700D03*
G01*
X3263900Y5473700D03*
D26*
G01*
X3263900Y4965700D03*
D27*
G01*
X2146300Y5446776D03*
G01*
X2959100Y3975100D03*
G01*
X2959100Y3467100D03*
G01*
X1600200Y4013200D03*
G01*
X4610100Y4775200D03*
G01*
X1879600Y4914900D03*
G01*
X1727200Y5257800D03*
G01*
X2046300Y3460495D03*
G01*
X4851400Y5361000D03*
G01*
X4380890Y5016500D03*
M02*
