G04 Layer: TopSolderMaskLayer*
G04 EasyEDA v6.5.47, 2024-12-22 15:22:41*
G04 e1e7952599984f8b88d5fc9924ef2239,3d6967793dfb4ab392e21a473a945d40,10*
G04 Gerber Generator version 0.2*
G04 Scale: 100 percent, Rotated: No, Reflected: No *
G04 Dimensions in millimeters *
G04 leading zeros omitted , absolute positions ,4 integer and 5 decimal *
%FSLAX45Y45*%
%MOMM*%

%AMMACRO1*4,1,8,-0.7261,-0.7258,-0.7558,-0.6958,-0.7558,0.6961,-0.7261,0.7258,0.7258,0.7258,0.7558,0.6961,0.7558,-0.6958,0.7258,-0.7258,-0.7261,-0.7258,0*%
%AMMACRO2*4,1,8,-0.7262,-0.7258,-0.7559,-0.6958,-0.7559,0.6961,-0.7262,0.7258,0.7259,0.7258,0.7559,0.6961,0.7559,-0.6958,0.7259,-0.7258,-0.7262,-0.7258,0*%
%AMMACRO3*4,1,8,-0.6961,-0.7558,-0.7258,-0.7258,-0.7258,0.7261,-0.6961,0.7558,0.6958,0.7558,0.7258,0.7261,0.7258,-0.7258,0.6958,-0.7558,-0.6961,-0.7558,0*%
%AMMACRO4*4,1,8,-0.6961,-0.7559,-0.7258,-0.7259,-0.7258,0.7262,-0.6961,0.7559,0.6958,0.7559,0.7258,0.7262,0.7258,-0.7259,0.6958,-0.7559,-0.6961,-0.7559,0*%
%AMMACRO5*4,1,8,-0.5961,-0.5258,-0.6259,-0.4958,-0.6259,0.4961,-0.5961,0.5258,0.5959,0.5258,0.6259,0.4961,0.6259,-0.4958,0.5959,-0.5258,-0.5961,-0.5258,0*%
%AMMACRO6*4,1,8,-0.8085,-0.8382,-0.8382,-0.8082,-0.8382,0.8085,-0.8085,0.8382,0.8082,0.8382,0.8382,0.8085,0.8382,-0.8082,0.8082,-0.8382,-0.8085,-0.8382,0*%
%AMMACRO7*4,1,8,-1.096,-1.7108,-1.1257,-1.6808,-1.1257,1.6811,-1.096,1.7108,1.0958,1.7108,1.1257,1.6811,1.1257,-1.6808,1.0958,-1.7108,-1.096,-1.7108,0*%
%AMMACRO8*4,1,8,-0.5874,-0.7394,-0.6171,-0.7094,-0.6171,0.7097,-0.5874,0.7394,0.5871,0.7394,0.6171,0.7097,0.6171,-0.7094,0.5871,-0.7394,-0.5874,-0.7394,0*%
%AMMACRO9*4,1,8,-0.7097,-0.6171,-0.7394,-0.5871,-0.7394,0.5874,-0.7097,0.6171,0.7094,0.6171,0.7394,0.5874,0.7394,-0.5871,0.7094,-0.6171,-0.7097,-0.6171,0*%
%AMMACRO10*4,1,8,-0.6462,-0.4008,-0.6759,-0.3708,-0.6759,0.3711,-0.6462,0.4008,0.6459,0.4008,0.6759,0.3711,0.6759,-0.3708,0.6459,-0.4008,-0.6462,-0.4008,0*%
%AMMACRO11*4,1,8,-0.557,-0.3167,-0.5867,-0.2868,-0.5867,0.287,-0.557,0.3167,0.5568,0.3167,0.5867,0.287,0.5867,-0.2868,0.5568,-0.3167,-0.557,-0.3167,0*%
%ADD10MACRO1*%
%ADD11MACRO2*%
%ADD12MACRO3*%
%ADD13MACRO4*%
%ADD14MACRO5*%
%ADD15MACRO6*%
%ADD16C,1.6764*%
%ADD17MACRO7*%
%ADD18MACRO8*%
%ADD19MACRO9*%
%ADD20MACRO10*%
%ADD21MACRO11*%
%ADD22C,1.9016*%
%ADD23C,2.0066*%

%LPD*%
D10*
G01*
X3935412Y5016487D03*
D11*
G01*
X3735400Y5016487D03*
D12*
G01*
X4851412Y5360987D03*
D13*
G01*
X4851412Y5560999D03*
D11*
G01*
X1982800Y3975087D03*
D10*
G01*
X2182812Y3975087D03*
G01*
X2144712Y5765787D03*
D11*
G01*
X1944700Y5765787D03*
D14*
G01*
X3733800Y5566740D03*
G01*
X3733800Y5228259D03*
D15*
G01*
X1651000Y4660900D03*
D16*
G01*
X1651000Y4914900D03*
G01*
X4851400Y4508500D03*
G01*
X4851400Y4762500D03*
D15*
G01*
X4851400Y5016500D03*
D17*
G01*
X4609287Y5562587D03*
G01*
X4026712Y5562587D03*
D18*
G01*
X1995487Y4229100D03*
G01*
X2195512Y4229100D03*
G01*
X1601787Y4229100D03*
G01*
X1801812Y4229100D03*
G01*
X3262312Y5791200D03*
G01*
X3062287Y5791200D03*
D19*
G01*
X1803400Y3465512D03*
G01*
X1803400Y3265487D03*
D18*
G01*
X1982787Y3746500D03*
G01*
X2182812Y3746500D03*
D19*
G01*
X3848100Y3760787D03*
G01*
X3848100Y3960812D03*
G01*
X3606800Y3960812D03*
G01*
X3606800Y3760787D03*
G01*
X2146300Y5246687D03*
G01*
X2146300Y5446712D03*
G01*
X2146300Y4738687D03*
G01*
X2146300Y4938712D03*
D18*
G01*
X3770312Y4229100D03*
G01*
X3570287Y4229100D03*
G01*
X4176712Y4229100D03*
G01*
X3976687Y4229100D03*
G01*
X1928812Y5435600D03*
G01*
X1728787Y5435600D03*
D19*
G01*
X4178300Y4814887D03*
G01*
X4178300Y5014912D03*
D20*
G01*
X2046300Y3460496D03*
G01*
X2046300Y3270503D03*
G01*
X2246299Y3365500D03*
D21*
G01*
X4380890Y5111496D03*
G01*
X4380890Y5016500D03*
G01*
X4380890Y4921504D03*
G01*
X4610709Y4921504D03*
G01*
X4610709Y5016500D03*
G01*
X4610709Y5111496D03*
D22*
G01*
X2501900Y4229100D03*
G01*
X2501900Y3975100D03*
G01*
X2501900Y3721100D03*
G01*
X2501900Y3467100D03*
D23*
G01*
X3263900Y3467100D03*
D22*
G01*
X3263900Y3975100D03*
G01*
X3263900Y4229100D03*
D23*
G01*
X3263900Y3721100D03*
D22*
G01*
X2501900Y5473700D03*
G01*
X2501900Y5219700D03*
G01*
X2501900Y4965700D03*
G01*
X2501900Y4711700D03*
D23*
G01*
X3263900Y4711700D03*
D22*
G01*
X3263900Y5219700D03*
G01*
X3263900Y5473700D03*
D23*
G01*
X3263900Y4965700D03*
M02*
