G04 Layer: TopPasteMaskLayer*
G04 EasyEDA v6.5.47, 2024-12-22 15:22:41*
G04 e1e7952599984f8b88d5fc9924ef2239,3d6967793dfb4ab392e21a473a945d40,10*
G04 Gerber Generator version 0.2*
G04 Scale: 100 percent, Rotated: No, Reflected: No *
G04 Dimensions in millimeters *
G04 leading zeros omitted , absolute positions ,4 integer and 5 decimal *
%FSLAX45Y45*%
%MOMM*%

%ADD10R,1.1500X0.9500*%
%ADD11R,2.1500X3.3200*%
%ADD12R,1.2500X0.7000*%
%ADD13R,1.0720X0.5320*%

%LPD*%
G36*
X3672890Y5087518D02*
G01*
X3667912Y5082489D01*
X3667912Y4954524D01*
X3672890Y4949494D01*
X3787901Y4949494D01*
X3792880Y4954524D01*
X3792423Y4996484D01*
X3748379Y4996484D01*
X3748379Y5041493D01*
X3793388Y5041493D01*
X3792880Y5082489D01*
X3787901Y5087518D01*
G37*
G36*
X3887876Y5087518D02*
G01*
X3882898Y5082489D01*
X3883406Y5041493D01*
X3927398Y5041493D01*
X3927398Y4996484D01*
X3882898Y4996484D01*
X3882898Y4954524D01*
X3887876Y4949494D01*
X4002887Y4949494D01*
X4007916Y4954524D01*
X4007916Y5082489D01*
X4002887Y5087518D01*
G37*
G36*
X4789424Y5628487D02*
G01*
X4784394Y5623509D01*
X4784394Y5508498D01*
X4789424Y5503519D01*
X4831384Y5503976D01*
X4831384Y5548020D01*
X4876393Y5548020D01*
X4876393Y5503011D01*
X4917389Y5503519D01*
X4922418Y5508498D01*
X4922418Y5623509D01*
X4917389Y5628487D01*
G37*
G36*
X4789424Y5413502D02*
G01*
X4784394Y5408523D01*
X4784394Y5293512D01*
X4789424Y5288483D01*
X4917389Y5288483D01*
X4922418Y5293512D01*
X4922418Y5408523D01*
X4917389Y5413502D01*
X4876393Y5412994D01*
X4876393Y5369001D01*
X4831384Y5369001D01*
X4831384Y5413502D01*
G37*
G36*
X2130298Y4042105D02*
G01*
X2125319Y4037076D01*
X2125776Y3995115D01*
X2169820Y3995115D01*
X2169820Y3950106D01*
X2124811Y3950106D01*
X2125319Y3909110D01*
X2130298Y3904081D01*
X2245309Y3904081D01*
X2250287Y3909110D01*
X2250287Y4037076D01*
X2245309Y4042105D01*
G37*
G36*
X1915312Y4042105D02*
G01*
X1910283Y4037076D01*
X1910283Y3909110D01*
X1915312Y3904081D01*
X2030323Y3904081D01*
X2035302Y3909110D01*
X2034793Y3950106D01*
X1990801Y3950106D01*
X1990801Y3995115D01*
X2035302Y3995115D01*
X2035302Y4037076D01*
X2030323Y4042105D01*
G37*
G36*
X1882190Y5836818D02*
G01*
X1877212Y5831789D01*
X1877212Y5703824D01*
X1882190Y5698794D01*
X1997202Y5698794D01*
X2002180Y5703824D01*
X2001723Y5745784D01*
X1957679Y5745784D01*
X1957679Y5790793D01*
X2002688Y5790793D01*
X2002180Y5831789D01*
X1997202Y5836818D01*
G37*
G36*
X2097176Y5836818D02*
G01*
X2092198Y5831789D01*
X2092706Y5790793D01*
X2136698Y5790793D01*
X2136698Y5745784D01*
X2092198Y5745784D01*
X2092198Y5703824D01*
X2097176Y5698794D01*
X2212187Y5698794D01*
X2217216Y5703824D01*
X2217216Y5831789D01*
X2212187Y5836818D01*
G37*
G36*
X2145487Y4298086D02*
G01*
X2140508Y4293108D01*
X2141016Y4251096D01*
X2185009Y4251096D01*
X2185009Y4206087D01*
X2140000Y4206087D01*
X2140508Y4165092D01*
X2145487Y4160113D01*
X2260498Y4160113D01*
X2265527Y4165092D01*
X2265527Y4293108D01*
X2260498Y4298086D01*
G37*
G36*
X1930501Y4298086D02*
G01*
X1925523Y4293108D01*
X1925523Y4165092D01*
X1930501Y4160113D01*
X2045512Y4160113D01*
X2050491Y4165092D01*
X2049983Y4206087D01*
X2005990Y4206087D01*
X2005990Y4251096D01*
X2050491Y4251096D01*
X2050491Y4293108D01*
X2045512Y4298086D01*
G37*
G36*
X1751787Y4298086D02*
G01*
X1746808Y4293108D01*
X1747316Y4251096D01*
X1791309Y4251096D01*
X1791309Y4206087D01*
X1746300Y4206087D01*
X1746808Y4165092D01*
X1751787Y4160113D01*
X1866798Y4160113D01*
X1871827Y4165092D01*
X1871827Y4293108D01*
X1866798Y4298086D01*
G37*
G36*
X1536801Y4298086D02*
G01*
X1531823Y4293108D01*
X1531823Y4165092D01*
X1536801Y4160113D01*
X1651812Y4160113D01*
X1656791Y4165092D01*
X1656283Y4206087D01*
X1612290Y4206087D01*
X1612290Y4251096D01*
X1656791Y4251096D01*
X1656791Y4293108D01*
X1651812Y4298086D01*
G37*
G36*
X2997301Y5860186D02*
G01*
X2992272Y5855208D01*
X2992272Y5727192D01*
X2997301Y5722213D01*
X3112312Y5722213D01*
X3117291Y5727192D01*
X3116783Y5769203D01*
X3072790Y5769203D01*
X3072790Y5814212D01*
X3117799Y5814212D01*
X3117291Y5855208D01*
X3112312Y5860186D01*
G37*
G36*
X3212287Y5860186D02*
G01*
X3207308Y5855208D01*
X3207816Y5814212D01*
X3251809Y5814212D01*
X3251809Y5769203D01*
X3207308Y5769203D01*
X3207308Y5727192D01*
X3212287Y5722213D01*
X3327298Y5722213D01*
X3332276Y5727192D01*
X3332276Y5855208D01*
X3327298Y5860186D01*
G37*
G36*
X1780387Y3320999D02*
G01*
X1739392Y3320491D01*
X1734413Y3315512D01*
X1734413Y3200501D01*
X1739392Y3195472D01*
X1867407Y3195472D01*
X1872386Y3200501D01*
X1872386Y3315512D01*
X1867407Y3320491D01*
X1825396Y3319983D01*
X1825396Y3275990D01*
X1780387Y3275990D01*
G37*
G36*
X1739392Y3535476D02*
G01*
X1734413Y3530498D01*
X1734413Y3415487D01*
X1739392Y3410508D01*
X1780387Y3411016D01*
X1780387Y3455009D01*
X1825396Y3455009D01*
X1825396Y3410508D01*
X1867407Y3410508D01*
X1872386Y3415487D01*
X1872386Y3530498D01*
X1867407Y3535476D01*
G37*
G36*
X2132787Y3815486D02*
G01*
X2127808Y3810508D01*
X2128316Y3768496D01*
X2172309Y3768496D01*
X2172309Y3723487D01*
X2127300Y3723487D01*
X2127808Y3682492D01*
X2132787Y3677513D01*
X2247798Y3677513D01*
X2252827Y3682492D01*
X2252827Y3810508D01*
X2247798Y3815486D01*
G37*
G36*
X1917801Y3815486D02*
G01*
X1912823Y3810508D01*
X1912823Y3682492D01*
X1917801Y3677513D01*
X2032812Y3677513D01*
X2037791Y3682492D01*
X2037283Y3723487D01*
X1993290Y3723487D01*
X1993290Y3768496D01*
X2037791Y3768496D01*
X2037791Y3810508D01*
X2032812Y3815486D01*
G37*
G36*
X3784092Y4030827D02*
G01*
X3779113Y4025798D01*
X3779113Y3910787D01*
X3784092Y3905808D01*
X3826103Y3906316D01*
X3826103Y3950309D01*
X3871112Y3950309D01*
X3871112Y3905300D01*
X3912108Y3905808D01*
X3917086Y3910787D01*
X3917086Y4025798D01*
X3912108Y4030827D01*
G37*
G36*
X3784092Y3815791D02*
G01*
X3779113Y3810812D01*
X3779113Y3695801D01*
X3784092Y3690823D01*
X3912108Y3690823D01*
X3917086Y3695801D01*
X3917086Y3810812D01*
X3912108Y3815791D01*
X3871112Y3815283D01*
X3871112Y3771290D01*
X3826103Y3771290D01*
X3826103Y3815791D01*
G37*
G36*
X3583787Y3816299D02*
G01*
X3542792Y3815791D01*
X3537813Y3810812D01*
X3537813Y3695801D01*
X3542792Y3690772D01*
X3670808Y3690772D01*
X3675786Y3695801D01*
X3675786Y3810812D01*
X3670808Y3815791D01*
X3628796Y3815283D01*
X3628796Y3771290D01*
X3583787Y3771290D01*
G37*
G36*
X3542792Y4030776D02*
G01*
X3537813Y4025798D01*
X3537813Y3910787D01*
X3542792Y3905808D01*
X3583787Y3906316D01*
X3583787Y3950309D01*
X3628796Y3950309D01*
X3628796Y3905808D01*
X3670808Y3905808D01*
X3675786Y3910787D01*
X3675786Y4025798D01*
X3670808Y4030776D01*
G37*
G36*
X2082292Y5516727D02*
G01*
X2077313Y5511698D01*
X2077313Y5396687D01*
X2082292Y5391708D01*
X2124303Y5392216D01*
X2124303Y5436209D01*
X2169312Y5436209D01*
X2169312Y5391200D01*
X2210308Y5391708D01*
X2215286Y5396687D01*
X2215286Y5511698D01*
X2210308Y5516727D01*
G37*
G36*
X2082292Y5301691D02*
G01*
X2077313Y5296712D01*
X2077313Y5181701D01*
X2082292Y5176723D01*
X2210308Y5176723D01*
X2215286Y5181701D01*
X2215286Y5296712D01*
X2210308Y5301691D01*
X2169312Y5301183D01*
X2169312Y5257190D01*
X2124303Y5257190D01*
X2124303Y5301691D01*
G37*
G36*
X2082292Y5008727D02*
G01*
X2077313Y5003698D01*
X2077313Y4888687D01*
X2082292Y4883708D01*
X2124303Y4884216D01*
X2124303Y4928209D01*
X2169312Y4928209D01*
X2169312Y4883200D01*
X2210308Y4883708D01*
X2215286Y4888687D01*
X2215286Y5003698D01*
X2210308Y5008727D01*
G37*
G36*
X2082292Y4793691D02*
G01*
X2077313Y4788712D01*
X2077313Y4673701D01*
X2082292Y4668723D01*
X2210308Y4668723D01*
X2215286Y4673701D01*
X2215286Y4788712D01*
X2210308Y4793691D01*
X2169312Y4793183D01*
X2169312Y4749190D01*
X2124303Y4749190D01*
X2124303Y4793691D01*
G37*
G36*
X3505301Y4298086D02*
G01*
X3500272Y4293108D01*
X3500272Y4165092D01*
X3505301Y4160113D01*
X3620312Y4160113D01*
X3625291Y4165092D01*
X3624783Y4207103D01*
X3580790Y4207103D01*
X3580790Y4252112D01*
X3625799Y4252112D01*
X3625291Y4293108D01*
X3620312Y4298086D01*
G37*
G36*
X3720287Y4298086D02*
G01*
X3715308Y4293108D01*
X3715816Y4252112D01*
X3759809Y4252112D01*
X3759809Y4207103D01*
X3715308Y4207103D01*
X3715308Y4165092D01*
X3720287Y4160113D01*
X3835298Y4160113D01*
X3840276Y4165092D01*
X3840276Y4293108D01*
X3835298Y4298086D01*
G37*
G36*
X3911701Y4298086D02*
G01*
X3906672Y4293108D01*
X3906672Y4165092D01*
X3911701Y4160113D01*
X4026712Y4160113D01*
X4031691Y4165092D01*
X4031183Y4207103D01*
X3987190Y4207103D01*
X3987190Y4252112D01*
X4032199Y4252112D01*
X4031691Y4293108D01*
X4026712Y4298086D01*
G37*
G36*
X4126687Y4298086D02*
G01*
X4121708Y4293108D01*
X4122216Y4252112D01*
X4166209Y4252112D01*
X4166209Y4207103D01*
X4121708Y4207103D01*
X4121708Y4165092D01*
X4126687Y4160113D01*
X4241698Y4160113D01*
X4246676Y4165092D01*
X4246676Y4293108D01*
X4241698Y4298086D01*
G37*
G36*
X1663801Y5504586D02*
G01*
X1658772Y5499608D01*
X1658772Y5371592D01*
X1663801Y5366613D01*
X1778812Y5366613D01*
X1783791Y5371592D01*
X1783283Y5413603D01*
X1739290Y5413603D01*
X1739290Y5458612D01*
X1784299Y5458612D01*
X1783791Y5499608D01*
X1778812Y5504586D01*
G37*
G36*
X1878787Y5504586D02*
G01*
X1873808Y5499608D01*
X1874316Y5458612D01*
X1918309Y5458612D01*
X1918309Y5413603D01*
X1873808Y5413603D01*
X1873808Y5371592D01*
X1878787Y5366613D01*
X1993798Y5366613D01*
X1998776Y5371592D01*
X1998776Y5499608D01*
X1993798Y5504586D01*
G37*
G36*
X4114292Y5084927D02*
G01*
X4109313Y5079898D01*
X4109313Y4964887D01*
X4114292Y4959908D01*
X4156303Y4960416D01*
X4156303Y5004409D01*
X4201312Y5004409D01*
X4201312Y4959400D01*
X4242308Y4959908D01*
X4247286Y4964887D01*
X4247286Y5079898D01*
X4242308Y5084927D01*
G37*
G36*
X4114292Y4869891D02*
G01*
X4109313Y4864912D01*
X4109313Y4749901D01*
X4114292Y4744923D01*
X4242308Y4744923D01*
X4247286Y4749901D01*
X4247286Y4864912D01*
X4242308Y4869891D01*
X4201312Y4869383D01*
X4201312Y4825390D01*
X4156303Y4825390D01*
X4156303Y4869891D01*
G37*
D10*
G01*
X3733800Y5566740D03*
G01*
X3733800Y5228259D03*
D11*
G01*
X4609287Y5562600D03*
G01*
X4026712Y5562600D03*
D12*
G01*
X2046300Y3460495D03*
G01*
X2046300Y3270504D03*
G01*
X2246299Y3365500D03*
D13*
G01*
X4380890Y5111495D03*
G01*
X4380890Y5016500D03*
G01*
X4380890Y4921504D03*
G01*
X4610709Y4921504D03*
G01*
X4610709Y5016500D03*
G01*
X4610709Y5111495D03*
M02*
