G04 Layer: BottomLayer*
G04 EasyEDA v6.5.47, 2024-12-22 15:22:41*
G04 e1e7952599984f8b88d5fc9924ef2239,3d6967793dfb4ab392e21a473a945d40,10*
G04 Gerber Generator version 0.2*
G04 Scale: 100 percent, Rotated: No, Reflected: No *
G04 Dimensions in millimeters *
G04 leading zeros omitted , absolute positions ,4 integer and 5 decimal *
%FSLAX45Y45*%
%MOMM*%

%ADD10C,0.2540*%
%ADD11R,1.5748X1.5748*%
%ADD12C,1.5748*%
%ADD13C,1.8000*%
%ADD14C,1.9050*%
%ADD15C,0.6200*%
%ADD16C,0.0127*%

%LPD*%
G36*
X1420368Y3125978D02*
G01*
X1416456Y3126740D01*
X1413205Y3128975D01*
X1410970Y3132226D01*
X1410208Y3136138D01*
X1410208Y5920232D01*
X1410970Y5924143D01*
X1413205Y5927394D01*
X1416456Y5929630D01*
X1420368Y5930392D01*
X5063998Y5930392D01*
X5067909Y5929630D01*
X5071160Y5927394D01*
X5073396Y5924143D01*
X5074158Y5920232D01*
X5074158Y3136138D01*
X5073396Y3132226D01*
X5071160Y3128975D01*
X5067909Y3126740D01*
X5063998Y3125978D01*
G37*

%LPC*%
G36*
X2108708Y3237992D02*
G01*
X4533392Y3237992D01*
X4541418Y3238804D01*
X4548632Y3240989D01*
X4555337Y3244545D01*
X4561535Y3249676D01*
X4637024Y3325164D01*
X4642154Y3331362D01*
X4645710Y3338068D01*
X4647895Y3345281D01*
X4648708Y3353308D01*
X4648708Y4729480D01*
X4649419Y4733290D01*
X4651552Y4736541D01*
X4654346Y4739487D01*
X4659731Y4747463D01*
X4663744Y4756251D01*
X4666132Y4765598D01*
X4666996Y4775200D01*
X4666132Y4784801D01*
X4663744Y4794148D01*
X4659731Y4802936D01*
X4654346Y4810912D01*
X4647692Y4817872D01*
X4639919Y4823612D01*
X4631283Y4827981D01*
X4622088Y4830775D01*
X4612538Y4832045D01*
X4602886Y4831588D01*
X4593437Y4829556D01*
X4584496Y4826000D01*
X4576267Y4820920D01*
X4569053Y4814570D01*
X4562957Y4807051D01*
X4558284Y4798618D01*
X4555083Y4789525D01*
X4553458Y4780026D01*
X4553458Y4770374D01*
X4555083Y4760874D01*
X4558284Y4751781D01*
X4562957Y4743348D01*
X4569256Y4735626D01*
X4570933Y4732629D01*
X4571492Y4729226D01*
X4571492Y3373018D01*
X4570730Y3369106D01*
X4568494Y3365804D01*
X4520895Y3318205D01*
X4517593Y3315970D01*
X4513681Y3315208D01*
X2128418Y3315208D01*
X2124506Y3315970D01*
X2121204Y3318205D01*
X2087829Y3351580D01*
X2085593Y3354882D01*
X2084832Y3358794D01*
X2084832Y3414725D01*
X2085543Y3418484D01*
X2087676Y3421735D01*
X2090572Y3424783D01*
X2095957Y3432759D01*
X2099919Y3441547D01*
X2102358Y3450894D01*
X2103170Y3460496D01*
X2102358Y3470097D01*
X2099919Y3479444D01*
X2095957Y3488232D01*
X2090572Y3496208D01*
X2083866Y3503168D01*
X2076094Y3508908D01*
X2067509Y3513277D01*
X2058263Y3516071D01*
X2048713Y3517341D01*
X2039061Y3516884D01*
X2029663Y3514851D01*
X2020671Y3511296D01*
X2012492Y3506215D01*
X2005228Y3499865D01*
X1999183Y3492347D01*
X1994458Y3483914D01*
X1991258Y3474821D01*
X1989632Y3465322D01*
X1989632Y3455670D01*
X1991258Y3446170D01*
X1994458Y3437077D01*
X1999183Y3428644D01*
X2005380Y3420973D01*
X2007057Y3417976D01*
X2007616Y3414623D01*
X2007616Y3339084D01*
X2008428Y3331057D01*
X2010613Y3323844D01*
X2014169Y3317138D01*
X2019300Y3310940D01*
X2080564Y3249676D01*
X2086762Y3244545D01*
X2093468Y3240989D01*
X2100681Y3238804D01*
G37*
G36*
X3263900Y3345942D02*
G01*
X3278784Y3346856D01*
X3293465Y3349599D01*
X3307638Y3354120D01*
X3321202Y3360369D01*
X3333902Y3368243D01*
X3345535Y3377590D01*
X3355898Y3388309D01*
X3364890Y3400196D01*
X3372358Y3413099D01*
X3378149Y3426815D01*
X3382213Y3441192D01*
X3384499Y3455924D01*
X3384956Y3470808D01*
X3383584Y3485692D01*
X3380435Y3500272D01*
X3375456Y3514293D01*
X3368801Y3527653D01*
X3360572Y3540099D01*
X3350869Y3551428D01*
X3339846Y3561486D01*
X3327654Y3570071D01*
X3314547Y3577132D01*
X3300628Y3582517D01*
X3294227Y3584143D01*
X3290366Y3586073D01*
X3287623Y3589477D01*
X3286556Y3593693D01*
X3287369Y3597960D01*
X3289858Y3601516D01*
X3293618Y3603701D01*
X3307638Y3608120D01*
X3321202Y3614369D01*
X3333902Y3622243D01*
X3345535Y3631590D01*
X3355898Y3642309D01*
X3364890Y3654196D01*
X3372358Y3667099D01*
X3378149Y3680815D01*
X3382213Y3695192D01*
X3384499Y3709924D01*
X3384956Y3724808D01*
X3383584Y3739692D01*
X3380435Y3754272D01*
X3375456Y3768293D01*
X3368801Y3781653D01*
X3360572Y3794099D01*
X3350869Y3805428D01*
X3339846Y3815486D01*
X3327654Y3824071D01*
X3314547Y3831132D01*
X3300628Y3836517D01*
X3286150Y3840175D01*
X3282238Y3840683D01*
X3278378Y3841953D01*
X3275329Y3844696D01*
X3273602Y3848404D01*
X3273450Y3852468D01*
X3274923Y3856278D01*
X3277819Y3859174D01*
X3281578Y3860749D01*
X3292703Y3862832D01*
X3306572Y3867353D01*
X3319729Y3873550D01*
X3332022Y3881323D01*
X3343249Y3890619D01*
X3353206Y3901236D01*
X3361740Y3913022D01*
X3368751Y3925773D01*
X3374136Y3939286D01*
X3377742Y3953408D01*
X3379571Y3967835D01*
X3379571Y3982364D01*
X3377742Y3996791D01*
X3374136Y4010914D01*
X3368751Y4024426D01*
X3361740Y4037177D01*
X3353206Y4048963D01*
X3343249Y4059580D01*
X3332022Y4068876D01*
X3319729Y4076649D01*
X3306572Y4082846D01*
X3292703Y4087368D01*
X3278428Y4090060D01*
X3263900Y4090974D01*
X3249371Y4090060D01*
X3235096Y4087368D01*
X3221228Y4082846D01*
X3208070Y4076649D01*
X3195777Y4068876D01*
X3184550Y4059580D01*
X3174593Y4048963D01*
X3166059Y4037177D01*
X3159048Y4024426D01*
X3153664Y4010914D01*
X3150057Y3996791D01*
X3148228Y3982364D01*
X3148228Y3967835D01*
X3150057Y3953408D01*
X3153664Y3939286D01*
X3159048Y3925773D01*
X3166059Y3913022D01*
X3174593Y3901236D01*
X3184550Y3890619D01*
X3195777Y3881323D01*
X3208070Y3873550D01*
X3221228Y3867353D01*
X3235096Y3862832D01*
X3246221Y3860749D01*
X3249980Y3859174D01*
X3252876Y3856278D01*
X3254349Y3852468D01*
X3254197Y3848404D01*
X3252470Y3844696D01*
X3249422Y3841953D01*
X3245561Y3840683D01*
X3241649Y3840175D01*
X3227171Y3836517D01*
X3213252Y3831132D01*
X3200146Y3824071D01*
X3187954Y3815486D01*
X3176930Y3805428D01*
X3167227Y3794099D01*
X3158998Y3781653D01*
X3152343Y3768293D01*
X3147364Y3754272D01*
X3144215Y3739692D01*
X3142843Y3724808D01*
X3143300Y3709924D01*
X3145586Y3695192D01*
X3149650Y3680815D01*
X3155442Y3667099D01*
X3162909Y3654196D01*
X3171901Y3642309D01*
X3182264Y3631590D01*
X3193897Y3622243D01*
X3206597Y3614369D01*
X3220161Y3608120D01*
X3234182Y3603701D01*
X3237941Y3601516D01*
X3240430Y3597960D01*
X3241243Y3593693D01*
X3240176Y3589477D01*
X3237433Y3586073D01*
X3233572Y3584143D01*
X3227171Y3582517D01*
X3213252Y3577132D01*
X3200146Y3570071D01*
X3187954Y3561486D01*
X3176930Y3551428D01*
X3167227Y3540099D01*
X3158998Y3527653D01*
X3152343Y3514293D01*
X3147364Y3500272D01*
X3144215Y3485692D01*
X3142843Y3470808D01*
X3143300Y3455924D01*
X3145586Y3441192D01*
X3149650Y3426815D01*
X3155442Y3413099D01*
X3162909Y3400196D01*
X3171901Y3388309D01*
X3182264Y3377590D01*
X3193897Y3368243D01*
X3206597Y3360369D01*
X3220161Y3354120D01*
X3234334Y3349599D01*
X3249015Y3346856D01*
G37*
G36*
X2553258Y3363417D02*
G01*
X2557729Y3365550D01*
X2570022Y3373323D01*
X2581249Y3382619D01*
X2591206Y3393236D01*
X2599740Y3405022D01*
X2605633Y3415741D01*
X2553258Y3415741D01*
G37*
G36*
X2450541Y3363417D02*
G01*
X2450541Y3415741D01*
X2398166Y3415741D01*
X2404059Y3405022D01*
X2412593Y3393236D01*
X2422550Y3382619D01*
X2433777Y3373323D01*
X2446070Y3365550D01*
G37*
G36*
X2961538Y3410254D02*
G01*
X2971088Y3411524D01*
X2980283Y3414318D01*
X2988919Y3418687D01*
X2996692Y3424428D01*
X3003346Y3431387D01*
X3008731Y3439363D01*
X3012744Y3448151D01*
X3015132Y3457498D01*
X3015996Y3467100D01*
X3015132Y3476701D01*
X3012744Y3486048D01*
X3008731Y3494836D01*
X3003346Y3502812D01*
X3000552Y3505758D01*
X2998419Y3509010D01*
X2997708Y3512820D01*
X2997708Y3542792D01*
X2996895Y3550818D01*
X2994710Y3558032D01*
X2991154Y3564737D01*
X2986024Y3570935D01*
X2935935Y3621024D01*
X2929737Y3626154D01*
X2923032Y3629710D01*
X2915818Y3631895D01*
X2907792Y3632708D01*
X2600604Y3632708D01*
X2596235Y3633673D01*
X2592730Y3636416D01*
X2590749Y3640328D01*
X2590596Y3644747D01*
X2592374Y3648862D01*
X2599740Y3659022D01*
X2606751Y3671773D01*
X2612136Y3685286D01*
X2615742Y3699408D01*
X2617571Y3713835D01*
X2617571Y3728364D01*
X2615742Y3742791D01*
X2612136Y3756914D01*
X2606751Y3770426D01*
X2599740Y3783177D01*
X2591206Y3794963D01*
X2581249Y3805580D01*
X2570022Y3814876D01*
X2557729Y3822649D01*
X2544572Y3828846D01*
X2530703Y3833368D01*
X2516428Y3836060D01*
X2501900Y3836974D01*
X2487371Y3836060D01*
X2473096Y3833368D01*
X2459228Y3828846D01*
X2446070Y3822649D01*
X2433777Y3814876D01*
X2422550Y3805580D01*
X2412593Y3794963D01*
X2404059Y3783177D01*
X2397048Y3770426D01*
X2391664Y3756914D01*
X2388057Y3742791D01*
X2386228Y3728364D01*
X2386228Y3713835D01*
X2388057Y3699408D01*
X2391664Y3685286D01*
X2397048Y3671773D01*
X2404059Y3659022D01*
X2411425Y3648862D01*
X2413203Y3644747D01*
X2413050Y3640328D01*
X2411069Y3636416D01*
X2407564Y3633673D01*
X2403195Y3632708D01*
X1671218Y3632708D01*
X1667306Y3633470D01*
X1664004Y3635705D01*
X1641805Y3657904D01*
X1639570Y3661206D01*
X1638807Y3665118D01*
X1638807Y3967479D01*
X1639519Y3971290D01*
X1641652Y3974541D01*
X1644446Y3977487D01*
X1649831Y3985463D01*
X1653844Y3994251D01*
X1656232Y4003598D01*
X1657096Y4013200D01*
X1656232Y4022801D01*
X1653844Y4032148D01*
X1649831Y4040936D01*
X1644446Y4048912D01*
X1637792Y4055872D01*
X1630019Y4061612D01*
X1621383Y4065981D01*
X1612188Y4068775D01*
X1602638Y4070045D01*
X1592986Y4069587D01*
X1583537Y4067556D01*
X1574596Y4064000D01*
X1566367Y4058920D01*
X1559153Y4052570D01*
X1553057Y4045051D01*
X1548384Y4036618D01*
X1545183Y4027525D01*
X1543558Y4018026D01*
X1543558Y4008374D01*
X1545183Y3998874D01*
X1548384Y3989781D01*
X1553057Y3981348D01*
X1559356Y3973626D01*
X1561033Y3970629D01*
X1561592Y3967226D01*
X1561592Y3645408D01*
X1562404Y3637381D01*
X1564589Y3630168D01*
X1568145Y3623462D01*
X1573276Y3617264D01*
X1623364Y3567176D01*
X1629562Y3562045D01*
X1636268Y3558489D01*
X1643481Y3556304D01*
X1651507Y3555492D01*
X2403195Y3555492D01*
X2407564Y3554526D01*
X2411069Y3551783D01*
X2413050Y3547872D01*
X2413203Y3543452D01*
X2411425Y3539337D01*
X2404059Y3529177D01*
X2398166Y3518458D01*
X2450541Y3518458D01*
X2450541Y3545332D01*
X2451303Y3549243D01*
X2453538Y3552494D01*
X2456840Y3554729D01*
X2460701Y3555492D01*
X2543098Y3555492D01*
X2546959Y3554729D01*
X2550261Y3552494D01*
X2552496Y3549243D01*
X2553258Y3545332D01*
X2553258Y3518458D01*
X2605633Y3518458D01*
X2599740Y3529177D01*
X2592374Y3539337D01*
X2590596Y3543452D01*
X2590749Y3547872D01*
X2592730Y3551783D01*
X2596235Y3554526D01*
X2600604Y3555492D01*
X2888081Y3555492D01*
X2891993Y3554729D01*
X2895295Y3552494D01*
X2917494Y3530295D01*
X2919730Y3526993D01*
X2920492Y3523081D01*
X2920492Y3513074D01*
X2919933Y3509670D01*
X2918256Y3506673D01*
X2911957Y3498951D01*
X2907284Y3490518D01*
X2904083Y3481425D01*
X2902458Y3471926D01*
X2902458Y3462274D01*
X2904083Y3452774D01*
X2907284Y3443681D01*
X2911957Y3435248D01*
X2918053Y3427729D01*
X2925267Y3421379D01*
X2933496Y3416300D01*
X2942437Y3412744D01*
X2951886Y3410712D01*
G37*
G36*
X2501900Y3859225D02*
G01*
X2516428Y3860139D01*
X2530703Y3862832D01*
X2544572Y3867353D01*
X2557729Y3873550D01*
X2570022Y3881323D01*
X2581249Y3890619D01*
X2591206Y3901236D01*
X2599740Y3913022D01*
X2606751Y3925773D01*
X2612136Y3939286D01*
X2615742Y3953408D01*
X2617571Y3967835D01*
X2617571Y3982364D01*
X2615742Y3996791D01*
X2612136Y4010914D01*
X2606751Y4024426D01*
X2599740Y4037177D01*
X2591206Y4048963D01*
X2581249Y4059580D01*
X2570022Y4068876D01*
X2557729Y4076649D01*
X2544572Y4082846D01*
X2530703Y4087368D01*
X2516428Y4090060D01*
X2501900Y4090974D01*
X2487371Y4090060D01*
X2473096Y4087368D01*
X2459228Y4082846D01*
X2446070Y4076649D01*
X2433777Y4068876D01*
X2422550Y4059580D01*
X2412593Y4048963D01*
X2404059Y4037177D01*
X2397048Y4024426D01*
X2391664Y4010914D01*
X2388057Y3996791D01*
X2386228Y3982364D01*
X2386228Y3967835D01*
X2388057Y3953408D01*
X2391664Y3939286D01*
X2397048Y3925773D01*
X2404059Y3913022D01*
X2412593Y3901236D01*
X2422550Y3890619D01*
X2433777Y3881323D01*
X2446070Y3873550D01*
X2459228Y3867353D01*
X2473096Y3862832D01*
X2487371Y3860139D01*
G37*
G36*
X2961538Y3918254D02*
G01*
X2971088Y3919524D01*
X2980283Y3922318D01*
X2988919Y3926687D01*
X2996692Y3932428D01*
X3003346Y3939387D01*
X3008731Y3947363D01*
X3012744Y3956151D01*
X3015132Y3965498D01*
X3015996Y3975100D01*
X3015132Y3984701D01*
X3012744Y3994048D01*
X3008731Y4002836D01*
X3003346Y4010812D01*
X3000552Y4013758D01*
X2998419Y4017010D01*
X2997708Y4020820D01*
X2997708Y4444492D01*
X2996895Y4452518D01*
X2994710Y4459732D01*
X2991154Y4466437D01*
X2986024Y4472635D01*
X2948635Y4510024D01*
X2942437Y4515154D01*
X2935732Y4518710D01*
X2928518Y4520895D01*
X2920492Y4521708D01*
X1887118Y4521708D01*
X1883206Y4522470D01*
X1879904Y4524705D01*
X1857705Y4546904D01*
X1855470Y4550206D01*
X1854707Y4554118D01*
X1854707Y4849723D01*
X1855724Y4854092D01*
X1858467Y4857597D01*
X1862531Y4859578D01*
X1867001Y4859629D01*
X1872386Y4858512D01*
X1882038Y4858054D01*
X1891588Y4859324D01*
X1900783Y4862118D01*
X1909419Y4866487D01*
X1921459Y4875479D01*
X1925421Y4876292D01*
X2107692Y4876292D01*
X2115718Y4877104D01*
X2122932Y4879289D01*
X2129637Y4882845D01*
X2135835Y4887976D01*
X2173224Y4925364D01*
X2178354Y4931562D01*
X2181910Y4938268D01*
X2184095Y4945481D01*
X2184908Y4953508D01*
X2184908Y5401056D01*
X2185619Y5404866D01*
X2187752Y5408117D01*
X2190546Y5411063D01*
X2195931Y5419039D01*
X2199944Y5427827D01*
X2202332Y5437174D01*
X2203196Y5446776D01*
X2202332Y5456377D01*
X2199944Y5465724D01*
X2195931Y5474512D01*
X2190546Y5482488D01*
X2183892Y5489448D01*
X2176119Y5495188D01*
X2167483Y5499557D01*
X2158288Y5502351D01*
X2148738Y5503621D01*
X2139086Y5503164D01*
X2129637Y5501132D01*
X2120696Y5497576D01*
X2112467Y5492496D01*
X2105253Y5486146D01*
X2099157Y5478627D01*
X2094484Y5470194D01*
X2091283Y5461101D01*
X2089657Y5451602D01*
X2089657Y5441950D01*
X2091283Y5432450D01*
X2094484Y5423357D01*
X2099157Y5414924D01*
X2105456Y5407202D01*
X2107133Y5404205D01*
X2107692Y5400802D01*
X2107692Y4973218D01*
X2106930Y4969306D01*
X2104694Y4966004D01*
X2095195Y4956505D01*
X2091893Y4954270D01*
X2087981Y4953508D01*
X1925421Y4953508D01*
X1921459Y4954320D01*
X1909419Y4963312D01*
X1900783Y4967681D01*
X1891588Y4970475D01*
X1882038Y4971745D01*
X1872386Y4971288D01*
X1867001Y4970170D01*
X1862531Y4970221D01*
X1858467Y4972202D01*
X1855724Y4975707D01*
X1854707Y4980076D01*
X1854707Y5219192D01*
X1853895Y5227218D01*
X1851710Y5234432D01*
X1848154Y5241137D01*
X1843024Y5247335D01*
X1805635Y5284724D01*
X1799437Y5289854D01*
X1792732Y5293410D01*
X1785518Y5295595D01*
X1777492Y5296408D01*
X1773021Y5296408D01*
X1769059Y5297220D01*
X1757019Y5306212D01*
X1748383Y5310581D01*
X1739188Y5313375D01*
X1729638Y5314645D01*
X1719986Y5314188D01*
X1710537Y5312156D01*
X1701596Y5308600D01*
X1693367Y5303520D01*
X1686153Y5297170D01*
X1680057Y5289651D01*
X1675384Y5281218D01*
X1672183Y5272125D01*
X1670557Y5262626D01*
X1670557Y5252974D01*
X1672183Y5243474D01*
X1675384Y5234381D01*
X1680057Y5225948D01*
X1686153Y5218430D01*
X1693367Y5212080D01*
X1701596Y5207000D01*
X1710537Y5203444D01*
X1719986Y5201412D01*
X1729638Y5200954D01*
X1739188Y5202224D01*
X1748383Y5205018D01*
X1757019Y5209387D01*
X1761693Y5212080D01*
X1765300Y5212435D01*
X1768754Y5211521D01*
X1771700Y5209489D01*
X1774494Y5206695D01*
X1776730Y5203393D01*
X1777492Y5199481D01*
X1777492Y4534408D01*
X1778304Y4526381D01*
X1780489Y4519168D01*
X1784045Y4512462D01*
X1789175Y4506264D01*
X1839264Y4456176D01*
X1845462Y4451045D01*
X1852168Y4447489D01*
X1859381Y4445304D01*
X1867407Y4444492D01*
X2900781Y4444492D01*
X2904693Y4443730D01*
X2907995Y4441494D01*
X2917494Y4431995D01*
X2919730Y4428693D01*
X2920492Y4424781D01*
X2920492Y4021074D01*
X2919933Y4017670D01*
X2918256Y4014673D01*
X2911957Y4006951D01*
X2907284Y3998518D01*
X2904083Y3989425D01*
X2902458Y3979926D01*
X2902458Y3970274D01*
X2904083Y3960774D01*
X2907284Y3951681D01*
X2911957Y3943248D01*
X2918053Y3935729D01*
X2925267Y3929379D01*
X2933496Y3924300D01*
X2942437Y3920744D01*
X2951886Y3918712D01*
G37*
G36*
X3263900Y4113225D02*
G01*
X3278428Y4114139D01*
X3292703Y4116832D01*
X3306572Y4121353D01*
X3319729Y4127550D01*
X3332022Y4135323D01*
X3343249Y4144619D01*
X3353206Y4155236D01*
X3361740Y4167022D01*
X3368751Y4179773D01*
X3374136Y4193286D01*
X3377742Y4207408D01*
X3379571Y4221835D01*
X3379571Y4236364D01*
X3377742Y4250791D01*
X3374136Y4264914D01*
X3368751Y4278426D01*
X3361740Y4291177D01*
X3353206Y4302963D01*
X3343249Y4313580D01*
X3332022Y4322876D01*
X3319729Y4330649D01*
X3306572Y4336846D01*
X3292703Y4341368D01*
X3278428Y4344060D01*
X3263900Y4344974D01*
X3249371Y4344060D01*
X3235096Y4341368D01*
X3221228Y4336846D01*
X3208070Y4330649D01*
X3195777Y4322876D01*
X3184550Y4313580D01*
X3174593Y4302963D01*
X3166059Y4291177D01*
X3159048Y4278426D01*
X3153664Y4264914D01*
X3150057Y4250791D01*
X3148228Y4236364D01*
X3148228Y4221835D01*
X3150057Y4207408D01*
X3153664Y4193286D01*
X3159048Y4179773D01*
X3166059Y4167022D01*
X3174593Y4155236D01*
X3184550Y4144619D01*
X3195777Y4135323D01*
X3208070Y4127550D01*
X3221228Y4121353D01*
X3235096Y4116832D01*
X3249371Y4114139D01*
G37*
G36*
X2501900Y4113225D02*
G01*
X2516428Y4114139D01*
X2530703Y4116832D01*
X2544572Y4121353D01*
X2557729Y4127550D01*
X2570022Y4135323D01*
X2581249Y4144619D01*
X2591206Y4155236D01*
X2599740Y4167022D01*
X2606751Y4179773D01*
X2612136Y4193286D01*
X2615742Y4207408D01*
X2617571Y4221835D01*
X2617571Y4236364D01*
X2615742Y4250791D01*
X2612136Y4264914D01*
X2606751Y4278426D01*
X2599740Y4291177D01*
X2591206Y4302963D01*
X2581249Y4313580D01*
X2570022Y4322876D01*
X2557729Y4330649D01*
X2544572Y4336846D01*
X2530703Y4341368D01*
X2516428Y4344060D01*
X2501900Y4344974D01*
X2487371Y4344060D01*
X2473096Y4341368D01*
X2459228Y4336846D01*
X2446070Y4330649D01*
X2433777Y4322876D01*
X2422550Y4313580D01*
X2412593Y4302963D01*
X2404059Y4291177D01*
X2397048Y4278426D01*
X2391664Y4264914D01*
X2388057Y4250791D01*
X2386228Y4236364D01*
X2386228Y4221835D01*
X2388057Y4207408D01*
X2391664Y4193286D01*
X2397048Y4179773D01*
X2404059Y4167022D01*
X2412593Y4155236D01*
X2422550Y4144619D01*
X2433777Y4135323D01*
X2446070Y4127550D01*
X2459228Y4121353D01*
X2473096Y4116832D01*
X2487371Y4114139D01*
G37*
G36*
X4897120Y4414621D02*
G01*
X4903724Y4417872D01*
X4915103Y4425492D01*
X4925364Y4434535D01*
X4934407Y4444796D01*
X4942027Y4456176D01*
X4945278Y4462780D01*
X4897120Y4462780D01*
G37*
G36*
X4805680Y4414621D02*
G01*
X4805680Y4462780D01*
X4757521Y4462780D01*
X4760772Y4456176D01*
X4768392Y4444796D01*
X4777435Y4434535D01*
X4787696Y4425492D01*
X4799076Y4417872D01*
G37*
G36*
X4757521Y4554220D02*
G01*
X4805680Y4554220D01*
X4805680Y4602378D01*
X4799076Y4599127D01*
X4787696Y4591507D01*
X4777435Y4582464D01*
X4768392Y4572203D01*
X4760772Y4560824D01*
G37*
G36*
X4897120Y4554220D02*
G01*
X4945278Y4554220D01*
X4942027Y4560824D01*
X4934407Y4572203D01*
X4925364Y4582464D01*
X4915103Y4591507D01*
X4903724Y4599127D01*
X4897120Y4602378D01*
G37*
G36*
X1572818Y4556252D02*
G01*
X1729181Y4556252D01*
X1735480Y4556963D01*
X1740966Y4558893D01*
X1745843Y4561941D01*
X1749958Y4566056D01*
X1753006Y4570933D01*
X1754936Y4576419D01*
X1755648Y4582718D01*
X1755648Y4739081D01*
X1754936Y4745380D01*
X1753006Y4750866D01*
X1749958Y4755743D01*
X1745843Y4759858D01*
X1740966Y4762906D01*
X1735480Y4764836D01*
X1729181Y4765548D01*
X1572818Y4765548D01*
X1566519Y4764836D01*
X1561033Y4762906D01*
X1556156Y4759858D01*
X1552041Y4755743D01*
X1548993Y4750866D01*
X1547063Y4745380D01*
X1546352Y4739081D01*
X1546352Y4582718D01*
X1547063Y4576419D01*
X1548993Y4570933D01*
X1552041Y4566056D01*
X1556156Y4561941D01*
X1561033Y4558893D01*
X1566519Y4556963D01*
G37*
G36*
X3263900Y4590542D02*
G01*
X3278784Y4591456D01*
X3293465Y4594199D01*
X3307638Y4598720D01*
X3321202Y4604969D01*
X3333902Y4612843D01*
X3345535Y4622190D01*
X3355898Y4632909D01*
X3364890Y4644796D01*
X3372358Y4657699D01*
X3378149Y4671415D01*
X3382213Y4685792D01*
X3384499Y4700524D01*
X3384956Y4715408D01*
X3383584Y4730292D01*
X3380435Y4744872D01*
X3375456Y4758893D01*
X3368801Y4772253D01*
X3360572Y4784699D01*
X3350869Y4796028D01*
X3339846Y4806086D01*
X3327654Y4814671D01*
X3314547Y4821732D01*
X3300628Y4827117D01*
X3294227Y4828743D01*
X3290366Y4830673D01*
X3287623Y4834077D01*
X3286556Y4838293D01*
X3287369Y4842560D01*
X3289858Y4846116D01*
X3293618Y4848301D01*
X3307638Y4852720D01*
X3321202Y4858969D01*
X3333902Y4866843D01*
X3345535Y4876190D01*
X3355898Y4886909D01*
X3364890Y4898796D01*
X3372358Y4911699D01*
X3378149Y4925415D01*
X3382213Y4939792D01*
X3384499Y4954524D01*
X3384956Y4969408D01*
X3383584Y4984292D01*
X3380435Y4998872D01*
X3375456Y5012893D01*
X3368801Y5026253D01*
X3360572Y5038699D01*
X3350869Y5050028D01*
X3339846Y5060086D01*
X3327654Y5068671D01*
X3314547Y5075732D01*
X3300628Y5081117D01*
X3286150Y5084775D01*
X3282238Y5085283D01*
X3278378Y5086553D01*
X3275329Y5089296D01*
X3273602Y5093004D01*
X3273450Y5097068D01*
X3274923Y5100878D01*
X3277819Y5103774D01*
X3281578Y5105349D01*
X3292703Y5107432D01*
X3306572Y5111953D01*
X3319729Y5118150D01*
X3332022Y5125923D01*
X3343249Y5135219D01*
X3353206Y5145836D01*
X3361740Y5157622D01*
X3368751Y5170373D01*
X3374136Y5183886D01*
X3377742Y5198008D01*
X3379571Y5212435D01*
X3379571Y5226964D01*
X3377742Y5241391D01*
X3374136Y5255514D01*
X3368751Y5269026D01*
X3361740Y5281777D01*
X3353206Y5293563D01*
X3343249Y5304180D01*
X3332022Y5313476D01*
X3319729Y5321249D01*
X3306572Y5327446D01*
X3292703Y5331968D01*
X3278428Y5334660D01*
X3263900Y5335574D01*
X3249371Y5334660D01*
X3235096Y5331968D01*
X3221228Y5327446D01*
X3208070Y5321249D01*
X3195777Y5313476D01*
X3184550Y5304180D01*
X3174593Y5293563D01*
X3166059Y5281777D01*
X3159048Y5269026D01*
X3153664Y5255514D01*
X3150057Y5241391D01*
X3148228Y5226964D01*
X3148228Y5212435D01*
X3150057Y5198008D01*
X3153664Y5183886D01*
X3159048Y5170373D01*
X3166059Y5157622D01*
X3174593Y5145836D01*
X3184550Y5135219D01*
X3195777Y5125923D01*
X3208070Y5118150D01*
X3221228Y5111953D01*
X3235096Y5107432D01*
X3246221Y5105349D01*
X3249980Y5103774D01*
X3252876Y5100878D01*
X3254349Y5097068D01*
X3254197Y5093004D01*
X3252470Y5089296D01*
X3249422Y5086553D01*
X3245561Y5085283D01*
X3241649Y5084775D01*
X3227171Y5081117D01*
X3213252Y5075732D01*
X3200146Y5068671D01*
X3187954Y5060086D01*
X3176930Y5050028D01*
X3167227Y5038699D01*
X3158998Y5026253D01*
X3152343Y5012893D01*
X3147364Y4998872D01*
X3144215Y4984292D01*
X3142843Y4969408D01*
X3143300Y4954524D01*
X3145586Y4939792D01*
X3149650Y4925415D01*
X3155442Y4911699D01*
X3162909Y4898796D01*
X3171901Y4886909D01*
X3182264Y4876190D01*
X3193897Y4866843D01*
X3206597Y4858969D01*
X3220161Y4852720D01*
X3234182Y4848301D01*
X3237941Y4846116D01*
X3240430Y4842560D01*
X3241243Y4838293D01*
X3240176Y4834077D01*
X3237433Y4830673D01*
X3233572Y4828743D01*
X3227171Y4827117D01*
X3213252Y4821732D01*
X3200146Y4814671D01*
X3187954Y4806086D01*
X3176930Y4796028D01*
X3167227Y4784699D01*
X3158998Y4772253D01*
X3152343Y4758893D01*
X3147364Y4744872D01*
X3144215Y4730292D01*
X3142843Y4715408D01*
X3143300Y4700524D01*
X3145586Y4685792D01*
X3149650Y4671415D01*
X3155442Y4657699D01*
X3162909Y4644796D01*
X3171901Y4632909D01*
X3182264Y4622190D01*
X3193897Y4612843D01*
X3206597Y4604969D01*
X3220161Y4598720D01*
X3234334Y4594199D01*
X3249015Y4591456D01*
G37*
G36*
X2450541Y4608017D02*
G01*
X2450541Y4660341D01*
X2398166Y4660341D01*
X2404059Y4649622D01*
X2412593Y4637836D01*
X2422550Y4627219D01*
X2433777Y4617923D01*
X2446070Y4610150D01*
G37*
G36*
X2553258Y4608017D02*
G01*
X2557729Y4610150D01*
X2570022Y4617923D01*
X2581249Y4627219D01*
X2591206Y4637836D01*
X2599740Y4649622D01*
X2605633Y4660341D01*
X2553258Y4660341D01*
G37*
G36*
X4851400Y4657852D02*
G01*
X4865065Y4658766D01*
X4878476Y4661458D01*
X4891430Y4665827D01*
X4903724Y4671872D01*
X4915103Y4679492D01*
X4925364Y4688535D01*
X4934407Y4698796D01*
X4942027Y4710176D01*
X4948072Y4722469D01*
X4952441Y4735423D01*
X4955133Y4748834D01*
X4956048Y4762500D01*
X4955133Y4776165D01*
X4952441Y4789576D01*
X4948072Y4802530D01*
X4942027Y4814824D01*
X4934407Y4826203D01*
X4925364Y4836464D01*
X4915103Y4845507D01*
X4903724Y4853127D01*
X4891430Y4859172D01*
X4878476Y4863541D01*
X4865065Y4866233D01*
X4851400Y4867148D01*
X4837734Y4866233D01*
X4824323Y4863541D01*
X4811369Y4859172D01*
X4799076Y4853127D01*
X4787696Y4845507D01*
X4777435Y4836464D01*
X4768392Y4826203D01*
X4760772Y4814824D01*
X4754727Y4802530D01*
X4750358Y4789576D01*
X4747666Y4776165D01*
X4746752Y4762500D01*
X4747666Y4748834D01*
X4750358Y4735423D01*
X4754727Y4722469D01*
X4760772Y4710176D01*
X4768392Y4698796D01*
X4777435Y4688535D01*
X4787696Y4679492D01*
X4799076Y4671872D01*
X4811369Y4665827D01*
X4824323Y4661458D01*
X4837734Y4658766D01*
G37*
G36*
X2398166Y4763058D02*
G01*
X2450541Y4763058D01*
X2450541Y4815382D01*
X2446070Y4813249D01*
X2433777Y4805476D01*
X2422550Y4796180D01*
X2412593Y4785563D01*
X2404059Y4773777D01*
G37*
G36*
X2553258Y4763058D02*
G01*
X2605633Y4763058D01*
X2599740Y4773777D01*
X2591206Y4785563D01*
X2581249Y4796180D01*
X2570022Y4805476D01*
X2557729Y4813249D01*
X2553258Y4815382D01*
G37*
G36*
X1651000Y4810252D02*
G01*
X1664665Y4811166D01*
X1678076Y4813858D01*
X1691030Y4818227D01*
X1703324Y4824272D01*
X1714703Y4831892D01*
X1724964Y4840935D01*
X1734007Y4851196D01*
X1741627Y4862576D01*
X1747672Y4874869D01*
X1752041Y4887823D01*
X1754733Y4901234D01*
X1755648Y4914900D01*
X1754733Y4928565D01*
X1752041Y4941976D01*
X1747672Y4954930D01*
X1741627Y4967224D01*
X1734007Y4978603D01*
X1724964Y4988864D01*
X1714703Y4997907D01*
X1703324Y5005527D01*
X1691030Y5011572D01*
X1678076Y5015941D01*
X1664665Y5018633D01*
X1651000Y5019548D01*
X1637334Y5018633D01*
X1623923Y5015941D01*
X1610969Y5011572D01*
X1598676Y5005527D01*
X1587296Y4997907D01*
X1577035Y4988864D01*
X1567992Y4978603D01*
X1560372Y4967224D01*
X1554327Y4954930D01*
X1549958Y4941976D01*
X1547266Y4928565D01*
X1546352Y4914900D01*
X1547266Y4901234D01*
X1549958Y4887823D01*
X1554327Y4874869D01*
X1560372Y4862576D01*
X1567992Y4851196D01*
X1577035Y4840935D01*
X1587296Y4831892D01*
X1598676Y4824272D01*
X1610969Y4818227D01*
X1623923Y4813858D01*
X1637334Y4811166D01*
G37*
G36*
X2501900Y4849825D02*
G01*
X2516428Y4850739D01*
X2530703Y4853432D01*
X2544572Y4857953D01*
X2557729Y4864150D01*
X2570022Y4871923D01*
X2581249Y4881219D01*
X2591206Y4891836D01*
X2599740Y4903622D01*
X2606751Y4916373D01*
X2612136Y4929886D01*
X2615742Y4944008D01*
X2617571Y4958435D01*
X2617571Y4972964D01*
X2615742Y4987391D01*
X2612136Y5001514D01*
X2606751Y5015026D01*
X2599740Y5027777D01*
X2591206Y5039563D01*
X2581249Y5050180D01*
X2570022Y5059476D01*
X2557729Y5067249D01*
X2544572Y5073446D01*
X2530703Y5077968D01*
X2516428Y5080660D01*
X2501900Y5081574D01*
X2487371Y5080660D01*
X2473096Y5077968D01*
X2459228Y5073446D01*
X2446070Y5067249D01*
X2433777Y5059476D01*
X2422550Y5050180D01*
X2412593Y5039563D01*
X2404059Y5027777D01*
X2397048Y5015026D01*
X2391664Y5001514D01*
X2388057Y4987391D01*
X2386228Y4972964D01*
X2386228Y4958435D01*
X2388057Y4944008D01*
X2391664Y4929886D01*
X2397048Y4916373D01*
X2404059Y4903622D01*
X2412593Y4891836D01*
X2422550Y4881219D01*
X2433777Y4871923D01*
X2446070Y4864150D01*
X2459228Y4857953D01*
X2473096Y4853432D01*
X2487371Y4850739D01*
G37*
G36*
X4773218Y4911852D02*
G01*
X4929581Y4911852D01*
X4935880Y4912563D01*
X4941366Y4914493D01*
X4946243Y4917541D01*
X4950358Y4921656D01*
X4953406Y4926533D01*
X4955336Y4932019D01*
X4956048Y4938318D01*
X4956048Y5094681D01*
X4955336Y5100980D01*
X4953406Y5106466D01*
X4950358Y5111343D01*
X4946243Y5115458D01*
X4941366Y5118506D01*
X4935880Y5120436D01*
X4929581Y5121148D01*
X4773218Y5121148D01*
X4766919Y5120436D01*
X4761433Y5118506D01*
X4756556Y5115458D01*
X4752441Y5111343D01*
X4749393Y5106466D01*
X4747463Y5100980D01*
X4746752Y5094681D01*
X4746752Y4938318D01*
X4747463Y4932019D01*
X4749393Y4926533D01*
X4752441Y4921656D01*
X4756556Y4917541D01*
X4761433Y4914493D01*
X4766919Y4912563D01*
G37*
G36*
X2501900Y5103825D02*
G01*
X2516428Y5104739D01*
X2530703Y5107432D01*
X2544572Y5111953D01*
X2557729Y5118150D01*
X2570022Y5125923D01*
X2581249Y5135219D01*
X2591206Y5145836D01*
X2599740Y5157622D01*
X2606751Y5170373D01*
X2612136Y5183886D01*
X2615742Y5198008D01*
X2617571Y5212435D01*
X2617571Y5226964D01*
X2615742Y5241391D01*
X2612136Y5255514D01*
X2606751Y5269026D01*
X2599740Y5281777D01*
X2591206Y5293563D01*
X2581249Y5304180D01*
X2570022Y5313476D01*
X2557729Y5321249D01*
X2544572Y5327446D01*
X2530703Y5331968D01*
X2516428Y5334660D01*
X2501900Y5335574D01*
X2487371Y5334660D01*
X2473096Y5331968D01*
X2459228Y5327446D01*
X2446070Y5321249D01*
X2433777Y5313476D01*
X2422550Y5304180D01*
X2412593Y5293563D01*
X2404059Y5281777D01*
X2397048Y5269026D01*
X2391664Y5255514D01*
X2388057Y5241391D01*
X2386228Y5226964D01*
X2386228Y5212435D01*
X2388057Y5198008D01*
X2391664Y5183886D01*
X2397048Y5170373D01*
X2404059Y5157622D01*
X2412593Y5145836D01*
X2422550Y5135219D01*
X2433777Y5125923D01*
X2446070Y5118150D01*
X2459228Y5111953D01*
X2473096Y5107432D01*
X2487371Y5104739D01*
G37*
G36*
X3263900Y5357825D02*
G01*
X3278428Y5358739D01*
X3292703Y5361432D01*
X3306572Y5365953D01*
X3319729Y5372150D01*
X3332022Y5379923D01*
X3343249Y5389219D01*
X3353206Y5399836D01*
X3361740Y5411622D01*
X3368751Y5424373D01*
X3374136Y5437886D01*
X3377742Y5452008D01*
X3379571Y5466435D01*
X3379571Y5480964D01*
X3377742Y5495391D01*
X3374136Y5509514D01*
X3368751Y5523026D01*
X3361740Y5535777D01*
X3353206Y5547563D01*
X3343249Y5558180D01*
X3332022Y5567476D01*
X3319729Y5575249D01*
X3306572Y5581446D01*
X3292703Y5585968D01*
X3278428Y5588660D01*
X3263900Y5589574D01*
X3249371Y5588660D01*
X3235096Y5585968D01*
X3221228Y5581446D01*
X3208070Y5575249D01*
X3195777Y5567476D01*
X3184550Y5558180D01*
X3174593Y5547563D01*
X3166059Y5535777D01*
X3159048Y5523026D01*
X3153664Y5509514D01*
X3150057Y5495391D01*
X3148228Y5480964D01*
X3148228Y5466435D01*
X3150057Y5452008D01*
X3153664Y5437886D01*
X3159048Y5424373D01*
X3166059Y5411622D01*
X3174593Y5399836D01*
X3184550Y5389219D01*
X3195777Y5379923D01*
X3208070Y5372150D01*
X3221228Y5365953D01*
X3235096Y5361432D01*
X3249371Y5358739D01*
G37*
G36*
X2501900Y5357825D02*
G01*
X2516428Y5358739D01*
X2530703Y5361432D01*
X2544572Y5365953D01*
X2557729Y5372150D01*
X2570022Y5379923D01*
X2581249Y5389219D01*
X2591206Y5399836D01*
X2599740Y5411622D01*
X2606751Y5424373D01*
X2612136Y5437886D01*
X2615742Y5452008D01*
X2617571Y5466435D01*
X2617571Y5480964D01*
X2615742Y5495391D01*
X2612136Y5509514D01*
X2606751Y5523026D01*
X2599740Y5535777D01*
X2591206Y5547563D01*
X2581249Y5558180D01*
X2570022Y5567476D01*
X2557729Y5575249D01*
X2544572Y5581446D01*
X2530703Y5585968D01*
X2516428Y5588660D01*
X2501900Y5589574D01*
X2487371Y5588660D01*
X2473096Y5585968D01*
X2459228Y5581446D01*
X2446070Y5575249D01*
X2433777Y5567476D01*
X2422550Y5558180D01*
X2412593Y5547563D01*
X2404059Y5535777D01*
X2397048Y5523026D01*
X2391664Y5509514D01*
X2388057Y5495391D01*
X2386228Y5480964D01*
X2386228Y5466435D01*
X2388057Y5452008D01*
X2391664Y5437886D01*
X2397048Y5424373D01*
X2404059Y5411622D01*
X2412593Y5399836D01*
X2422550Y5389219D01*
X2433777Y5379923D01*
X2446070Y5372150D01*
X2459228Y5365953D01*
X2473096Y5361432D01*
X2487371Y5358739D01*
G37*

%LPD*%
D10*
X1727200Y5257800D02*
G01*
X1778000Y5257800D01*
X1816100Y5219700D01*
X1816100Y4533900D01*
X1866900Y4483100D01*
X2921000Y4483100D01*
X2959100Y4445000D01*
X2959100Y3975100D01*
X1879600Y4914900D02*
G01*
X2108200Y4914900D01*
X2146300Y4953000D01*
X2146300Y5446776D01*
X1600200Y4013200D02*
G01*
X1600200Y3644900D01*
X1651000Y3594100D01*
X2908300Y3594100D01*
X2959100Y3543300D01*
X2959100Y3467100D01*
X2046224Y3460495D02*
G01*
X2046224Y3338576D01*
X2108200Y3276600D01*
X4533900Y3276600D01*
X4610100Y3352800D01*
X4610100Y4775200D01*
D11*
G01*
X1651000Y4660900D03*
D12*
G01*
X1651000Y4914900D03*
G01*
X4851400Y4508500D03*
G01*
X4851400Y4762500D03*
D11*
G01*
X4851400Y5016500D03*
D13*
G01*
X2501900Y4229100D03*
G01*
X2501900Y3975100D03*
G01*
X2501900Y3721100D03*
G01*
X2501900Y3467100D03*
D14*
G01*
X3263900Y3467100D03*
D13*
G01*
X3263900Y3975100D03*
G01*
X3263900Y4229100D03*
D14*
G01*
X3263900Y3721100D03*
D13*
G01*
X2501900Y5473700D03*
G01*
X2501900Y5219700D03*
G01*
X2501900Y4965700D03*
G01*
X2501900Y4711700D03*
D14*
G01*
X3263900Y4711700D03*
D13*
G01*
X3263900Y5219700D03*
G01*
X3263900Y5473700D03*
D14*
G01*
X3263900Y4965700D03*
D15*
G01*
X2146300Y5446776D03*
G01*
X2959100Y3975100D03*
G01*
X2959100Y3467100D03*
G01*
X1600200Y4013200D03*
G01*
X4610100Y4775200D03*
G01*
X1879600Y4914900D03*
G01*
X1727200Y5257800D03*
G01*
X2046300Y3460495D03*
G01*
X4851400Y5361000D03*
G01*
X4380890Y5016500D03*
M02*
