G04 Layer: TopSilkscreenLayer*
G04 EasyEDA v6.5.47, 2024-12-22 15:22:41*
G04 e1e7952599984f8b88d5fc9924ef2239,3d6967793dfb4ab392e21a473a945d40,10*
G04 Gerber Generator version 0.2*
G04 Scale: 100 percent, Rotated: No, Reflected: No *
G04 Dimensions in millimeters *
G04 leading zeros omitted , absolute positions ,4 integer and 5 decimal *
%FSLAX45Y45*%
%MOMM*%

%ADD10C,0.1000*%
%ADD11C,0.1524*%
%ADD12C,0.1520*%
%ADD13C,0.2032*%
%ADD14C,0.2030*%
%ADD15C,0.1520*%
%ADD16C,0.2540*%
%ADD17C,0.1500*%
%ADD18C,0.3000*%
%ADD19C,0.0129*%

%LPD*%
D10*
X3534409Y5028184D02*
G01*
X3530600Y5035550D01*
X3523488Y5042915D01*
X3516122Y5046471D01*
X3501643Y5046471D01*
X3494277Y5042915D01*
X3487165Y5035550D01*
X3483356Y5028184D01*
X3479800Y5017262D01*
X3479800Y4999228D01*
X3483356Y4988305D01*
X3487165Y4980939D01*
X3494277Y4973573D01*
X3501643Y4970018D01*
X3516122Y4970018D01*
X3523488Y4973573D01*
X3530600Y4980939D01*
X3534409Y4988305D01*
X3565652Y5046471D02*
G01*
X3605529Y5046471D01*
X3583686Y5017262D01*
X3594608Y5017262D01*
X3601974Y5013705D01*
X3605529Y5010150D01*
X3609340Y4999228D01*
X3609340Y4991862D01*
X3605529Y4980939D01*
X3598418Y4973573D01*
X3587495Y4970018D01*
X3576574Y4970018D01*
X3565652Y4973573D01*
X3562095Y4977384D01*
X3558286Y4984495D01*
X4842509Y5752084D02*
G01*
X4838700Y5759450D01*
X4831588Y5766815D01*
X4824222Y5770371D01*
X4809743Y5770371D01*
X4802377Y5766815D01*
X4795265Y5759450D01*
X4791456Y5752084D01*
X4787900Y5741162D01*
X4787900Y5723128D01*
X4791456Y5712205D01*
X4795265Y5704839D01*
X4802377Y5697473D01*
X4809743Y5693918D01*
X4824222Y5693918D01*
X4831588Y5697473D01*
X4838700Y5704839D01*
X4842509Y5712205D01*
X4902708Y5770371D02*
G01*
X4866386Y5719318D01*
X4920995Y5719318D01*
X4902708Y5770371D02*
G01*
X4902708Y5693918D01*
X1781792Y3986784D02*
G01*
X1777982Y3994150D01*
X1770870Y4001515D01*
X1763504Y4005071D01*
X1749026Y4005071D01*
X1741660Y4001515D01*
X1734548Y3994150D01*
X1730738Y3986784D01*
X1727182Y3975862D01*
X1727182Y3957828D01*
X1730738Y3946905D01*
X1734548Y3939539D01*
X1741660Y3932173D01*
X1749026Y3928618D01*
X1763504Y3928618D01*
X1770870Y3932173D01*
X1777982Y3939539D01*
X1781792Y3946905D01*
X1849356Y4005071D02*
G01*
X1813034Y4005071D01*
X1809478Y3972305D01*
X1813034Y3975862D01*
X1823956Y3979671D01*
X1834878Y3979671D01*
X1845800Y3975862D01*
X1852912Y3968750D01*
X1856722Y3957828D01*
X1856722Y3950462D01*
X1852912Y3939539D01*
X1845800Y3932173D01*
X1834878Y3928618D01*
X1823956Y3928618D01*
X1813034Y3932173D01*
X1809478Y3935984D01*
X1805668Y3943095D01*
X2327892Y5777484D02*
G01*
X2324082Y5784850D01*
X2316970Y5792215D01*
X2309604Y5795771D01*
X2295126Y5795771D01*
X2287760Y5792215D01*
X2280648Y5784850D01*
X2276838Y5777484D01*
X2273282Y5766562D01*
X2273282Y5748528D01*
X2276838Y5737605D01*
X2280648Y5730239D01*
X2287760Y5722873D01*
X2295126Y5719318D01*
X2309604Y5719318D01*
X2316970Y5722873D01*
X2324082Y5730239D01*
X2327892Y5737605D01*
X2395456Y5784850D02*
G01*
X2391900Y5792215D01*
X2380978Y5795771D01*
X2373612Y5795771D01*
X2362690Y5792215D01*
X2355578Y5781294D01*
X2351768Y5763005D01*
X2351768Y5744718D01*
X2355578Y5730239D01*
X2362690Y5722873D01*
X2373612Y5719318D01*
X2377422Y5719318D01*
X2388090Y5722873D01*
X2395456Y5730239D01*
X2399012Y5741162D01*
X2399012Y5744718D01*
X2395456Y5755639D01*
X2388090Y5763005D01*
X2377422Y5766562D01*
X2373612Y5766562D01*
X2362690Y5763005D01*
X2355578Y5755639D01*
X2351768Y5744718D01*
X3670300Y5732271D02*
G01*
X3670300Y5655818D01*
X3670300Y5732271D02*
G01*
X3695700Y5732271D01*
X3706622Y5728715D01*
X3713988Y5721350D01*
X3717543Y5713984D01*
X3721100Y5703062D01*
X3721100Y5685028D01*
X3717543Y5674105D01*
X3713988Y5666739D01*
X3706622Y5659373D01*
X3695700Y5655818D01*
X3670300Y5655818D01*
X3748786Y5713984D02*
G01*
X3748786Y5717794D01*
X3752595Y5724905D01*
X3756152Y5728715D01*
X3763263Y5732271D01*
X3777995Y5732271D01*
X3785108Y5728715D01*
X3788918Y5724905D01*
X3792474Y5717794D01*
X3792474Y5710428D01*
X3788918Y5703062D01*
X3781552Y5692139D01*
X3745229Y5655818D01*
X3796029Y5655818D01*
X1549400Y5173471D02*
G01*
X1549400Y5097018D01*
X1600200Y5173471D02*
G01*
X1600200Y5097018D01*
X1549400Y5137150D02*
G01*
X1600200Y5137150D01*
X1627886Y5155184D02*
G01*
X1627886Y5158994D01*
X1631695Y5166105D01*
X1635252Y5169915D01*
X1642363Y5173471D01*
X1657095Y5173471D01*
X1664207Y5169915D01*
X1668018Y5166105D01*
X1671573Y5158994D01*
X1671573Y5151628D01*
X1668018Y5144262D01*
X1660652Y5133339D01*
X1624329Y5097018D01*
X1675129Y5097018D01*
X5084572Y4751578D02*
G01*
X5026406Y4751578D01*
X5015484Y4755134D01*
X5011674Y4758689D01*
X5008118Y4766055D01*
X5008118Y4773421D01*
X5011674Y4780534D01*
X5015484Y4784344D01*
X5026406Y4787900D01*
X5033518Y4787900D01*
X5070093Y4727447D02*
G01*
X5073650Y4720336D01*
X5084572Y4709413D01*
X5008118Y4709413D01*
X4267200Y5592571D02*
G01*
X4267200Y5516118D01*
X4267200Y5516118D02*
G01*
X4310888Y5516118D01*
X4334763Y5578094D02*
G01*
X4342129Y5581650D01*
X4353052Y5592571D01*
X4353052Y5516118D01*
X2057308Y4424171D02*
G01*
X2057308Y4347718D01*
X2057308Y4424171D02*
G01*
X2090074Y4424171D01*
X2100996Y4420615D01*
X2104552Y4416805D01*
X2108362Y4409694D01*
X2108362Y4402328D01*
X2104552Y4394962D01*
X2100996Y4391405D01*
X2090074Y4387850D01*
X2057308Y4387850D01*
X2082962Y4387850D02*
G01*
X2108362Y4347718D01*
X2132238Y4409694D02*
G01*
X2139604Y4413250D01*
X2150526Y4424171D01*
X2150526Y4347718D01*
X1638208Y4424171D02*
G01*
X1638208Y4347718D01*
X1638208Y4424171D02*
G01*
X1670974Y4424171D01*
X1681896Y4420615D01*
X1685452Y4416805D01*
X1689262Y4409694D01*
X1689262Y4402328D01*
X1685452Y4394962D01*
X1681896Y4391405D01*
X1670974Y4387850D01*
X1638208Y4387850D01*
X1663862Y4387850D02*
G01*
X1689262Y4347718D01*
X1713138Y4409694D02*
G01*
X1720504Y4413250D01*
X1731426Y4424171D01*
X1731426Y4347718D01*
X1755302Y4424171D02*
G01*
X1755302Y4347718D01*
X1755302Y4424171D02*
G01*
X1788068Y4424171D01*
X1798990Y4420615D01*
X1802546Y4416805D01*
X1806356Y4409694D01*
X1806356Y4398771D01*
X1802546Y4391405D01*
X1798990Y4387850D01*
X1788068Y4384039D01*
X1755302Y4384039D01*
X3390808Y5821171D02*
G01*
X3390808Y5744718D01*
X3390808Y5821171D02*
G01*
X3423574Y5821171D01*
X3434496Y5817615D01*
X3438052Y5813805D01*
X3441862Y5806694D01*
X3441862Y5799328D01*
X3438052Y5791962D01*
X3434496Y5788405D01*
X3423574Y5784850D01*
X3390808Y5784850D01*
X3416462Y5784850D02*
G01*
X3441862Y5744718D01*
X3469548Y5802884D02*
G01*
X3469548Y5806694D01*
X3473104Y5813805D01*
X3476660Y5817615D01*
X3484026Y5821171D01*
X3498504Y5821171D01*
X3505870Y5817615D01*
X3509426Y5813805D01*
X3512982Y5806694D01*
X3512982Y5799328D01*
X3509426Y5791962D01*
X3502060Y5781039D01*
X3465738Y5744718D01*
X3516792Y5744718D01*
X1595628Y3365408D02*
G01*
X1672081Y3365408D01*
X1595628Y3365408D02*
G01*
X1595628Y3398174D01*
X1599184Y3409096D01*
X1602994Y3412652D01*
X1610105Y3416462D01*
X1617471Y3416462D01*
X1624837Y3412652D01*
X1628394Y3409096D01*
X1631950Y3398174D01*
X1631950Y3365408D01*
X1631950Y3391062D02*
G01*
X1672081Y3416462D01*
X1595628Y3447704D02*
G01*
X1595628Y3487582D01*
X1624837Y3465738D01*
X1624837Y3476660D01*
X1628394Y3484026D01*
X1631950Y3487582D01*
X1642871Y3491392D01*
X1650237Y3491392D01*
X1661160Y3487582D01*
X1668526Y3480470D01*
X1672081Y3469548D01*
X1672081Y3458626D01*
X1668526Y3447704D01*
X1664715Y3444148D01*
X1657604Y3440338D01*
X1739808Y3789171D02*
G01*
X1739808Y3712718D01*
X1739808Y3789171D02*
G01*
X1772574Y3789171D01*
X1783496Y3785615D01*
X1787052Y3781805D01*
X1790862Y3774694D01*
X1790862Y3767328D01*
X1787052Y3759962D01*
X1783496Y3756405D01*
X1772574Y3752850D01*
X1739808Y3752850D01*
X1765462Y3752850D02*
G01*
X1790862Y3712718D01*
X1851060Y3789171D02*
G01*
X1814738Y3738118D01*
X1869348Y3738118D01*
X1851060Y3789171D02*
G01*
X1851060Y3712718D01*
X3797208Y3636771D02*
G01*
X3797208Y3560318D01*
X3797208Y3636771D02*
G01*
X3829974Y3636771D01*
X3840896Y3633215D01*
X3844452Y3629405D01*
X3848262Y3622294D01*
X3848262Y3614928D01*
X3844452Y3607562D01*
X3840896Y3604005D01*
X3829974Y3600450D01*
X3797208Y3600450D01*
X3822862Y3600450D02*
G01*
X3848262Y3560318D01*
X3915826Y3636771D02*
G01*
X3879504Y3636771D01*
X3875948Y3604005D01*
X3879504Y3607562D01*
X3890426Y3611371D01*
X3901348Y3611371D01*
X3912270Y3607562D01*
X3919382Y3600450D01*
X3923192Y3589528D01*
X3923192Y3582162D01*
X3919382Y3571239D01*
X3912270Y3563873D01*
X3901348Y3560318D01*
X3890426Y3560318D01*
X3879504Y3563873D01*
X3875948Y3567684D01*
X3872138Y3574795D01*
X3555908Y3636771D02*
G01*
X3555908Y3560318D01*
X3555908Y3636771D02*
G01*
X3588674Y3636771D01*
X3599596Y3633215D01*
X3603152Y3629405D01*
X3606962Y3622294D01*
X3606962Y3614928D01*
X3603152Y3607562D01*
X3599596Y3604005D01*
X3588674Y3600450D01*
X3555908Y3600450D01*
X3581562Y3600450D02*
G01*
X3606962Y3560318D01*
X3674526Y3625850D02*
G01*
X3670970Y3633215D01*
X3660048Y3636771D01*
X3652682Y3636771D01*
X3641760Y3633215D01*
X3634648Y3622294D01*
X3630838Y3604005D01*
X3630838Y3585718D01*
X3634648Y3571239D01*
X3641760Y3563873D01*
X3652682Y3560318D01*
X3656238Y3560318D01*
X3667160Y3563873D01*
X3674526Y3571239D01*
X3678082Y3582162D01*
X3678082Y3585718D01*
X3674526Y3596639D01*
X3667160Y3604005D01*
X3656238Y3607562D01*
X3652682Y3607562D01*
X3641760Y3604005D01*
X3634648Y3596639D01*
X3630838Y3585718D01*
X2108108Y5643371D02*
G01*
X2108108Y5566918D01*
X2108108Y5643371D02*
G01*
X2140874Y5643371D01*
X2151796Y5639815D01*
X2155352Y5636005D01*
X2159162Y5628894D01*
X2159162Y5621528D01*
X2155352Y5614162D01*
X2151796Y5610605D01*
X2140874Y5607050D01*
X2108108Y5607050D01*
X2133762Y5607050D02*
G01*
X2159162Y5566918D01*
X2234092Y5643371D02*
G01*
X2197770Y5566918D01*
X2183038Y5643371D02*
G01*
X2234092Y5643371D01*
X2354072Y4838791D02*
G01*
X2277618Y4838791D01*
X2354072Y4838791D02*
G01*
X2354072Y4806025D01*
X2350515Y4795103D01*
X2346706Y4791547D01*
X2339593Y4787737D01*
X2332227Y4787737D01*
X2324861Y4791547D01*
X2321306Y4795103D01*
X2317750Y4806025D01*
X2317750Y4838791D01*
X2317750Y4813137D02*
G01*
X2277618Y4787737D01*
X2354072Y4745573D02*
G01*
X2350515Y4756495D01*
X2343150Y4760051D01*
X2335784Y4760051D01*
X2328672Y4756495D01*
X2324861Y4749129D01*
X2321306Y4734651D01*
X2317750Y4723729D01*
X2310384Y4716617D01*
X2303018Y4712807D01*
X2292095Y4712807D01*
X2284984Y4716617D01*
X2281174Y4720173D01*
X2277618Y4731095D01*
X2277618Y4745573D01*
X2281174Y4756495D01*
X2284984Y4760051D01*
X2292095Y4763861D01*
X2303018Y4763861D01*
X2310384Y4760051D01*
X2317750Y4752939D01*
X2321306Y4742017D01*
X2324861Y4727539D01*
X2328672Y4720173D01*
X2335784Y4716617D01*
X2343150Y4716617D01*
X2350515Y4720173D01*
X2354072Y4731095D01*
X2354072Y4745573D01*
X3505200Y4436871D02*
G01*
X3505200Y4360418D01*
X3505200Y4436871D02*
G01*
X3537965Y4436871D01*
X3548888Y4433315D01*
X3552443Y4429505D01*
X3556000Y4422394D01*
X3556000Y4415028D01*
X3552443Y4407662D01*
X3548888Y4404105D01*
X3537965Y4400550D01*
X3505200Y4400550D01*
X3530600Y4400550D02*
G01*
X3556000Y4360418D01*
X3627374Y4411471D02*
G01*
X3623818Y4400550D01*
X3616452Y4393184D01*
X3605529Y4389628D01*
X3601974Y4389628D01*
X3591052Y4393184D01*
X3583686Y4400550D01*
X3580129Y4411471D01*
X3580129Y4415028D01*
X3583686Y4425950D01*
X3591052Y4433315D01*
X3601974Y4436871D01*
X3605529Y4436871D01*
X3616452Y4433315D01*
X3623818Y4425950D01*
X3627374Y4411471D01*
X3627374Y4393184D01*
X3623818Y4374895D01*
X3616452Y4363973D01*
X3605529Y4360418D01*
X3598163Y4360418D01*
X3587495Y4363973D01*
X3583686Y4371339D01*
X3911600Y4436871D02*
G01*
X3911600Y4360418D01*
X3911600Y4436871D02*
G01*
X3944365Y4436871D01*
X3955288Y4433315D01*
X3958843Y4429505D01*
X3962400Y4422394D01*
X3962400Y4415028D01*
X3958843Y4407662D01*
X3955288Y4404105D01*
X3944365Y4400550D01*
X3911600Y4400550D01*
X3937000Y4400550D02*
G01*
X3962400Y4360418D01*
X3986529Y4422394D02*
G01*
X3993895Y4425950D01*
X4004563Y4436871D01*
X4004563Y4360418D01*
X4028693Y4422394D02*
G01*
X4036059Y4425950D01*
X4046981Y4436871D01*
X4046981Y4360418D01*
X1828708Y5643371D02*
G01*
X1828708Y5566918D01*
X1828708Y5643371D02*
G01*
X1861474Y5643371D01*
X1872396Y5639815D01*
X1875952Y5636005D01*
X1879762Y5628894D01*
X1879762Y5621528D01*
X1875952Y5614162D01*
X1872396Y5610605D01*
X1861474Y5607050D01*
X1828708Y5607050D01*
X1854362Y5607050D02*
G01*
X1879762Y5566918D01*
X1903638Y5628894D02*
G01*
X1911004Y5632450D01*
X1921926Y5643371D01*
X1921926Y5566918D01*
X1982378Y5643371D02*
G01*
X1945802Y5592318D01*
X2000412Y5592318D01*
X1982378Y5643371D02*
G01*
X1982378Y5566918D01*
X4102100Y5198871D02*
G01*
X4102100Y5122418D01*
X4102100Y5198871D02*
G01*
X4134865Y5198871D01*
X4145788Y5195315D01*
X4149343Y5191505D01*
X4152900Y5184394D01*
X4152900Y5177028D01*
X4149343Y5169662D01*
X4145788Y5166105D01*
X4134865Y5162550D01*
X4102100Y5162550D01*
X4127500Y5162550D02*
G01*
X4152900Y5122418D01*
X4177029Y5184394D02*
G01*
X4184395Y5187950D01*
X4195063Y5198871D01*
X4195063Y5122418D01*
X4222750Y5180584D02*
G01*
X4222750Y5184394D01*
X4226559Y5191505D01*
X4230115Y5195315D01*
X4237481Y5198871D01*
X4251959Y5198871D01*
X4259072Y5195315D01*
X4262881Y5191505D01*
X4266438Y5184394D01*
X4266438Y5177028D01*
X4262881Y5169662D01*
X4255515Y5158739D01*
X4219193Y5122418D01*
X4269993Y5122418D01*
X2260658Y3293871D02*
G01*
X2260658Y3239262D01*
X2264214Y3228339D01*
X2271580Y3220973D01*
X2282502Y3217418D01*
X2289614Y3217418D01*
X2300536Y3220973D01*
X2307902Y3228339D01*
X2311458Y3239262D01*
X2311458Y3293871D01*
X2342700Y3293871D02*
G01*
X2382832Y3293871D01*
X2360988Y3264662D01*
X2371910Y3264662D01*
X2379022Y3261105D01*
X2382832Y3257550D01*
X2386388Y3246628D01*
X2386388Y3239262D01*
X2382832Y3228339D01*
X2375466Y3220973D01*
X2364544Y3217418D01*
X2353622Y3217418D01*
X2342700Y3220973D01*
X2339144Y3224784D01*
X2335588Y3231895D01*
X4513072Y5092700D02*
G01*
X4458461Y5092700D01*
X4447540Y5089144D01*
X4440174Y5081778D01*
X4436618Y5070855D01*
X4436618Y5063489D01*
X4440174Y5052821D01*
X4447540Y5045455D01*
X4458461Y5041900D01*
X4513072Y5041900D01*
X4513072Y4981447D02*
G01*
X4462018Y5017770D01*
X4462018Y4963160D01*
X4513072Y4981447D02*
G01*
X4436618Y4981447D01*
X2832102Y3903471D02*
G01*
X2832102Y3848862D01*
X2835658Y3837939D01*
X2843024Y3830573D01*
X2853946Y3827018D01*
X2861312Y3827018D01*
X2871980Y3830573D01*
X2879346Y3837939D01*
X2882902Y3848862D01*
X2882902Y3903471D01*
X2907032Y3888994D02*
G01*
X2914398Y3892550D01*
X2925066Y3903471D01*
X2925066Y3827018D01*
X2819402Y5122671D02*
G01*
X2819402Y5068062D01*
X2822958Y5057139D01*
X2830324Y5049773D01*
X2841246Y5046218D01*
X2848612Y5046218D01*
X2859280Y5049773D01*
X2866646Y5057139D01*
X2870202Y5068062D01*
X2870202Y5122671D01*
X2897888Y5104384D02*
G01*
X2897888Y5108194D01*
X2901698Y5115305D01*
X2905254Y5119115D01*
X2912366Y5122671D01*
X2927098Y5122671D01*
X2934210Y5119115D01*
X2938020Y5115305D01*
X2941576Y5108194D01*
X2941576Y5100828D01*
X2938020Y5093462D01*
X2930654Y5082539D01*
X2894332Y5046218D01*
X2945132Y5046218D01*
D11*
X4016519Y5106860D02*
G01*
X3875519Y5106860D01*
X3875519Y4926139D02*
G01*
X4016519Y4926139D01*
X4031759Y4941379D02*
G01*
X4031759Y5091620D01*
X3654280Y5106860D02*
G01*
X3795280Y5106860D01*
X3795280Y4926139D02*
G01*
X3654280Y4926139D01*
X3639040Y4941379D02*
G01*
X3639040Y5091620D01*
X4941760Y5279880D02*
G01*
X4941760Y5420880D01*
X4761039Y5420880D02*
G01*
X4761039Y5279880D01*
X4776279Y5264640D02*
G01*
X4926520Y5264640D01*
X4941760Y5642119D02*
G01*
X4941760Y5501119D01*
X4761039Y5501119D02*
G01*
X4761039Y5642119D01*
X4776279Y5657359D02*
G01*
X4926520Y5657359D01*
X1901680Y3884739D02*
G01*
X2042680Y3884739D01*
X2042680Y4065460D02*
G01*
X1901680Y4065460D01*
X1886440Y4050220D02*
G01*
X1886440Y3899979D01*
X2263919Y3884739D02*
G01*
X2122919Y3884739D01*
X2122919Y4065460D02*
G01*
X2263919Y4065460D01*
X2279159Y4050220D02*
G01*
X2279159Y3899979D01*
X2225819Y5856160D02*
G01*
X2084819Y5856160D01*
X2084819Y5675439D02*
G01*
X2225819Y5675439D01*
X2241059Y5690679D02*
G01*
X2241059Y5840920D01*
X1863580Y5856160D02*
G01*
X2004580Y5856160D01*
X2004580Y5675439D02*
G01*
X1863580Y5675439D01*
X1848340Y5690679D02*
G01*
X1848340Y5840920D01*
D12*
X3809314Y5239499D02*
G01*
X3809314Y5256883D01*
X3658285Y5239499D02*
G01*
X3658285Y5256883D01*
X3658285Y5239499D02*
G01*
X3647180Y5239499D01*
X3647180Y5256883D01*
X3820419Y5256883D02*
G01*
X3820419Y5239499D01*
X3809314Y5239499D01*
X3809314Y5256883D02*
G01*
X3820419Y5256883D01*
X3647180Y5256883D02*
G01*
X3658285Y5256883D01*
X3647180Y5314787D02*
G01*
X3820419Y5314787D01*
D11*
X3647180Y5300499D02*
G01*
X3820419Y5300499D01*
X3647180Y5256883D02*
G01*
X3647180Y5538116D01*
X3647180Y5538116D02*
G01*
X3663980Y5538116D01*
X3820419Y5256883D02*
G01*
X3820419Y5538116D01*
X3820419Y5538116D02*
G01*
X3803619Y5538116D01*
D13*
X1524000Y5041900D02*
G01*
X1775460Y5041900D01*
X1775460Y4533900D01*
X1524000Y4533900D01*
X1524000Y5041900D01*
X4978400Y4953000D02*
G01*
X4978400Y5143500D01*
X4724400Y5143500D01*
X4724400Y4381500D01*
X4978400Y4381500D01*
D14*
X4978400Y4381500D02*
G01*
X4978400Y4953000D01*
D15*
X4648200Y5746612D02*
G01*
X4648200Y5892800D01*
X3987800Y5892800D01*
X3987800Y5378587D02*
G01*
X3987800Y5232400D01*
X4648200Y5232400D01*
X4648200Y5378587D01*
X3987800Y5892800D02*
G01*
X3987800Y5746612D01*
D11*
X2047880Y4320809D02*
G01*
X1919386Y4320809D01*
X1919386Y4137390D01*
X2047880Y4137390D01*
X2143119Y4320809D02*
G01*
X2271613Y4320809D01*
X2271613Y4137390D01*
X2143119Y4137390D01*
X1654180Y4320809D02*
G01*
X1525686Y4320809D01*
X1525686Y4137390D01*
X1654180Y4137390D01*
X1749419Y4320809D02*
G01*
X1877913Y4320809D01*
X1877913Y4137390D01*
X1749419Y4137390D01*
X3209919Y5699490D02*
G01*
X3338413Y5699490D01*
X3338413Y5882909D01*
X3209919Y5882909D01*
X3114680Y5699490D02*
G01*
X2986186Y5699490D01*
X2986186Y5882909D01*
X3114680Y5882909D01*
X1895109Y3413119D02*
G01*
X1895109Y3541613D01*
X1711690Y3541613D01*
X1711690Y3413119D01*
X1895109Y3317880D02*
G01*
X1895109Y3189386D01*
X1711690Y3189386D01*
X1711690Y3317880D01*
X2035180Y3838209D02*
G01*
X1906686Y3838209D01*
X1906686Y3654790D01*
X2035180Y3654790D01*
X2130419Y3838209D02*
G01*
X2258913Y3838209D01*
X2258913Y3654790D01*
X2130419Y3654790D01*
X3756390Y3813180D02*
G01*
X3756390Y3684686D01*
X3939809Y3684686D01*
X3939809Y3813180D01*
X3756390Y3908419D02*
G01*
X3756390Y4036913D01*
X3939809Y4036913D01*
X3939809Y3908419D01*
X3698509Y3908419D02*
G01*
X3698509Y4036913D01*
X3515090Y4036913D01*
X3515090Y3908419D01*
X3698509Y3813180D02*
G01*
X3698509Y3684686D01*
X3515090Y3684686D01*
X3515090Y3813180D01*
X2054590Y5299080D02*
G01*
X2054590Y5170586D01*
X2238009Y5170586D01*
X2238009Y5299080D01*
X2054590Y5394319D02*
G01*
X2054590Y5522813D01*
X2238009Y5522813D01*
X2238009Y5394319D01*
X2054590Y4791080D02*
G01*
X2054590Y4662586D01*
X2238009Y4662586D01*
X2238009Y4791080D01*
X2054590Y4886319D02*
G01*
X2054590Y5014813D01*
X2238009Y5014813D01*
X2238009Y4886319D01*
X3717919Y4137390D02*
G01*
X3846413Y4137390D01*
X3846413Y4320809D01*
X3717919Y4320809D01*
X3622680Y4137390D02*
G01*
X3494186Y4137390D01*
X3494186Y4320809D01*
X3622680Y4320809D01*
X4124319Y4137390D02*
G01*
X4252813Y4137390D01*
X4252813Y4320809D01*
X4124319Y4320809D01*
X4029080Y4137390D02*
G01*
X3900586Y4137390D01*
X3900586Y4320809D01*
X4029080Y4320809D01*
X1876419Y5343890D02*
G01*
X2004913Y5343890D01*
X2004913Y5527309D01*
X1876419Y5527309D01*
X1781180Y5343890D02*
G01*
X1652686Y5343890D01*
X1652686Y5527309D01*
X1781180Y5527309D01*
X4086590Y4867280D02*
G01*
X4086590Y4738786D01*
X4270009Y4738786D01*
X4270009Y4867280D01*
X4086590Y4962519D02*
G01*
X4086590Y5091013D01*
X4270009Y5091013D01*
X4270009Y4962519D01*
X2073678Y3212879D02*
G01*
X2218921Y3212879D01*
X2218921Y3316041D01*
X2073678Y3518120D02*
G01*
X2218921Y3518120D01*
X2218921Y3414958D01*
X2073678Y3319960D02*
G01*
X2073678Y3411039D01*
X4406879Y4862581D02*
G01*
X4584720Y4862581D01*
X4406879Y5170418D02*
G01*
X4584720Y5170418D01*
D16*
X3212901Y3348098D02*
G01*
X2552898Y3348101D01*
X3212901Y4348101D02*
G01*
X3212901Y4317885D01*
X3212901Y4140314D02*
G01*
X3212901Y4063885D01*
X3212901Y3886314D02*
G01*
X3212901Y3816487D01*
X3212901Y3625712D02*
G01*
X3212901Y3562487D01*
X3212901Y3371712D02*
G01*
X3212901Y3348098D01*
X2552898Y4348098D02*
G01*
X2552898Y4317885D01*
X2552898Y4140314D02*
G01*
X2552898Y4063885D01*
X2552898Y3886314D02*
G01*
X2552898Y3809885D01*
X2552898Y3632314D02*
G01*
X2552898Y3555885D01*
X2552898Y3378314D02*
G01*
X2552898Y3348101D01*
X2552898Y4348101D02*
G01*
X2757898Y4348101D01*
X3212901Y4348101D02*
G01*
X3007901Y4348101D01*
X3212901Y4592698D02*
G01*
X2552898Y4592701D01*
X3212901Y5592701D02*
G01*
X3212901Y5562485D01*
X3212901Y5384914D02*
G01*
X3212901Y5308485D01*
X3212901Y5130914D02*
G01*
X3212901Y5061087D01*
X3212901Y4870312D02*
G01*
X3212901Y4807087D01*
X3212901Y4616312D02*
G01*
X3212901Y4592698D01*
X2552898Y5592698D02*
G01*
X2552898Y5562485D01*
X2552898Y5384914D02*
G01*
X2552898Y5308485D01*
X2552898Y5130914D02*
G01*
X2552898Y5054485D01*
X2552898Y4876914D02*
G01*
X2552898Y4800485D01*
X2552898Y4622914D02*
G01*
X2552898Y4592701D01*
X2552898Y5592701D02*
G01*
X2757898Y5592701D01*
X3212901Y5592701D02*
G01*
X3007901Y5592701D01*
D11*
G75*
G01*
X4016520Y4926140D02*
G03*
X4031760Y4941380I0J15240D01*
G75*
G01*
X4031760Y5091620D02*
G03*
X4016520Y5106860I-15240J0D01*
G75*
G01*
X3654280Y4926140D02*
G02*
X3639040Y4941380I0J15240D01*
G75*
G01*
X3639040Y5091620D02*
G02*
X3654280Y5106860I15240J0D01*
G75*
G01*
X4761040Y5279880D02*
G03*
X4776279Y5264640I15240J0D01*
G75*
G01*
X4926521Y5264640D02*
G03*
X4941760Y5279880I-1J15240D01*
G75*
G01*
X4761040Y5642120D02*
G02*
X4776279Y5657360I15240J0D01*
G75*
G01*
X4926521Y5657360D02*
G02*
X4941760Y5642120I-1J-15240D01*
G75*
G01*
X1901680Y4065460D02*
G03*
X1886440Y4050220I0J-15240D01*
G75*
G01*
X1886440Y3899980D02*
G03*
X1901680Y3884740I15240J0D01*
G75*
G01*
X2263920Y4065460D02*
G02*
X2279160Y4050220I0J-15240D01*
G75*
G01*
X2279160Y3899980D02*
G02*
X2263920Y3884740I-15240J0D01*
G75*
G01*
X2225820Y5675440D02*
G03*
X2241060Y5690680I0J15240D01*
G75*
G01*
X2241060Y5840920D02*
G03*
X2225820Y5856160I-15240J0D01*
G75*
G01*
X1863580Y5675440D02*
G02*
X1848340Y5690680I0J15240D01*
G75*
G01*
X1848340Y5840920D02*
G02*
X1863580Y5856160I15240J0D01*
D17*
G75*
G01*
X2667000Y4241800D02*
G03*
X2665875Y4241825I10J25400D01*
D16*
G75*
G01*
X3007901Y4348102D02*
G02*
X2757932Y4348226I-124984J622D01*
D17*
G75*
G01*
X2667000Y5486400D02*
G03*
X2665875Y5486425I10J25400D01*
D16*
G75*
G01*
X3007901Y5592702D02*
G02*
X2757932Y5592826I-124984J622D01*
D18*
G75*
G01
X4380662Y5183327D02*
G03X4380662Y5183327I-15011J0D01*
M02*
